<svg xmlns="http://www.w3.org/2000/svg" version="1.1" xmlns:xlink="http://www.w3.org/1999/xlink" xmlns:svgjs="http://svgjs.dev/svgjs" width="51" height="62"><svg width="51" height="62" viewBox="0 0 51 62" fill="none" xmlns="http://www.w3.org/2000/svg">
<path d="M43.8364 24.4768C43.8384 27.1296 43.2696 29.7517 42.1688 32.1644C41.3187 34.0255 40.1687 35.7337 38.7649 37.2206C38.322 37.6031 37.9006 38.0099 37.5028 38.4392C35.5054 40.5788 34.1318 43.2261 33.5312 46.0932C33.5207 46.1479 33.5083 46.2009 33.4995 46.2557C33.4907 46.3104 33.4854 46.3193 33.4801 46.351C33.4572 46.4764 33.4343 46.6001 33.4131 46.7254C33.3059 47.0067 33.1037 47.2414 32.8416 47.3887C32.5796 47.5361 32.2743 47.5867 31.9788 47.5319C31.6833 47.4771 31.4164 47.3203 31.2243 47.0888C31.0323 46.8572 30.9273 46.5656 30.9276 46.2645C30.9269 46.1983 30.9316 46.1321 30.9417 46.0667L30.9523 46.0031C31.2253 44.5105 31.6824 43.0577 32.3132 41.6781C33.1627 39.8201 34.3109 38.1144 35.7118 36.629C36.1576 36.2435 36.5819 35.8338 36.9827 35.4016C39.7506 32.44 41.2897 28.534 41.2874 24.4768C41.2874 15.5777 34.0231 8.36341 25.0612 8.36341C16.0993 8.36341 8.83316 15.5777 8.83316 24.4768C8.83064 28.5279 10.3635 32.4288 13.122 35.391C13.5509 35.8534 14.0065 36.2904 14.4863 36.6996C15.877 38.1716 17.0179 39.8617 17.8638 41.7028C18.4821 43.0433 18.9355 44.4541 19.2141 45.9042C19.2299 45.9855 19.2458 46.0685 19.2599 46.1532C19.2626 46.1897 19.2626 46.2263 19.2599 46.2627C19.259 46.6042 19.123 46.9314 18.8819 47.1727C18.6407 47.414 18.3139 47.5497 17.9731 47.5502C17.7077 47.5502 17.4488 47.4681 17.2317 47.3151C17.0146 47.1621 16.85 46.9457 16.7603 46.6954C16.7427 46.5948 16.725 46.4941 16.7057 46.3917C16.7057 46.3634 16.6933 46.3369 16.688 46.3087C16.1071 43.3892 14.7243 40.69 12.6954 38.5151C12.274 38.0597 11.8261 37.6298 11.3539 37.2277C9.96086 35.7525 8.81818 34.0588 7.97116 32.2139C6.8561 29.7877 6.2805 27.1478 6.2842 24.4768C6.2842 14.179 14.6891 5.8309 25.0594 5.8309C35.4297 5.8309 43.8364 14.179 43.8364 24.4768Z" fill="#005CB8"></path>
<path d="M50.1013 25.0667C50.1047 28.7138 49.3128 32.3177 47.7809 35.6263C46.2491 38.9349 44.0143 41.8682 41.2328 44.2212C41.1552 44.2901 41.0759 44.3554 40.9966 44.4208C40.7657 44.559 40.4918 44.6066 40.2279 44.5543C39.964 44.5021 39.7288 44.3537 39.5677 44.1379C39.4066 43.922 39.3311 43.654 39.3557 43.3857C39.3803 43.1173 39.5033 42.8676 39.701 42.6847C39.7155 42.6715 39.7308 42.6592 39.7468 42.6477L39.7627 42.6335C42.6906 40.1968 44.9732 37.074 46.4083 33.5419C47.827 30.0324 48.363 26.2273 47.9691 22.4614C47.5752 18.6956 46.2635 15.0844 44.1494 11.9458C42.0353 8.80713 39.1836 6.23717 35.8452 4.46204C32.5068 2.68691 28.7842 1.76103 25.0047 1.76587C21.2253 1.77071 17.505 2.70613 14.1712 4.48981C10.8374 6.27349 7.99222 8.85075 5.88613 11.9948C3.78003 15.1389 2.47754 18.7534 2.09326 22.5202C1.70898 26.287 2.25471 30.0908 3.6824 33.5967C5.1114 37.0922 7.37236 40.1844 10.2681 42.6035C10.3368 42.6618 10.4056 42.7201 10.4761 42.7801C10.6644 42.9797 10.7697 43.2437 10.7705 43.5183C10.7689 43.6627 10.7388 43.8054 10.6821 43.9382C10.6254 44.0709 10.5432 44.1912 10.44 44.2921C10.3369 44.393 10.2149 44.4725 10.081 44.5261C9.94716 44.5797 9.80407 44.6063 9.65993 44.6044C9.47533 44.6039 9.29372 44.5578 9.13111 44.4702C9.01476 44.3748 8.89842 44.2777 8.77855 44.1788C5.58422 41.4447 3.12759 37.9495 1.63473 34.0149C0.141877 30.0804 -0.339256 25.8329 0.23561 21.6633C0.810477 17.4936 2.42288 13.5358 4.92443 10.1541C7.42599 6.77231 10.7363 4.0752 14.5509 2.31094C18.3654 0.546683 22.5616 -0.228046 26.7533 0.0580414C30.9449 0.344129 34.9975 1.68184 38.5379 3.94809C42.0784 6.21433 44.9931 9.33631 47.0137 13.0267C49.0344 16.7171 50.0961 20.8575 50.1013 25.0667Z" fill="#005CB8"></path>
<path d="M44.9894 50.4024C44.9894 50.5897 44.9245 50.7713 44.8059 50.9162C44.6874 51.0611 44.5223 51.1603 44.3389 51.1971C44.1944 51.1829 44.0498 51.1706 43.9035 51.16C43.1608 51.1046 42.4111 51.077 41.6542 51.077C36.1812 51.0663 30.8104 52.5618 26.1278 55.4003C25.7559 55.6263 25.3892 55.8612 25.0279 56.1067C24.6277 55.84 24.2188 55.5769 23.8045 55.3331C19.1515 52.5384 13.8266 51.0664 8.40147 51.0752C7.46838 51.0752 6.54704 51.1176 5.63745 51.2024C5.42416 51.2218 5.21086 51.243 4.99933 51.266C4.83791 51.2162 4.69544 51.1183 4.59085 50.9855C4.48626 50.8526 4.4245 50.691 4.41379 50.5222C4.40307 50.3533 4.44391 50.1851 4.53087 50.0401C4.61783 49.895 4.74679 49.7799 4.90062 49.7101C5.07689 49.6906 5.25317 49.673 5.42945 49.6571C6.36959 49.5652 7.32618 49.5199 8.29923 49.5211C14.2165 49.5113 20.0033 51.2625 24.9256 54.5526C29.8481 51.2627 35.6348 49.5115 41.552 49.5211C42.3746 49.5211 43.1849 49.5535 43.9829 49.6182C44.168 49.6324 44.3513 49.6482 44.5346 49.6677C44.672 49.7345 44.7877 49.839 44.8682 49.969C44.9487 50.0991 44.9907 50.2493 44.9894 50.4024Z" fill="#005CB8"></path>
<path d="M48.3175 56.4352C48.3175 56.7888 48.1773 57.128 47.9277 57.378C47.6781 57.6281 47.3396 57.7685 46.9866 57.7685C46.9526 57.7704 46.9184 57.7704 46.8844 57.7685L46.6394 57.7262C44.9292 57.4381 43.1981 57.2928 41.4639 57.2917C36.6464 57.2845 31.8935 58.4019 27.5821 60.5554C26.6972 60.9969 25.8382 61.4784 25.005 62C24.1706 61.4784 23.311 60.9969 22.426 60.5554C18.1147 58.4017 13.3618 57.2843 8.54428 57.2917C6.78218 57.2911 5.02317 57.4393 3.28595 57.735L3.03035 57.7791C2.99806 57.7809 2.96569 57.7809 2.9334 57.7791C2.60348 57.7802 2.28497 57.6583 2.03981 57.4371C1.79465 57.2159 1.64035 56.9113 1.60694 56.5824C1.57352 56.2536 1.66337 55.9241 1.85901 55.6579C2.05465 55.3918 2.3421 55.208 2.66546 55.1424C2.69101 55.1362 2.71691 55.1315 2.74302 55.1283C4.65938 54.7944 6.60091 54.6266 8.54604 54.6268C14.3123 54.6181 19.9829 56.1038 25.0067 58.9394C31.7368 55.1577 39.559 53.806 47.1647 55.1107L47.2616 55.1265C47.5611 55.1896 47.8297 55.3542 48.022 55.5926C48.2144 55.831 48.3188 56.1286 48.3175 56.4352Z" fill="#005CB8"></path>
</svg><style>@media (prefers-color-scheme: light) { :root { filter: none; } }
@media (prefers-color-scheme: dark) { :root { filter: none; } }
</style></svg>