<svg width="34" height="25" viewBox="0 0 34 25" fill="none" xmlns="http://www.w3.org/2000/svg">
<path d="M1.47772 0.603027C0.982272 0.779973 0.628379 1.07193 0.362959 1.52315C0.150624 1.87704 0.115234 2.03629 0.115234 2.61137C0.115234 3.20414 0.150624 3.328 0.380654 3.71728C0.548753 3.9827 0.814173 4.24812 1.07959 4.41622L1.51311 4.68164H17.0578H32.6026L33.0361 4.41622C33.3015 4.24812 33.5669 3.9827 33.735 3.71728C33.9739 3.328 34.0005 3.20414 34.0005 2.60252C34.0005 2.0009 33.9739 1.87704 33.735 1.48776C33.5669 1.22234 33.3015 0.956919 33.0361 0.788821L32.6026 0.523401L17.1994 0.505706C4.76008 0.488012 1.73429 0.505706 1.47772 0.603027Z" fill="#070707"/>
<path d="M1.47772 10.5122C0.982272 10.6892 0.628379 10.9811 0.362959 11.4323C0.150624 11.7862 0.115234 11.9455 0.115234 12.5205C0.115234 13.1133 0.150624 13.2372 0.380654 13.6265C0.548753 13.8919 0.814173 14.1573 1.07959 14.3254L1.51311 14.5908H17.0578H32.6026L33.0361 14.3254C33.3015 14.1573 33.5669 13.8919 33.735 13.6265C33.9739 13.2372 34.0005 13.1133 34.0005 12.5117C34.0005 11.9101 33.9739 11.7862 33.735 11.3969C33.5669 11.1315 33.3015 10.8661 33.0361 10.698L32.6026 10.4326L17.1994 10.4149C4.76008 10.3972 1.73429 10.4149 1.47772 10.5122Z" fill="#070707"/>
<path d="M1.47772 20.4214C0.982272 20.5983 0.628379 20.8903 0.362959 21.3415C0.150624 21.6954 0.115234 21.8547 0.115234 22.4297C0.115234 23.0225 0.150624 23.1464 0.380654 23.5356C0.548753 23.8011 0.814173 24.0665 1.07959 24.2346L1.51311 24.5H17.0578H32.6026L33.0361 24.2346C33.3015 24.0665 33.5669 23.8011 33.735 23.5356C33.9739 23.1464 34.0005 23.0225 34.0005 22.4209C34.0005 21.8193 33.9739 21.6954 33.735 21.3061C33.5669 21.0407 33.3015 20.7753 33.0361 20.6072L32.6026 20.3418L17.1994 20.3241C4.76008 20.3064 1.73429 20.3241 1.47772 20.4214Z" fill="#070707"/>
</svg>
