<svg width="15" height="11" viewBox="0 0 15 11" fill="none" xmlns="http://www.w3.org/2000/svg">
<path d="M13.4913 0.150393C13.1837 0.247073 13.1719 0.255862 9.25787 4.16992L5.40533 8.01953L3.66217 6.27637C2.04205 4.66211 1.90435 4.53028 1.72271 4.44532C1.25689 4.22852 0.761775 4.2959 0.392635 4.62989C0.0996661 4.89356 -0.0438886 5.31543 0.0264239 5.69629C0.0996661 6.08887 0.0527911 6.03907 2.48443 8.46192C4.61138 10.583 4.74322 10.709 4.92193 10.7881C5.15045 10.8877 5.46392 10.917 5.67486 10.8613C6.03228 10.7647 5.87994 10.9082 10.4473 6.34082C15.1758 1.60645 14.9063 1.89649 14.9795 1.47754C15.0792 0.894534 14.7129 0.329104 14.1241 0.150393C13.96 0.100589 13.6495 0.100589 13.4913 0.150393Z" fill="#8FC7FF"/>
</svg>
