<svg width="32" height="32" viewBox="0 0 32 32" fill="none" xmlns="http://www.w3.org/2000/svg">
<path d="M1.67221 0.0649261C1.0212 0.189953 0.457821 0.633799 0.176133 1.23393C0.0384196 1.52774 0.00712101 1.67777 0.00712101 2.09036C0.00712101 3.05931 -0.41854 2.57796 6.73632 9.71697L13.0586 16.0308L6.67998 22.4072C1.50319 27.5895 0.282549 28.8398 0.163614 29.0961C-0.0492165 29.5399 -0.0554762 30.3401 0.151095 30.7839C0.332627 31.1778 0.733249 31.5904 1.13387 31.8029C1.58457 32.0342 2.30444 32.0655 2.824 31.8779C3.18706 31.7404 3.41241 31.5278 9.60327 25.3515L16.0007 18.9689L22.3731 25.3203C27.4873 30.4214 28.8018 31.7029 29.0522 31.8217C29.3151 31.9467 29.4591 31.9717 29.9599 31.9717C30.4794 31.9717 30.5921 31.9467 30.8675 31.8029C31.2556 31.6029 31.6751 31.159 31.8566 30.7652C32.0569 30.3401 32.0444 29.5337 31.8378 29.0961C31.7189 28.8398 30.4982 27.5895 25.3214 22.4072L18.9428 16.0308L25.2651 9.71697C32.42 2.57796 31.9943 3.05931 31.9943 2.09036C31.9943 1.68402 31.963 1.52774 31.8315 1.24643C31.3245 0.171202 30.0538 -0.266392 28.9896 0.258718C28.8269 0.339985 26.5421 2.57171 22.3731 6.73509L16.0007 13.0927L9.63457 6.73509C5.45934 2.57171 3.17454 0.339985 3.01179 0.258718C2.79896 0.152447 2.10413 -0.0225906 1.98519 0.0024128C1.96641 0.00866508 1.82244 0.0336685 1.67221 0.0649261Z" fill="#FDFDFD"/>
</svg>
