<svg width="22" height="24" viewBox="0 0 22 24" fill="none" xmlns="http://www.w3.org/2000/svg">
<path d="M11.2823 9.17222C11.3736 9.13463 11.583 8.94667 11.7441 8.75872C12.4906 7.89949 15.0844 4.70962 15.1273 4.59148C15.2616 4.23705 15.122 3.79133 14.8051 3.57652C14.5635 3.41005 14.1553 3.39931 13.9083 3.54967C13.8117 3.60874 13.3069 4.17261 12.7806 4.81166L11.8193 5.96624L11.7925 3.27042C11.7656 0.69812 11.7603 0.569236 11.6582 0.397391C11.5025 0.139624 11.2447 0 10.9333 0C10.6218 0 10.364 0.139624 10.2083 0.397391C10.1062 0.569236 10.1009 0.69812 10.074 3.27042L10.0472 5.96624L9.1074 4.80629C8.59186 4.17261 8.09244 3.61411 8.00652 3.56578C7.78097 3.44764 7.39432 3.45838 7.16877 3.58726C6.94323 3.72151 6.74453 4.05446 6.74453 4.31223C6.74453 4.41963 6.79823 4.60222 6.86268 4.72036C6.93249 4.83851 7.75412 5.86958 8.6939 7.00805C10.1277 8.74798 10.4338 9.09167 10.6164 9.16148C10.8688 9.26351 11.0675 9.26888 11.2823 9.17222Z" fill="#070707"/>
<path d="M1.13553 11.1317C0.775728 11.2874 0.571662 11.7009 0.646844 12.1037C0.695176 12.3561 0.963683 12.6514 1.20534 12.7212C1.34496 12.7642 4.38984 12.7749 11.0542 12.7642L20.7044 12.7481L20.8494 12.6353C21.134 12.4259 21.2199 12.254 21.2199 11.9157C21.2199 11.5774 21.134 11.4055 20.8494 11.1961L20.7044 11.0833L11.0005 11.0726C3.01508 11.0619 1.26978 11.0726 1.13553 11.1317Z" fill="#070707"/>
<path d="M11.2584 23.9568C11.4141 23.8923 11.6182 23.7097 11.7041 23.5594C11.7524 23.4842 11.7739 22.6626 11.7954 20.7723L11.8222 18.0926L12.7835 19.231C13.3098 19.8593 13.8146 20.4232 13.9112 20.4769C14.126 20.6165 14.604 20.5951 14.8134 20.4447C15.141 20.1977 15.2645 19.7305 15.098 19.3814C14.9691 19.1183 11.5806 15.096 11.3711 14.9564C11.1241 14.7899 10.7482 14.7899 10.5012 14.9564C10.2917 15.096 6.90317 19.1183 6.77429 19.3814C6.60781 19.7305 6.73133 20.1977 7.05891 20.4447C7.26834 20.5951 7.74629 20.6165 7.96646 20.4769C8.05776 20.4178 8.57329 19.8486 9.10494 19.2096L10.0716 18.0496L10.0877 20.7615C10.1038 23.4036 10.1092 23.4735 10.2166 23.6185C10.2756 23.699 10.3884 23.8171 10.4636 23.8708C10.6301 23.9944 11.0597 24.0427 11.2584 23.9568Z" fill="#070707"/>
</svg>
