<svg width="25" height="26" viewBox="0 0 25 26" fill="none" xmlns="http://www.w3.org/2000/svg">
<path d="M20.4858 1.09296C20.1179 1.18729 19.9481 1.26746 19.6227 1.4844C19.4152 1.62116 8.66732 12.3125 8.48811 12.5624C8.38907 12.6992 6.93652 17.8539 6.93652 18.0708C6.93652 18.3349 7.24307 18.6367 7.51188 18.6367C7.71939 18.6367 12.8788 17.1795 13.0108 17.0851C13.0816 17.0333 15.5716 14.5573 18.5475 11.5768C22.4948 7.62471 24.004 6.08256 24.1454 5.8609C24.4944 5.31384 24.6406 4.58757 24.5322 3.94147C24.4991 3.75754 24.3907 3.44628 24.2822 3.21519C24.1124 2.85677 24.0228 2.7483 23.4239 2.14936C22.8249 1.55042 22.7165 1.46553 22.358 1.29104C21.7214 0.984495 21.1319 0.923187 20.4858 1.09296ZM21.8534 2.37573C22.1128 2.50307 23.0702 3.46514 23.2117 3.73396C23.306 3.91317 23.3248 4.01692 23.3248 4.39421C23.3248 4.96485 23.24 5.14878 22.7023 5.70999L22.3156 6.11557L20.8866 4.6866L19.4577 3.25764L19.8727 2.86149C20.1038 2.64455 20.382 2.42289 20.4952 2.3663C20.9055 2.16823 21.4526 2.17294 21.8534 2.37573ZM20.0472 5.54964L21.4384 6.94088L17.0383 11.3363L12.643 15.7363L11.2517 14.3451C10.4877 13.5811 9.86048 12.935 9.86048 12.9067C9.86048 12.8454 18.5475 4.15841 18.6088 4.15841C18.6371 4.15841 19.2832 4.78564 20.0472 5.54964ZM11.4545 16.3211C11.28 16.3777 8.42208 17.1653 8.41265 17.1606C8.40794 17.1559 8.55413 16.6182 8.73334 15.9721C8.91255 15.3213 9.10591 14.6281 9.16251 14.4206L9.26154 14.0527L10.384 15.1751C11.0065 15.7976 11.4828 16.3117 11.4545 16.3211Z" fill="#070707" stroke="#070707" stroke-width="0.5"/>
<path d="M2.69228 3.43203C1.70662 3.69613 0.947335 4.40354 0.598346 5.38448L0.452148 5.78535V14.1564C0.452148 22.1407 0.456865 22.5415 0.537038 22.8056C0.711532 23.3715 0.900174 23.6875 1.32462 24.112C1.62173 24.4091 1.81509 24.56 2.06504 24.6826C2.75359 25.0269 2.07919 25.008 12.0301 24.9939L20.967 24.9797L21.283 24.8571C22.2121 24.494 22.8676 23.829 23.1741 22.9282C23.2779 22.6264 23.2779 22.5792 23.292 19.5798C23.3062 16.8492 23.3015 16.5238 23.2307 16.3918C23.1317 16.2031 22.9289 16.0899 22.6931 16.0899C22.5375 16.0899 22.462 16.123 22.3205 16.2503L22.146 16.4106L22.1225 19.4006C22.0989 22.3765 22.0989 22.3859 21.9904 22.6547C21.797 23.1357 21.4339 23.4989 20.9529 23.6922L20.6841 23.8007L12.0348 23.8149C6.32365 23.8196 3.29593 23.8101 3.12144 23.7771C2.55551 23.6734 2.05089 23.2867 1.81509 22.7726L1.67832 22.4802V14.1799V5.87967L1.81509 5.58256C1.98958 5.20527 2.39045 4.82327 2.77245 4.66764L3.04598 4.55917L6.0171 4.53559C9.33721 4.50729 9.14857 4.53087 9.31835 4.17245C9.42682 3.94608 9.37966 3.72443 9.17215 3.52164L9.00709 3.35657L5.97937 3.36129C3.46571 3.36129 2.90922 3.37544 2.69228 3.43203Z" fill="#070707" stroke="#070707" stroke-width="0.5"/>
</svg>
