<svg width="25" height="26" viewBox="0 0 25 26" fill="none" xmlns="http://www.w3.org/2000/svg">
<path d="M20.6104 1.04405C19.9397 1.17716 19.4328 1.42292 18.972 1.84787C18.7212 2.07826 18.3576 2.60561 18.204 2.95376L18.1119 3.1688L11.8349 3.18928C4.94868 3.20976 5.43507 3.18416 4.43157 3.51695C2.80345 4.05454 1.51836 5.12459 0.898858 6.466C0.125756 8.13508 0.330551 10.1984 1.40573 11.6576C2.09179 12.5945 3.21304 13.3625 4.46741 13.7669C5.48115 14.0895 5.23028 14.0793 12.1677 14.0793C16.366 14.0793 18.6136 14.0997 18.8799 14.1356C19.4021 14.2073 20.2878 14.4991 20.6923 14.7397C21.6497 15.2927 22.1976 16.1528 22.259 17.1768C22.346 18.6769 21.5064 19.8084 19.8936 20.3614C19.0744 20.6429 19.3151 20.6327 12.8026 20.6327H6.76624L6.628 20.3204C6.24401 19.4654 5.44019 18.8049 4.48277 18.5592C4.0527 18.4516 3.3308 18.4619 2.84953 18.5848C1.26749 18.9892 0.243513 20.5149 0.463668 22.1482C0.571185 22.9674 0.847659 23.5357 1.40573 24.0886C2.02523 24.6979 2.77785 25 3.68919 25C4.80533 25.0051 5.78834 24.4931 6.36689 23.6125C6.48977 23.423 6.628 23.1773 6.66896 23.0646L6.75088 22.8599L13.0381 22.8291C18.7365 22.8035 19.3663 22.7933 19.6888 22.7165C23.0679 21.8922 24.8701 19.4654 24.3684 16.4088C24.0612 14.5247 22.5355 12.917 20.421 12.2412C19.4021 11.9187 19.653 11.9289 12.7207 11.9289C8.52236 11.9289 6.27473 11.9084 6.0085 11.8726C5.48627 11.8009 4.60053 11.5091 4.19606 11.2684C3.23864 10.7155 2.69082 9.85536 2.62938 8.83138C2.57818 7.90981 2.84441 7.1879 3.4588 6.57864C3.88375 6.15881 4.24214 5.93353 4.86676 5.69802C5.77298 5.36011 5.43507 5.37547 12.0858 5.37547H18.117L18.2706 5.6929C18.6904 6.58888 19.4482 7.20326 20.4312 7.45414C20.8766 7.56677 21.7572 7.53094 22.2232 7.37734C23.2574 7.04455 24.0663 6.18441 24.353 5.11947C24.4657 4.68428 24.4708 3.87534 24.3581 3.42991C24.0663 2.30354 23.1601 1.38196 22.0593 1.10549C21.6139 0.992849 21.0149 0.967249 20.6104 1.04405ZM21.5627 3.23536C21.8545 3.33263 22.0235 3.48623 22.1515 3.75758C22.3665 4.22349 22.2897 4.70476 21.9467 5.04779C21.4501 5.54954 20.5387 5.42155 20.2264 4.81228C19.9192 4.19789 20.1752 3.46063 20.7691 3.25072C21.0149 3.16368 21.3323 3.15344 21.5627 3.23536ZM4.22166 20.7709C4.67221 20.9962 4.877 21.4724 4.75925 22.0202C4.61589 22.6909 3.86327 23.0237 3.19768 22.7114C2.5577 22.4144 2.40922 21.5338 2.90585 20.986C3.21304 20.6481 3.79159 20.5508 4.22166 20.7709Z" fill="#070707" stroke="#FDFDFD" stroke-width="0.5"/>
</svg>
