<svg width="24" height="24" viewBox="0 0 24 24" fill="none" xmlns="http://www.w3.org/2000/svg">
<path d="M2.56845 0.0739079C1.7758 0.284969 1.14731 0.946293 0.978463 1.76239C0.940941 1.94062 0.926871 4.89079 0.926871 12.0106C0.926871 22.9482 0.9128 22.3197 1.1989 22.8497C1.36775 23.1593 1.73359 23.5298 2.05253 23.7127C2.5966 24.0223 1.99156 24.0082 12.3476 23.9941L21.7281 23.9801L22.0001 23.8722C22.5911 23.633 23.1117 23.0936 23.3228 22.5026C23.4119 22.2587 23.4166 22.0899 23.4306 18.9381C23.44 16.607 23.4306 15.547 23.3931 15.35C23.2196 14.4495 22.4598 13.7225 21.5264 13.5818L21.1887 13.5255V10.7817C21.1887 7.74245 21.1699 7.45635 20.9073 6.73405C20.6024 5.8898 20.4946 5.75848 18.0744 3.32893C16.8596 2.10478 15.7293 1.00257 15.5604 0.875938C15.1805 0.585144 14.5286 0.261518 14.0361 0.12081L13.6609 0.0129356L8.2671 0.00355339C3.30482 -0.00582695 2.84987 -0.00113678 2.56845 0.0739079ZM13.295 1.49505C13.4311 1.56071 13.5389 1.65921 13.614 1.79053L13.7312 1.99222V3.69008C13.7312 5.6037 13.7594 5.83352 14.0408 6.30724C14.3456 6.81378 14.749 7.1421 15.2931 7.32033C15.5604 7.40944 15.734 7.41882 17.4365 7.44228C19.5049 7.47511 19.4299 7.46104 19.6503 7.81749L19.7582 7.98634L19.7723 10.763L19.7863 13.5443H18.5856H17.3896V12.2169C17.3896 11.2273 17.3709 10.8333 17.324 10.6739L17.263 10.4581L17.4928 10.4346C17.9337 10.3831 18.1635 10.1016 18.1307 9.66545C18.1166 9.48722 18.0791 9.38403 17.9947 9.29492C17.7461 9.02758 18.1823 9.04165 11.0578 9.04165C5.15278 9.04165 4.468 9.05103 4.3273 9.11669C3.78792 9.36996 3.86765 10.2423 4.43986 10.4018C4.54774 10.43 6.20808 10.4487 8.86745 10.4487C12.9011 10.4487 13.1262 10.4534 13.1027 10.5285C13.0183 10.8146 12.9808 11.096 12.9808 11.5369V12.0434L8.69391 12.0528C4.44455 12.0669 4.40234 12.0669 4.2757 12.1653C4.04119 12.3389 3.96615 12.4843 3.96615 12.7469C3.96615 13.0237 4.05057 13.1737 4.30384 13.3473L4.45862 13.4505H8.71736H12.9808V15.1577V16.8697L12.5446 16.6633C12.0052 16.4053 11.6206 16.3115 11.1047 16.3115C10.3683 16.3115 9.68355 16.5789 9.15824 17.0713C8.66108 17.531 8.4594 18.0985 8.56727 18.6895C8.67515 19.2664 8.7455 19.3555 10.4152 21.0393L11.9677 22.5964H7.47914C3.76916 22.5964 2.96244 22.5871 2.8358 22.5308C2.65288 22.4557 2.4512 22.2447 2.38554 22.0664C2.31518 21.8788 2.31518 2.11416 2.38554 1.92655C2.4512 1.75301 2.65288 1.54195 2.82642 1.46222C2.93898 1.41063 3.90517 1.40125 8.02789 1.39655C13.0746 1.39655 13.0934 1.39655 13.295 1.49505ZM17.4037 6.03051C15.6495 6.04458 15.4525 6.00237 15.2368 5.5568C15.143 5.3645 15.1383 5.28008 15.1383 3.87769V2.40496L16.944 4.2107L18.7498 6.01644L17.4037 6.03051ZM15.6402 10.5707C15.7105 10.6223 15.809 10.7254 15.8606 10.7958C15.9544 10.9177 15.9591 10.9975 15.9825 12.7C16.006 14.4073 16.0107 14.4823 16.1045 14.609C16.1561 14.6793 16.2733 14.7872 16.3578 14.8435L16.5125 14.9513H18.9327C21.6577 14.9513 21.6014 14.9467 21.8735 15.3078L22.0095 15.4813L22.0236 18.6519C22.033 20.3967 22.0236 21.8929 22.0095 21.9773C21.9767 22.1649 21.7328 22.451 21.5311 22.5308C21.4092 22.5824 20.6822 22.5964 17.6851 22.5964H13.9892L11.9583 20.5656C10.3074 18.9146 9.93213 18.5159 9.93213 18.4127C9.93213 18.2439 10.1104 18.0469 10.4105 17.8827C10.6357 17.7561 10.6966 17.742 11.1047 17.742H11.5503L12.5352 18.2251C13.3279 18.6144 13.5624 18.7082 13.7265 18.7082C13.947 18.7129 14.1018 18.6238 14.2659 18.4034C14.3644 18.2767 14.3644 18.2204 14.3879 14.6324L14.4113 10.9881L14.5192 10.8146C14.7349 10.4675 15.3259 10.3408 15.6402 10.5707Z" fill="#070707"/>
<path d="M4.42104 3.04292C4.00361 3.16487 3.83007 3.73239 4.08803 4.12637C4.27095 4.40778 4.14432 4.3984 8.07005 4.3984H11.6534L11.8129 4.29053C12.0192 4.15451 12.1599 3.8215 12.1177 3.5823C12.0755 3.35717 11.841 3.0992 11.6299 3.03823C11.4142 2.98195 4.62272 2.98195 4.42104 3.04292Z" fill="#070707"/>
<path d="M4.27156 6.13352C3.84944 6.3868 3.8682 7.07157 4.30439 7.32954C4.46386 7.41865 4.53891 7.42334 6.90748 7.42334C9.27605 7.42334 9.35109 7.41865 9.51056 7.32954C9.95144 7.06688 9.9702 6.39149 9.54339 6.13352C9.398 6.04441 9.29012 6.03972 6.90748 6.03972C4.52484 6.03972 4.41696 6.04441 4.27156 6.13352Z" fill="#070707"/>
<path d="M4.40267 15.106C3.98524 15.2608 3.83046 15.8002 4.09311 16.1989C4.24789 16.4381 4.35108 16.4521 6.16151 16.4521C7.59672 16.4521 7.85469 16.4428 7.9907 16.3771C8.45504 16.1567 8.45973 15.4015 8.00008 15.153C7.85938 15.0779 7.68584 15.0685 6.20372 15.0591C4.98895 15.0545 4.51993 15.0638 4.40267 15.106Z" fill="#070707"/>
</svg>
