<svg width="26" height="26" viewBox="0 0 26 26" fill="none" xmlns="http://www.w3.org/2000/svg">
<path d="M11.8244 1.03339C9.04615 1.31966 6.58236 2.45066 4.6301 4.33253C3.55072 5.37905 2.82332 6.36457 2.18508 7.65043C1.58907 8.84713 1.21364 10.0532 1.02592 11.3766C0.908598 12.2073 0.903905 13.8686 1.02123 14.6382C1.13386 15.3703 1.34504 16.2291 1.57969 16.9378C1.81433 17.6229 2.42911 18.8853 2.83739 19.5142L3.12836 19.96L2.69661 21.5509C2.41034 22.6162 2.27894 23.1887 2.29771 23.2732C2.33056 23.4187 2.48073 23.5736 2.64029 23.6252C2.71538 23.6487 3.27384 23.5173 4.35791 23.2263L5.96758 22.7945L6.36179 23.0527C9.23387 24.9204 12.716 25.4695 16.0527 24.5919C17.5873 24.1883 19.197 23.3624 20.4922 22.3206C21.0601 21.8653 22.055 20.8376 22.4914 20.2557C23.1907 19.3312 23.8101 18.1955 24.2137 17.1067C25.1476 14.5772 25.1664 11.5925 24.256 8.9973C23.9321 8.0728 23.1062 6.49128 22.7636 6.13931C22.5759 5.9469 22.3131 5.9469 22.1207 6.13931C21.9001 6.35987 21.9283 6.53351 22.2755 7.0732C23.5755 9.11463 24.1715 11.569 23.9509 13.9812C23.5098 18.8712 19.915 22.8696 15.1094 23.8317C13.9737 24.0569 12.5236 24.1086 11.4489 23.9584C9.69378 23.7097 8.21081 23.1512 6.73253 22.1704C6.44157 21.978 6.1553 21.8184 6.10368 21.8184C6.04736 21.8184 5.44197 21.9686 4.74742 22.1516C4.05756 22.3393 3.48033 22.4754 3.46156 22.4613C3.44748 22.4426 3.58357 21.8653 3.77129 21.1755C3.95431 20.4809 4.10449 19.8755 4.10449 19.8239C4.10449 19.7676 3.94962 19.4907 3.75721 19.1997C3.1659 18.3175 2.80924 17.6042 2.48073 16.6421C1.7721 14.5819 1.68293 12.3762 2.22731 10.2269C2.42911 9.43375 2.66845 8.79082 3.07204 7.99771C3.66335 6.82447 4.19835 6.08299 5.13224 5.15848C6.76538 3.53473 8.78804 2.47882 11.0266 2.0893C13.725 1.62001 16.4704 2.1597 18.7887 3.60981C19.3988 3.99463 19.5583 4.02279 19.7836 3.80223C19.976 3.60981 19.976 3.34701 19.7836 3.15929C19.4316 2.81671 17.8501 1.99075 16.9256 1.66694C16.2639 1.43699 15.4145 1.2258 14.6871 1.11786C13.9784 1.00993 12.472 0.962997 11.8244 1.03339Z" fill="#070707" stroke="#070707" stroke-width="0.5"/>
<path d="M20.8489 4.44025C20.6096 4.59512 20.5579 4.99402 20.755 5.17704C20.9709 5.36945 21.3698 5.30375 21.4965 5.05033C21.7077 4.65144 21.2243 4.19622 20.8489 4.44025Z" fill="#070707" stroke="#070707" stroke-width="0.5"/>
<path d="M12.0545 5.34624C10.5059 5.62781 9.1496 6.69311 8.53483 8.11038C8.44566 8.31687 8.3518 8.58906 8.32834 8.72046C8.16409 9.59335 8.87741 10.4334 9.78315 10.4334C10.4167 10.4334 10.8578 10.119 11.1723 9.45256C11.4257 8.90818 11.6697 8.63129 12.0733 8.43419C12.3596 8.2934 12.4206 8.27932 12.8336 8.27932C13.2278 8.27932 13.3122 8.2934 13.5469 8.41072C13.9082 8.58906 14.34 9.05366 14.4761 9.41501C14.6075 9.76698 14.5934 10.3677 14.4432 10.7056C14.2978 11.0294 13.9552 11.3673 13.5187 11.616C12.979 11.9257 12.6365 12.212 12.2892 12.6438C11.6979 13.3759 11.4069 14.169 11.4022 15.0606C11.4022 15.5393 11.4163 15.6238 11.5195 15.835C11.8715 16.553 12.7491 16.8627 13.4671 16.5248C13.9646 16.2855 14.2649 15.849 14.3165 15.2859C14.3306 15.1263 14.3635 14.9198 14.3916 14.8307C14.462 14.6007 14.7295 14.3285 15.1049 14.1126C16.25 13.4462 17.0572 12.4185 17.3951 11.1796C17.5359 10.668 17.5453 9.38216 17.4139 8.8894C17.1792 8.0259 16.7428 7.28442 16.0858 6.65557C15.6071 6.19566 15.3865 6.0361 14.8703 5.77329C14.2274 5.44948 13.7628 5.33685 12.9743 5.31808C12.5989 5.31339 12.1859 5.32277 12.0545 5.34624ZM13.9364 6.39745C14.5371 6.59925 14.9642 6.86675 15.4428 7.34074C15.9356 7.82411 16.2406 8.30748 16.433 8.8894C16.6067 9.42909 16.6395 10.2691 16.4987 10.8464C16.2547 11.8788 15.6493 12.6907 14.7013 13.2538C14.1382 13.587 14.0162 13.6903 13.7862 13.9953C13.5703 14.2957 13.3967 14.765 13.3967 15.0653C13.3967 15.3046 13.2982 15.544 13.1574 15.6425C13.0964 15.6848 12.9556 15.7176 12.8429 15.7176C12.6693 15.7176 12.6083 15.6895 12.4769 15.5581C12.3267 15.4079 12.3173 15.3797 12.3173 15.0982C12.3173 14.0469 12.9368 13.0614 13.988 12.4326C14.6263 12.0524 14.9735 11.7099 15.2223 11.2124C15.4569 10.7384 15.5226 10.4193 15.4991 9.85615C15.4569 8.98326 15.0392 8.26055 14.2931 7.76779C13.8378 7.46744 13.5 7.35481 12.9743 7.33135C12.4581 7.30319 12.0921 7.37828 11.6134 7.60823C11.1863 7.81472 10.656 8.35441 10.4495 8.79555C10.3651 8.97388 10.2712 9.17567 10.2384 9.24137C10.2055 9.30708 10.0976 9.40093 9.99902 9.44786C9.83008 9.52764 9.79723 9.53234 9.62828 9.47133C9.20592 9.32115 9.1496 8.99734 9.44995 8.38257C9.96617 7.30788 10.9611 6.53355 12.1343 6.28482C12.2469 6.26136 12.6177 6.24728 12.9509 6.25667C13.4671 6.27075 13.622 6.28952 13.9364 6.39745Z" fill="#070707" stroke="#070707" stroke-width="0.5"/>
<path d="M12.5615 17.787C11.4164 18.0123 10.9847 19.4389 11.8059 20.2649C12.1157 20.5746 12.3644 20.6685 12.8571 20.6685C13.2373 20.6685 13.303 20.6544 13.5329 20.5277C14.2181 20.1475 14.5044 19.3404 14.1946 18.6458C14.0867 18.3971 13.8098 18.0873 13.5658 17.9466C13.4062 17.8574 12.8947 17.7213 12.7914 17.7401C12.7774 17.7448 12.6741 17.7635 12.5615 17.787ZM13.1528 18.8007C13.2138 18.8382 13.2936 18.9461 13.3358 19.04C13.4813 19.392 13.2326 19.7533 12.8337 19.7533C12.6741 19.7533 12.6084 19.7252 12.477 19.5938C12.0171 19.1339 12.599 18.4534 13.1528 18.8007Z" fill="#070707" stroke="#070707" stroke-width="0.5"/>
</svg>
