<svg width="56" height="60" viewBox="0 0 56 60" fill="none" xmlns="http://www.w3.org/2000/svg">
<path d="M15.5417 3.92774L15.5888 7.86494L16.5307 8.49603C18.311 9.69226 20.5904 10.7472 22.8039 11.3877C23.8683 11.6891 24.9891 11.9623 25.2058 11.9623C25.3188 11.9623 25.3376 11.5949 25.3376 9.59807V7.23386L27.6265 7.27154C29.5668 7.30921 30.019 7.34689 30.6406 7.51643C32.1194 7.92146 33.3628 8.79744 33.9467 9.84296C34.3329 10.54 34.7191 11.7833 34.9075 12.9513C35.143 14.3359 35.143 18.1412 34.9169 19.5447C34.4365 22.5682 33.2215 24.113 30.942 24.6405C30.4711 24.7441 29.5763 24.8006 27.8149 24.8383L25.3376 24.8854V24.0282C25.3376 23.3877 25.3094 23.1711 25.2152 23.1711C25.1493 23.1711 24.4146 23.2747 23.5857 23.4065C21.3345 23.7551 19.2905 23.9246 17.2937 23.9246H15.4946L15.5229 28.0219L15.5417 32.1193H23.1995C31.4036 32.1193 32.0535 32.091 34.2953 31.6483C36.7537 31.1585 38.1948 30.5745 39.6642 29.4631C40.5872 28.766 41.8306 27.4568 42.4617 26.5149C43.1587 25.4788 43.931 23.8587 44.223 22.8414C44.7882 20.8822 44.986 19.0361 44.9672 15.777C44.9577 13.4788 44.8164 12.1695 44.3643 10.3139C43.0174 4.71894 39.5417 1.27154 34.2858 0.339039C32.6375 0.0470467 31.2623 -4.95911e-05 23.4067 -4.95911e-05H15.4946L15.5417 3.92774Z" fill="#070707"/>
<path d="M6.40503 2.14763V4.15391L6.9796 5.02047C10.719 10.6155 16.2575 14.2136 23.0298 15.4475C24.8571 15.7771 26.0251 15.8713 28.2575 15.8619C30.0471 15.8619 31.8838 15.7395 31.978 15.6076C31.9969 15.5982 32.0251 15.4004 32.044 15.1649L32.0911 14.741L30.1978 14.7316C23.0675 14.6845 16.54 12.1602 11.8493 7.639C9.8807 5.74575 8.41131 3.8054 7.02669 1.27165L6.40503 0.141354V2.14763Z" fill="#070707"/>
<path d="M6.40503 7.57295V9.49446L7.56359 10.6719C9.6358 12.7817 11.6327 14.2417 14.0816 15.4474C16.9168 16.832 19.6295 17.5855 23.0298 17.9058C25.3752 18.1318 29.2842 17.8775 31.394 17.3689L32.0251 17.2182V16.8414V16.4552L31.6766 16.5117C30.5652 16.6907 28.1539 16.766 26.628 16.6813C18.4144 16.1821 11.7834 12.7912 7.24333 6.76291L6.40503 5.64202V7.57295Z" fill="#070707"/>
<path d="M6.40503 12.3673V14.0157L7.32811 14.7881C10.7755 17.6609 15.0047 19.507 19.5918 20.1193C23.2841 20.6091 27.7677 20.1946 31.3469 19.0455C32.044 18.8195 32.1193 18.7818 32.1193 18.5557C32.1193 18.1413 32.0063 18.0565 31.5918 18.1695C29.7928 18.6499 26.1664 18.9231 23.7551 18.7629C17.1805 18.3297 11.9341 16.0596 7.4223 11.6986L6.40503 10.7096V12.3673Z" fill="#070707"/>
<path d="M6.4333 17.0016C6.46156 18.1036 6.52749 18.8948 6.58401 18.9702C6.79123 19.2151 8.74099 20.1476 9.8242 20.5243C10.9828 20.9199 12.5369 21.2779 14.0346 21.4945C14.6091 21.5698 15.8619 21.6169 17.5667 21.6169C20.0628 21.6075 20.9953 21.551 22.7661 21.2684L23.5008 21.146L21.8054 21.0895C19.1303 20.9859 17.2277 20.6468 14.6939 19.8179C12.1131 18.9702 9.34382 17.4725 7.27161 15.7959C6.84775 15.4474 6.47098 15.1648 6.4333 15.1648C6.40505 15.1648 6.40505 15.9937 6.4333 17.0016Z" fill="#070707"/>
<path d="M0.21664 42.0564L0 42.2071V45.2872C0 48.6687 0.0659341 49.2621 0.536892 50.1381C0.904239 50.8257 1.66719 51.5509 2.42072 51.9183L3.06122 52.2291H4.94505H6.82889V51.4285V50.6279L5.12402 50.5808C3.42857 50.5337 3.41915 50.5337 2.95761 50.2511C2.53375 49.9874 1.88383 49.1962 1.88383 48.9418C1.88383 48.8853 2.6562 48.4144 3.59812 47.8963C6.46154 46.3139 6.94191 45.8995 7.15856 44.7597C7.36578 43.6483 6.9325 42.7158 5.98116 42.2448L5.41601 41.9622L2.91994 41.934C0.744113 41.9057 0.395604 41.9246 0.21664 42.0564ZM5.17111 43.9968C5.39717 44.4018 5.18995 44.9199 4.64364 45.306C4.07849 45.7205 1.9686 46.9073 1.8179 46.9073C1.7237 46.9073 1.69545 46.54 1.69545 45.306V43.7048L3.36264 43.7236L5.02983 43.7519L5.17111 43.9968Z" fill="#070707"/>
<path d="M10.0408 42.0566C9.90888 42.1979 9.89004 42.7348 9.89004 47.19C9.89004 52.8604 9.82411 52.4648 10.7001 52.4648C11.642 52.4648 11.5855 52.6249 11.5855 49.8274C11.5855 48.4805 11.6232 47.3784 11.6608 47.3784C11.8021 47.3784 13.4787 48.3109 14.2323 48.8101C14.6185 49.0645 14.9952 49.3659 15.0706 49.4789C15.1648 49.6202 15.2119 50.0817 15.2401 50.9577C15.2778 52.4554 15.2872 52.4648 16.2009 52.4648C17.1334 52.4648 17.1334 52.4648 17.1616 50.9106C17.1993 48.5181 17.124 48.4334 13.4787 46.3894L11.6326 45.3533L11.5855 43.6579L11.5384 41.9624L10.8696 41.9342C10.3422 41.9153 10.1632 41.9436 10.0408 42.0566Z" fill="#070707"/>
<path d="M21.7111 42.0471C20.9293 42.3015 20.3736 42.7253 19.912 43.4223C19.507 44.0346 19.2715 45.3627 19.4976 45.7865C19.5824 45.9372 19.7048 45.9655 20.2323 45.9655C20.9481 45.9655 21.0988 45.8807 21.0988 45.4569C21.0988 44.628 21.5981 43.8745 22.2574 43.6955C22.474 43.639 23.0015 43.6107 23.4254 43.6296C24.339 43.6766 24.8383 43.9498 25.1491 44.5526C25.3186 44.8917 25.3375 45.0989 25.3375 47.1335C25.3375 49.4788 25.3092 49.6955 24.8853 50.1476C24.4992 50.562 24.1224 50.6751 23.1711 50.6751C21.7959 50.6751 21.259 50.2701 21.1365 49.1115C21.0988 48.7818 21.0141 48.5087 20.9293 48.4333C20.8445 48.3768 20.5431 48.3203 20.2511 48.3203C19.4788 48.3203 19.3563 48.4804 19.4317 49.3752C19.5447 50.6751 20.3076 51.7394 21.4662 52.201C21.9183 52.3799 22.1632 52.4082 23.1711 52.4082C24.7064 52.4082 25.2244 52.2198 26.0533 51.3909C26.9858 50.4584 27.0612 50.157 27.1083 47.5102C27.1271 46.201 27.0988 45.1178 27.0423 44.7881C26.8257 43.639 26.1852 42.7724 25.1679 42.2732C24.5651 41.9718 24.4897 41.9624 23.3123 41.9435C22.5023 41.9247 21.9654 41.9624 21.7111 42.0471Z" fill="#070707"/>
<path d="M29.6421 42.0376C29.4914 42.1412 29.482 42.4427 29.5008 45.9654L29.529 49.7802L29.7739 50.3076C30.113 51.0235 30.584 51.5227 31.2904 51.9089C31.865 52.2197 31.9121 52.2292 33.1554 52.2574C34.2763 52.2857 34.4929 52.2668 34.9639 52.0879C35.6703 51.8241 36.3768 51.1836 36.7064 50.5055C36.9513 50.0062 36.9702 49.8649 37.0079 48.6216C37.0267 47.6514 37.0079 47.2464 36.9231 47.1428C36.7724 46.9639 35.5761 46.945 35.4349 47.1146C35.3878 47.1805 35.3218 47.7739 35.303 48.4332C35.2653 49.7613 35.19 49.9403 34.5683 50.3642C34.2951 50.5525 34.135 50.5808 33.3532 50.5808C32.3077 50.5808 31.9686 50.4489 31.5165 49.8932L31.2245 49.5259L31.1774 45.8147C31.1397 42.6499 31.1115 42.0847 30.989 42.0094C30.7818 41.8775 29.8305 41.8963 29.6421 42.0376Z" fill="#070707"/>
<path d="M40.6812 42.5086C40.5117 42.8383 40.3987 43.1774 40.4269 43.2527C40.4646 43.3281 40.945 43.6389 41.5101 43.9403C43.0172 44.7315 43.9685 45.3061 44.4018 45.6923L44.788 46.0408V47.7268C44.788 49.4128 44.788 49.4222 44.5243 49.8084C44.1381 50.4018 43.6954 50.5808 42.6593 50.5808C41.642 50.5808 41.2464 50.4301 40.9261 49.9309C40.7378 49.6389 40.7001 49.4222 40.653 48.3861C40.6247 47.7174 40.5776 47.1334 40.5494 47.0863C40.5117 47.0392 40.1726 47.0015 39.7864 47.0015C38.901 47.0015 38.9104 46.9827 38.9858 48.7441C39.0329 49.8555 39.08 50.1287 39.259 50.5055C39.5509 51.0894 40.0973 51.6452 40.7095 51.9654C41.171 52.2009 41.3123 52.2292 42.4803 52.2574C43.6106 52.2857 43.8178 52.2668 44.2982 52.0879C45.0517 51.8053 45.8524 51.0423 46.2103 50.2794L46.4834 49.686V47.6609C46.4834 44.6656 46.6059 44.8351 42.9701 42.8194C42.0753 42.3202 41.2652 41.9152 41.171 41.9152C41.0486 41.9152 40.8979 42.1036 40.6812 42.5086Z" fill="#070707"/>
<path d="M49.2149 42.3014C48.8664 42.8383 48.7628 43.1114 48.8193 43.2621C48.8476 43.3375 49.328 43.6389 49.8931 43.9403C51.4661 44.7692 52.3704 45.3249 52.766 45.6923C53.0768 45.9843 53.1239 46.0879 53.1239 46.4552C53.1239 46.7472 53.0579 46.9638 52.9261 47.1334C52.7471 47.3594 52.6812 47.3783 52.0124 47.3783C50.8727 47.3783 50.8633 47.3877 50.8633 48.0941C50.8633 48.8288 50.9386 48.8854 51.9747 48.8854C52.9543 48.8854 53.2181 49.0643 53.2181 49.7237C53.2181 49.9686 53.1521 50.2511 53.0674 50.3736C52.9261 50.5808 52.8884 50.5808 50.7785 50.5808C49.2432 50.5808 48.6121 50.6091 48.5273 50.6938C48.4614 50.7598 48.4143 51.0706 48.4143 51.4285C48.4143 51.7864 48.4614 52.0973 48.5273 52.1632C48.6121 52.248 49.2997 52.2762 51.0423 52.2762C53.397 52.2762 53.463 52.2668 53.9433 52.0502C55.149 51.485 55.554 49.9309 54.8193 48.6405C54.5462 48.1412 54.5368 48.1036 54.678 47.9434C54.9229 47.6703 55.0925 47.0957 55.1019 46.5211C55.1019 45.4756 54.6875 44.788 53.6231 44.1098C52.5305 43.4222 49.7801 41.9152 49.6105 41.9152C49.5258 41.9152 49.3468 42.0847 49.2149 42.3014Z" fill="#070707"/>
<path d="M20.2325 56.1099C20.0158 56.1476 19.9687 56.1947 19.9687 56.4207C19.9687 56.6751 19.9405 56.6939 19.526 56.7222C19.1398 56.7504 19.0739 56.7787 19.0456 56.9576C19.0174 57.1554 19.0456 57.1743 19.4789 57.1743C19.9028 57.1743 19.9687 57.2025 20.1477 57.4757C20.2513 57.6452 20.4679 57.9561 20.6281 58.1539C21.0708 58.7284 21.0048 59.5291 20.4962 59.6609C20.1665 59.7457 19.8086 59.5573 19.6767 59.2182C19.5731 58.9828 19.5825 58.8603 19.7144 58.5024C19.7992 58.2669 19.8274 58.0314 19.7898 57.9937C19.592 57.7959 18.9326 58.4459 18.9326 58.8415C18.9326 59.2371 19.2058 59.6327 19.6202 59.8211C20.1194 60.0471 20.4774 60.0471 20.9766 59.8211C21.4287 59.6138 21.57 59.3972 21.57 58.898C21.57 58.4835 21.391 58.1821 20.8918 57.7488C20.3926 57.3156 20.4208 57.1743 21.0048 57.1743C21.4475 57.1743 21.4758 57.1554 21.4758 56.9388C21.4758 56.7127 21.4475 56.7033 20.9672 56.7033H20.4491L20.5056 56.3736C20.5339 56.1947 20.5433 56.0534 20.5245 56.0534C20.5056 56.0628 20.3737 56.0911 20.2325 56.1099Z" fill="#070707"/>
<path d="M22.7944 56.2983C22.5306 56.4301 22.4553 56.5338 22.4364 56.7692C22.4082 57.0612 22.427 57.0801 22.7002 57.0801C22.8885 57.0801 23.0016 57.0235 23.0392 56.9105C23.1523 56.562 23.2465 56.4678 23.5102 56.4678C23.8399 56.4678 23.9906 56.7975 23.8399 57.1931C23.7645 57.4003 23.6798 57.4568 23.4443 57.4568C22.7096 57.4568 22.135 58.022 22.135 58.7661C22.135 59.0958 22.1915 59.2276 22.4458 59.4819C22.7378 59.7739 23.2747 60 23.6798 60C24.0377 60 24.6122 59.7739 24.876 59.5196C25.1115 59.2936 25.1491 59.1994 25.1491 58.7284C25.1491 58.248 25.1209 58.1633 24.8383 57.8901C24.6688 57.73 24.4521 57.551 24.3485 57.4945C24.1695 57.3909 24.1695 57.3815 24.3297 57.2025C24.5463 56.9576 24.5369 56.5808 24.3014 56.3736C24.0188 56.1193 23.2088 56.0816 22.7944 56.2983ZM24.2543 57.9843C24.584 58.3328 24.584 59.0298 24.2637 59.4066C24.0848 59.6138 23.9623 59.6703 23.6421 59.6703C23.3218 59.6703 23.1994 59.6138 23.011 59.3878C22.8038 59.1523 22.7755 59.0487 22.8132 58.6154C22.8697 57.956 23.0675 57.7394 23.6138 57.7394C23.9435 57.7394 24.0754 57.7959 24.2543 57.9843Z" fill="#070707"/>
<path d="M25.6201 56.5338C25.6201 56.854 25.6484 56.8917 25.8462 56.8917C25.9875 56.8917 26.1476 56.7975 26.2606 56.6374C26.5338 56.2606 26.6562 56.4302 26.6562 57.1837V57.843L26.92 57.8148C27.1649 57.7865 27.1743 57.7677 27.2025 57.146C27.2308 56.4679 27.3627 56.2795 27.6547 56.5244C27.7771 56.628 27.7959 56.854 27.7677 58.0032C27.7394 59.3124 27.73 59.3595 27.5039 59.5479C27.2214 59.774 26.7787 59.7175 26.5244 59.4066C26.3831 59.2371 26.3642 59.1052 26.4113 58.6531C26.4773 58.0314 26.3454 57.9467 25.9498 58.3517C25.5542 58.7379 25.6766 59.4443 26.1758 59.7457C26.8446 60.1413 27.8525 60.0189 28.1633 59.5008C28.3234 59.2371 28.3517 59.0204 28.3517 57.8619C28.3517 56.3737 28.3234 56.2889 27.7394 56.1759C27.5039 56.1382 27.3344 56.1664 27.1649 56.2795C26.9671 56.4019 26.9011 56.4113 26.7787 56.3171C26.7033 56.2512 26.4113 56.1947 26.1288 56.1853L25.6201 56.1759V56.5338Z" fill="#070707"/>
<path d="M29.6139 56.2323C29.1995 56.3641 28.9923 56.6373 28.9357 57.1365C28.8698 57.7393 29.0959 58.1444 29.6045 58.3516C30.1226 58.5588 30.716 58.474 31.1021 58.1255C31.3565 57.8995 31.4036 57.7864 31.4412 57.2778C31.4695 56.8257 31.526 56.6656 31.6767 56.5619C32.1571 56.2229 32.4962 56.496 32.4962 57.2119C32.4962 57.7864 32.402 57.8995 31.931 57.9466C31.705 57.9654 31.5919 58.0313 31.5731 58.1349C31.5448 58.2668 31.6014 58.3045 31.8274 58.3045C32.1948 58.3045 32.402 58.5211 32.402 58.9167C32.402 59.7833 30.8007 59.9811 30.4899 59.1522C30.3957 58.9167 30.3298 58.8696 30.066 58.8696C29.7646 58.8696 29.7458 58.8885 29.8117 59.124C29.8965 59.4536 30.0095 59.5949 30.3675 59.7927C30.7725 60.0094 32.0535 59.9999 32.4679 59.7833C33.1084 59.4442 33.2497 58.8508 32.7976 58.4081L32.5339 58.1444L32.8541 57.8712C33.1084 57.6546 33.1744 57.5227 33.1838 57.2495C33.2026 56.5714 32.7976 56.1852 32.0723 56.1852C31.8086 56.1852 31.6014 56.2511 31.4789 56.3547C31.2999 56.5148 31.2717 56.5148 31.055 56.3736C30.7725 56.1946 30.0001 56.1098 29.6139 56.2323ZM30.5558 56.5431C30.7725 56.7032 30.8667 57.4568 30.7065 57.8241C30.5182 58.2762 29.8306 58.3045 29.661 57.8618C29.5103 57.4473 29.5574 56.8163 29.7646 56.609C29.9813 56.3924 30.3109 56.3641 30.5558 56.5431Z" fill="#070707"/>
<path d="M34.4082 56.2794C34.248 56.3454 34.0408 56.5149 33.9466 56.6562C33.7206 56.9953 33.6546 58.3328 33.8242 58.9356C33.9655 59.4443 34.4082 60 34.6813 60C34.7849 60 34.8509 59.9717 34.832 59.9246C34.5118 59.3218 34.4364 59.011 34.3987 58.2575C34.3328 56.8352 34.6436 56.2135 35.2747 56.4961C35.6327 56.6562 35.7174 57.0141 35.6797 58.1633C35.6609 59.011 35.6138 59.2747 35.4443 59.595C35.2465 59.9717 35.2465 60 35.3972 60C35.6232 60 36.0283 59.5667 36.2072 59.1334C36.405 58.6719 36.4144 57.2025 36.2166 56.741C35.9906 56.1947 35.1146 55.9686 34.4082 56.2794Z" fill="#070707"/>
<path d="M6.49927 58.0219C6.49927 58.2103 6.5652 58.2103 11.8211 58.2103C17.077 58.2103 17.1429 58.2103 17.1429 58.0219C17.1429 57.8336 17.077 57.8336 11.8211 57.8336C6.5652 57.8336 6.49927 57.8336 6.49927 58.0219Z" fill="#070707"/>
<path d="M38.0532 58.0219C38.0532 58.2103 38.1192 58.2103 43.375 58.2103C48.6309 58.2103 48.6969 58.2103 48.6969 58.0219C48.6969 57.8336 48.6309 57.8336 43.375 57.8336C38.1192 57.8336 38.0532 57.8336 38.0532 58.0219Z" fill="#070707"/>
</svg>
