<svg width="37" height="40" viewBox="0 0 37 40" fill="none" xmlns="http://www.w3.org/2000/svg">
<path d="M10.36 2.61874L10.3914 5.24354L11.0194 5.66426C12.2062 6.46175 13.7258 7.16505 15.2015 7.59205C15.911 7.79299 16.6583 7.97509 16.8027 7.97509C16.8781 7.97509 16.8906 7.7302 16.8906 6.39896V4.82282L18.4165 4.84793C19.7101 4.87305 20.0115 4.89817 20.4259 5.0112C21.4118 5.28122 22.2407 5.8652 22.63 6.56222C22.8875 7.0269 23.1449 7.85578 23.2705 8.63443C23.4275 9.55751 23.4275 12.0944 23.2768 13.03C22.9566 15.0457 22.1465 16.0756 20.6269 16.4272C20.3129 16.4963 19.7164 16.534 18.5421 16.5591L16.8906 16.5905V16.0191C16.8906 15.592 16.8718 15.4476 16.809 15.4476C16.765 15.4476 16.2752 15.5167 15.7226 15.6046C14.2219 15.8369 12.8592 15.95 11.528 15.95H10.3286L10.3475 18.6815L10.36 21.4131H15.4652C20.9346 21.4131 21.3679 21.3942 22.8624 21.0991C24.5013 20.7726 25.4621 20.3833 26.4416 19.6423C27.057 19.1776 27.8859 18.3048 28.3066 17.6768C28.7713 16.9861 29.2862 15.906 29.4809 15.2278C29.8577 13.9217 29.9895 12.691 29.977 10.5183C29.9707 8.98608 29.8765 8.11324 29.5751 6.87619C28.6771 3.14621 26.36 0.847935 22.8561 0.226271C21.7572 0.0316086 20.8404 0.000211716 15.6033 0.000211716H10.3286L10.36 2.61874Z" fill="#070707"/>
<path d="M4.26904 1.43192V2.76944L4.65209 3.34715C7.14502 7.07713 10.8373 9.47587 15.3522 10.2985C16.5705 10.5183 17.3491 10.5811 18.8373 10.5748C20.0304 10.5748 21.2549 10.4931 21.3177 10.4052C21.3303 10.399 21.3491 10.2671 21.3617 10.1101L21.3931 9.82752L20.1309 9.82124C15.3774 9.78985 11.0257 8.10696 7.89856 5.09283C6.58615 3.83066 5.60656 2.5371 4.68349 0.84793L4.26904 0.0943975V1.43192Z" fill="#070707"/>
<path d="M4.26904 5.04929V6.33029L5.04141 7.11522C6.42289 8.52181 7.75413 9.49513 9.38678 10.2989C11.2769 11.222 13.0854 11.7243 15.3522 11.9378C16.9158 12.0885 19.5218 11.919 20.9284 11.5799L21.3491 11.4794V11.2283V10.9708L21.1168 11.0085C20.3758 11.1278 18.7683 11.178 17.751 11.1215C12.2753 10.7887 7.8546 8.52809 4.82791 4.50925L4.26904 3.762V5.04929Z" fill="#070707"/>
<path d="M4.26904 8.24489V9.34379L4.88443 9.8587C7.1827 11.7739 10.0022 13.0047 13.0603 13.4129C15.5218 13.7394 18.5108 13.4631 20.897 12.697C21.3617 12.5463 21.4119 12.5212 21.4119 12.3705C21.4119 12.0942 21.3365 12.0377 21.0603 12.113C19.8609 12.4333 17.4433 12.6154 15.8358 12.5086C11.4527 12.2198 7.95507 10.7064 4.94722 7.79905L4.26904 7.13971V8.24489Z" fill="#070707"/>
<path d="M4.28805 11.3342C4.30689 12.0689 4.35085 12.5964 4.38853 12.6466C4.52667 12.8099 5.82652 13.4315 6.54865 13.6827C7.32102 13.9465 8.35713 14.1851 9.35556 14.3295C9.7386 14.3797 10.5738 14.4111 11.7103 14.4111C13.3744 14.4049 13.9961 14.3672 15.1766 14.1788L15.6664 14.0972L14.5361 14.0595C12.7527 13.9904 11.4843 13.7644 9.79512 13.2118C8.07455 12.6466 6.2284 11.6482 4.84692 10.5304C4.56435 10.2981 4.31317 10.1097 4.28805 10.1097C4.26922 10.1097 4.26922 10.6623 4.28805 11.3342Z" fill="#070707"/>
<path d="M0.14345 28.0375L-0.000976562 28.138V30.1914C-0.000976562 32.4457 0.0429795 32.8413 0.356951 33.4253C0.601849 33.8837 1.11048 34.3672 1.61284 34.6121L2.03984 34.8193H3.29573H4.55161V34.2856V33.7518L3.41504 33.7204C2.28474 33.689 2.27846 33.689 1.97077 33.5007C1.68819 33.3248 1.25491 32.7974 1.25491 32.6278C1.25491 32.5901 1.76982 32.2762 2.39777 31.9308C4.30672 30.8759 4.62697 30.5996 4.77139 29.8397C4.90954 29.0988 4.62069 28.4771 3.98646 28.1631L3.6097 27.9748L1.94565 27.9559C0.495099 27.9371 0.26276 27.9496 0.14345 28.0375ZM3.44643 29.3311C3.59714 29.6011 3.45899 29.9465 3.09478 30.204C2.71802 30.4802 1.31143 31.2715 1.21095 31.2715C1.14816 31.2715 1.12932 31.0266 1.12932 30.204V29.1364L2.24078 29.149L3.35224 29.1678L3.44643 29.3311Z" fill="#070707"/>
<path d="M6.69253 28.0377C6.60462 28.1319 6.59206 28.4899 6.59206 31.46C6.59206 35.2403 6.54811 34.9765 7.13209 34.9765C7.76004 34.9765 7.72236 35.0833 7.72236 33.2183C7.72236 32.3203 7.74748 31.5856 7.77259 31.5856C7.86679 31.5856 8.98453 32.2073 9.48688 32.5401C9.74434 32.7096 9.99551 32.9106 10.0457 32.9859C10.1085 33.0801 10.1399 33.3878 10.1588 33.9718C10.1839 34.9702 10.1902 34.9765 10.7993 34.9765C11.4209 34.9765 11.4209 34.9765 11.4398 33.9404C11.4649 32.3454 11.4147 32.2889 8.98453 30.9263L7.75376 30.2355L7.72236 29.1052L7.69096 27.9749L7.24512 27.9561C6.89347 27.9435 6.77416 27.9624 6.69253 28.0377Z" fill="#070707"/>
<path d="M14.4732 28.0311C13.9521 28.2006 13.5816 28.4832 13.2739 28.9479C13.0039 29.3561 12.8469 30.2415 12.9976 30.524C13.0541 30.6245 13.1357 30.6433 13.4874 30.6433C13.9646 30.6433 14.0651 30.5868 14.0651 30.3043C14.0651 29.7517 14.3979 29.2493 14.8375 29.13C14.9819 29.0923 15.3335 29.0735 15.6161 29.086C16.2252 29.1174 16.558 29.2995 16.7652 29.7014C16.8783 29.9275 16.8908 30.0656 16.8908 31.422C16.8908 32.9856 16.872 33.13 16.5894 33.4314C16.332 33.7077 16.0808 33.7831 15.4466 33.7831C14.5298 33.7831 14.1718 33.513 14.0902 32.7407C14.0651 32.5209 14.0086 32.3388 13.9521 32.2886C13.8955 32.2509 13.6946 32.2132 13.4999 32.2132C12.985 32.2132 12.9034 32.32 12.9536 32.9165C13.029 33.7831 13.5376 34.4926 14.31 34.8003C14.6114 34.9196 14.7747 34.9385 15.4466 34.9385C16.4701 34.9385 16.8155 34.8129 17.3681 34.2603C17.9897 33.6386 18.04 33.4377 18.0714 31.6732C18.0839 30.8003 18.0651 30.0782 18.0274 29.8584C17.883 29.0923 17.456 28.5146 16.7778 28.1818C16.3759 27.9809 16.3257 27.9746 15.5408 27.962C15.0007 27.9495 14.6428 27.9746 14.4732 28.0311Z" fill="#070707"/>
<path d="M19.7606 28.0254C19.6601 28.0945 19.6538 28.2954 19.6664 30.6439L19.6852 33.1871L19.8485 33.5388C20.0745 34.016 20.3885 34.3488 20.8595 34.6063C21.2425 34.8135 21.2739 34.8198 22.1028 34.8386C22.8501 34.8574 22.9945 34.8449 23.3085 34.7256C23.7794 34.5497 24.2504 34.1227 24.4701 33.6706C24.6334 33.3378 24.646 33.2436 24.6711 32.4147C24.6836 31.768 24.6711 31.4979 24.6146 31.4289C24.5141 31.3096 23.7166 31.297 23.6224 31.41C23.591 31.454 23.5471 31.8496 23.5345 32.2892C23.5094 33.1746 23.4592 33.2939 23.0447 33.5764C22.8626 33.702 22.7559 33.7209 22.2347 33.7209C21.5377 33.7209 21.3116 33.633 21.0102 33.2625L20.8155 33.0176L20.7841 30.5435C20.759 28.4336 20.7402 28.0568 20.6585 28.0066C20.5204 27.9187 19.8862 27.9312 19.7606 28.0254Z" fill="#070707"/>
<path d="M27.12 28.3394C27.007 28.5592 26.9316 28.7852 26.9505 28.8355C26.9756 28.8857 27.2958 29.0929 27.6726 29.2939C28.6773 29.8213 29.3115 30.2044 29.6004 30.4618L29.8578 30.6942V31.8182C29.8578 32.9422 29.8578 32.9485 29.682 33.2059C29.4246 33.6016 29.1294 33.7209 28.4387 33.7209C27.7605 33.7209 27.4968 33.6204 27.2833 33.2876C27.1577 33.0929 27.1326 32.9485 27.1012 32.2578C27.0823 31.8119 27.0509 31.4226 27.0321 31.3912C27.007 31.3598 26.7809 31.3347 26.5235 31.3347C25.9332 31.3347 25.9395 31.3221 25.9897 32.4964C26.0211 33.2373 26.0525 33.4194 26.1718 33.6706C26.3665 34.06 26.7307 34.4304 27.1389 34.6439C27.4465 34.8009 27.5407 34.8198 28.3194 34.8386C29.0729 34.8574 29.2111 34.8449 29.5313 34.7256C30.0337 34.5372 30.5674 34.0286 30.806 33.5199L30.9881 33.1243V31.7742C30.9881 29.7774 31.0698 29.8904 28.6459 28.5466C28.0494 28.2138 27.5093 27.9438 27.4465 27.9438C27.3649 27.9438 27.2644 28.0694 27.12 28.3394Z" fill="#070707"/>
<path d="M32.8091 28.2007C32.5768 28.5586 32.5077 28.7407 32.5454 28.8412C32.5642 28.8914 32.8845 29.0923 33.2613 29.2933C34.3099 29.8459 34.9128 30.2164 35.1765 30.4613C35.3837 30.6559 35.4151 30.725 35.4151 30.9699C35.4151 31.1646 35.3712 31.309 35.2832 31.422C35.1639 31.5727 35.12 31.5853 34.6741 31.5853C33.9143 31.5853 33.908 31.5916 33.908 32.0625C33.908 32.5523 33.9583 32.59 34.649 32.59C35.3021 32.59 35.4779 32.7093 35.4779 33.1489C35.4779 33.3121 35.4339 33.5005 35.3774 33.5821C35.2832 33.7203 35.2581 33.7203 33.8515 33.7203C32.828 33.7203 32.4073 33.7391 32.3507 33.7956C32.3068 33.8396 32.2754 34.0468 32.2754 34.2854C32.2754 34.5241 32.3068 34.7313 32.3507 34.7752C32.4073 34.8317 32.8657 34.8506 34.0274 34.8506C35.5972 34.8506 35.6412 34.8443 35.9614 34.6999C36.7652 34.3231 37.0352 33.287 36.5454 32.4267C36.3633 32.0939 36.357 32.0688 36.4512 31.962C36.6145 31.7799 36.7275 31.3969 36.7338 31.0139C36.7338 30.3168 36.4575 29.8584 35.7479 29.4063C35.0195 28.9479 33.1859 27.9432 33.0729 27.9432C33.0164 27.9432 32.8971 28.0562 32.8091 28.2007Z" fill="#070707"/>
<path d="M13.4872 37.406C13.3427 37.4312 13.3113 37.4626 13.3113 37.6133C13.3113 37.7828 13.2925 37.7954 13.0162 37.8142C12.7588 37.833 12.7148 37.8519 12.696 37.9712C12.6771 38.1031 12.696 38.1156 12.9848 38.1156C13.2674 38.1156 13.3113 38.1345 13.4307 38.3166C13.4997 38.4296 13.6442 38.6368 13.7509 38.7687C14.046 39.1517 14.0021 39.6855 13.663 39.7734C13.4432 39.8299 13.2046 39.7043 13.1167 39.4783C13.0476 39.3213 13.0539 39.2396 13.1418 39.001C13.1983 38.844 13.2172 38.687 13.192 38.6619C13.0602 38.5301 12.6206 38.9633 12.6206 39.2271C12.6206 39.4908 12.8027 39.7545 13.079 39.8801C13.4118 40.0308 13.6504 40.0308 13.9832 39.8801C14.2847 39.742 14.3788 39.5976 14.3788 39.2647C14.3788 38.9885 14.2595 38.7875 13.9267 38.4987C13.5939 38.2098 13.6128 38.1156 14.0021 38.1156C14.2972 38.1156 14.3161 38.1031 14.3161 37.9586C14.3161 37.8079 14.2972 37.8016 13.977 37.8016H13.6316L13.6693 37.5819C13.6881 37.4626 13.6944 37.3684 13.6818 37.3684C13.6693 37.3746 13.5814 37.3935 13.4872 37.406Z" fill="#070707"/>
<path d="M15.1954 37.5322C15.0196 37.6201 14.9694 37.6892 14.9568 37.8462C14.938 38.0408 14.9505 38.0534 15.1326 38.0534C15.2582 38.0534 15.3336 38.0157 15.3587 37.9403C15.434 37.708 15.4968 37.6452 15.6727 37.6452C15.8924 37.6452 15.9929 37.865 15.8924 38.1287C15.8422 38.2669 15.7857 38.3046 15.6287 38.3046C15.1389 38.3046 14.7559 38.6813 14.7559 39.1774C14.7559 39.3972 14.7935 39.4851 14.9631 39.6546C15.1577 39.8493 15.5157 40 15.7857 40C16.0243 40 16.4074 39.8493 16.5832 39.6797C16.7402 39.529 16.7653 39.4662 16.7653 39.1523C16.7653 38.832 16.7464 38.7755 16.5581 38.5934C16.445 38.4867 16.3006 38.3673 16.2315 38.3297C16.1122 38.2606 16.1122 38.2543 16.219 38.135C16.3634 37.9717 16.3571 37.7206 16.2001 37.5824C16.0117 37.4129 15.4717 37.3878 15.1954 37.5322ZM16.1687 38.6562C16.3885 38.8885 16.3885 39.3532 16.175 39.6044C16.0557 39.7425 15.9741 39.7802 15.7606 39.7802C15.5471 39.7802 15.4654 39.7425 15.3398 39.5918C15.2017 39.4349 15.1829 39.3658 15.208 39.0769C15.2457 38.6374 15.3775 38.4929 15.7417 38.4929C15.9615 38.4929 16.0494 38.5306 16.1687 38.6562Z" fill="#070707"/>
<path d="M17.0791 37.6891C17.0791 37.9026 17.0979 37.9277 17.2298 37.9277C17.324 37.9277 17.4307 37.8649 17.5061 37.7582C17.6882 37.507 17.7698 37.62 17.7698 38.1224V38.562L17.9457 38.5431C18.1089 38.5243 18.1152 38.5117 18.134 38.0973C18.1529 37.6452 18.2408 37.5196 18.4355 37.6828C18.5171 37.7519 18.5297 37.9026 18.5108 38.6687C18.492 39.5415 18.4857 39.5729 18.335 39.6985C18.1466 39.8492 17.8515 39.8116 17.6819 39.6043C17.5877 39.4913 17.5752 39.4034 17.6066 39.102C17.6505 38.6875 17.5626 38.631 17.2989 38.901C17.0351 39.1585 17.1168 39.6295 17.4496 39.8304C17.8954 40.0941 18.5673 40.0125 18.7745 39.6671C18.8813 39.4913 18.9001 39.3469 18.9001 38.5745C18.9001 37.5824 18.8813 37.5258 18.492 37.4505C18.335 37.4254 18.222 37.4442 18.1089 37.5196C17.9771 37.6012 17.9331 37.6075 17.8515 37.5447C17.8012 37.5007 17.6066 37.463 17.4182 37.4568L17.0791 37.4505V37.6891Z" fill="#070707"/>
<path d="M19.7413 37.4879C19.465 37.5759 19.3269 37.758 19.2892 38.0908C19.2452 38.4926 19.3959 38.7627 19.735 38.9008C20.0804 39.039 20.476 38.9824 20.7335 38.7501C20.903 38.5994 20.9344 38.524 20.9595 38.185C20.9784 37.8835 21.016 37.7768 21.1165 37.7077C21.4368 37.4817 21.6628 37.6638 21.6628 38.141C21.6628 38.524 21.6 38.5994 21.2861 38.6308C21.1353 38.6434 21.06 38.6873 21.0474 38.7564C21.0286 38.8443 21.0663 38.8694 21.217 38.8694C21.4619 38.8694 21.6 39.0138 21.6 39.2776C21.6 39.8553 20.5325 39.9872 20.3253 39.4346C20.2625 39.2776 20.2185 39.2462 20.0427 39.2462C19.8418 39.2462 19.8292 39.2587 19.8732 39.4157C19.9297 39.6355 20.005 39.7297 20.2437 39.8616C20.5137 40.006 21.3677 39.9997 21.644 39.8553C22.071 39.6292 22.1652 39.2336 21.8638 38.9385L21.6879 38.7627L21.9014 38.5806C22.071 38.4361 22.1149 38.3482 22.1212 38.1661C22.1338 37.714 21.8638 37.4565 21.3802 37.4565C21.2044 37.4565 21.0663 37.5005 20.9846 37.5696C20.8653 37.6763 20.8465 37.6763 20.7021 37.5821C20.5137 37.4628 19.9988 37.4063 19.7413 37.4879ZM20.3693 37.6952C20.5137 37.8019 20.5765 38.3043 20.4697 38.5492C20.3441 38.8506 19.8857 38.8694 19.7727 38.5743C19.6722 38.298 19.7036 37.8773 19.8418 37.7391C19.9862 37.5947 20.206 37.5759 20.3693 37.6952Z" fill="#070707"/>
<path d="M22.9378 37.5196C22.831 37.5636 22.6929 37.6766 22.6301 37.7708C22.4794 37.9969 22.4354 38.8885 22.5485 39.2904C22.6427 39.6295 22.9378 40 23.1199 40C23.189 40 23.2329 39.9812 23.2204 39.9498C23.0069 39.5479 22.9566 39.3407 22.9315 38.8383C22.8876 37.8901 23.0948 37.4757 23.5155 37.6641C23.7541 37.7708 23.8106 38.0094 23.7855 38.7755C23.773 39.3407 23.7416 39.5165 23.6285 39.73C23.4967 39.9812 23.4967 40 23.5971 40C23.7478 40 24.0179 39.7111 24.1372 39.4223C24.269 39.1146 24.2753 38.135 24.1434 37.8273C23.9927 37.4631 23.4088 37.3124 22.9378 37.5196Z" fill="#070707"/>
<path d="M4.33154 38.6811C4.33154 38.8066 4.3755 38.8066 7.87942 38.8066C11.3833 38.8066 11.4273 38.8066 11.4273 38.6811C11.4273 38.5555 11.3833 38.5555 7.87942 38.5555C4.3755 38.5555 4.33154 38.5555 4.33154 38.6811Z" fill="#070707"/>
<path d="M25.3677 38.6811C25.3677 38.8066 25.4116 38.8066 28.9156 38.8066C32.4195 38.8066 32.4634 38.8066 32.4634 38.6811C32.4634 38.5555 32.4195 38.5555 28.9156 38.5555C25.4116 38.5555 25.3677 38.5555 25.3677 38.6811Z" fill="#070707"/>
</svg>
