<svg width="44" height="42" viewBox="0 0 44 42" fill="none" xmlns="http://www.w3.org/2000/svg">
<path d="M20.101 1.05334C15.757 1.49948 11.6792 3.31533 8.53277 6.19563C1.23025 12.8877 -0.131635 23.7592 5.30025 32.0401C6.7091 34.1925 8.83019 36.3136 10.9826 37.7225C13.5498 39.4053 16.3519 40.4462 19.5531 40.9002C20.4767 41.0333 23.5605 41.0333 24.484 40.9002C29.1019 40.2427 33.0154 38.3251 36.1775 35.1631C39.3395 32.001 41.2571 28.0875 41.9146 23.4697C42.0476 22.5461 42.0476 19.4623 41.9146 18.5387C41.2571 13.9208 39.3395 10.0073 36.1775 6.84527C33.0858 3.76146 29.2585 1.84386 24.8362 1.16292C23.8501 1.01421 21.1028 0.943768 20.101 1.05334ZM23.4665 4.02758C30.9882 4.66938 37.2263 10.2422 38.7212 17.6386C40.2553 25.2072 36.4436 32.9167 29.4933 36.3136C23.0126 39.4757 15.3031 38.2312 10.1295 33.1907C3.38265 26.6161 3.2496 15.8697 9.83204 9.11507C13.4011 5.45208 18.4025 3.58927 23.4665 4.02758Z" fill="#E60000" stroke="#E60000" stroke-width="2"/>
<path d="M15.0926 13.2164C14.5369 13.4121 14.1143 14.0461 14.1143 14.6644C14.1221 15.1888 14.4039 15.5332 17.1511 18.2805L19.8592 21.0042L17.1511 23.7202C14.3334 26.5535 14.1143 26.8118 14.1143 27.4223C14.1143 27.7589 14.3412 28.2598 14.5917 28.4946C14.8422 28.7216 15.304 28.9094 15.617 28.9094C16.2119 28.9016 16.4858 28.6746 19.3035 25.8726L22.0195 23.1645L24.7432 25.8726C27.5687 28.6903 27.827 28.9094 28.4375 28.9094C29.048 28.9094 29.682 28.4242 29.8464 27.8293C30.089 26.9605 30.0107 26.8588 26.8878 23.728L24.1797 21.0042L26.9191 18.2492C29.2202 15.9402 29.6898 15.4236 29.8072 15.1184C30.2534 13.9287 29.095 12.7703 27.9053 13.2164C27.6 13.3338 27.0835 13.8035 24.7745 16.1046L22.0195 18.844L19.2957 16.1359C16.5093 13.3495 16.204 13.099 15.6405 13.1069C15.5153 13.1069 15.2648 13.1538 15.0926 13.2164Z" fill="#E60000" stroke="#E60000" stroke-width="2"/>
</svg>
