<svg width="32" height="32" viewBox="0 0 32 32" fill="none" xmlns="http://www.w3.org/2000/svg">
<g clip-path="url(#clip0_225_2410)">
<path d="M20.4375 3.28123C19.1063 3.58123 17.975 4.55623 17.4563 5.83748L17.2563 6.34373L8.9125 6.37498L0.56875 6.40623L0.36875 6.59373C0.1375 6.81248 0 7.10623 0 7.38123C0 7.65623 0.23125 8.04373 0.5 8.20623L0.71875 8.34373L9.00625 8.36248L17.2938 8.37498L17.375 8.64998C17.5938 9.43123 18.425 10.475 19.2 10.925C20.4188 11.6437 21.9188 11.6875 23.2063 11.05C24.0875 10.6062 24.9312 9.64998 25.2437 8.73748L25.3563 8.40623L28.3188 8.37498C31.2688 8.34373 31.2812 8.34373 31.5125 8.19998C31.7625 8.04373 32 7.63123 32 7.35623C32 7.10623 31.8563 6.80623 31.6313 6.59373L31.4312 6.40623L28.4125 6.38748L25.3875 6.36873L25.225 5.91873C24.7875 4.72498 23.7688 3.75623 22.5312 3.37498C21.9625 3.19998 20.9937 3.15623 20.4375 3.28123ZM22.275 5.43123C22.7437 5.66248 23.075 6.00623 23.3 6.49373C23.5375 6.99373 23.5312 7.69373 23.3 8.19998C23.0813 8.66873 22.6875 9.08123 22.2563 9.29373C21.95 9.44998 21.8375 9.46873 21.3125 9.46873C20.7563 9.46873 20.6938 9.45623 20.325 9.25623C19.8875 9.01873 19.575 8.69373 19.3625 8.25623C19.2437 8.01248 19.2188 7.86873 19.2188 7.34373C19.2188 6.78123 19.2375 6.68748 19.3938 6.38748C19.9625 5.30623 21.1938 4.89998 22.275 5.43123Z" fill="#FDFDFD"/>
<path d="M10.1375 11.8812C8.56875 12.0875 7.28125 13.1437 6.74375 14.6562L6.6375 14.9688L3.63125 15C0.725 15.0312 0.63125 15.0375 0.4625 15.1625C0.13125 15.4062 0.03125 15.6062 0.03125 16C0.03125 16.3937 0.13125 16.5938 0.4625 16.8375C0.63125 16.9625 0.725 16.9688 3.63125 17L6.6375 17.0312L6.74375 17.3438C7.225 18.7 8.29375 19.6813 9.6875 20.0375C10.2188 20.175 11.1562 20.175 11.6875 20.0375C11.9125 19.975 12.3063 19.825 12.5625 19.7C13.4438 19.2688 14.35 18.2 14.6313 17.2687L14.7063 17L23.0375 16.9875C31.3375 16.9688 31.3687 16.9688 31.5375 16.8375C31.8687 16.5938 31.9688 16.3937 31.9688 16C31.9688 15.6062 31.8687 15.4062 31.5375 15.1625C31.3687 15.0312 31.3375 15.0312 23.0375 15.0125L14.7063 15L14.6313 14.7312C14.3562 13.8 13.4438 12.7312 12.5625 12.3C11.7875 11.9187 10.9375 11.7688 10.1375 11.8812ZM11.0375 13.8812C12.6938 14.1813 13.4 16.1812 12.2812 17.4188C11.4438 18.3562 10.0563 18.4 9.16875 17.525C8.30625 16.675 8.30625 15.325 9.16875 14.4688C9.4875 14.1562 9.85 13.9625 10.2563 13.8812C10.6375 13.8063 10.625 13.8063 11.0375 13.8812Z" fill="#FDFDFD"/>
<path d="M20.4064 20.5937C19.0314 20.8937 17.7564 22.0562 17.3689 23.3562L17.2939 23.6249L9.00642 23.6374L0.718922 23.6562L0.481422 23.8062C-0.137328 24.1874 -0.149828 25.0124 0.462672 25.4624C0.631422 25.5937 0.675172 25.5937 8.94392 25.6249L17.2564 25.6562L17.4564 26.1562C17.8627 27.1499 18.5314 27.8874 19.4627 28.3437C20.1939 28.7062 20.7877 28.8374 21.5314 28.7937C23.2314 28.6937 24.6814 27.6062 25.2502 26.0124L25.3939 25.6249H28.3439H31.2939L31.5002 25.4812C31.8002 25.2812 31.9502 25.0499 31.9814 24.7312C32.0252 24.3812 31.8252 23.9937 31.5002 23.7937C31.2877 23.6562 31.2377 23.6562 28.3189 23.6249L25.3564 23.5937L25.2439 23.2624C24.9502 22.3937 24.1002 21.4124 23.2689 20.9812C22.4064 20.5312 21.3377 20.3874 20.4064 20.5937ZM22.2627 22.7062C22.6877 22.9187 23.0814 23.3312 23.3002 23.7999C23.4377 24.0874 23.4627 24.2499 23.4689 24.6562C23.4689 25.0999 23.4439 25.2062 23.2627 25.5749C23.0252 26.0562 22.6877 26.3874 22.1939 26.6187C21.9002 26.7562 21.7564 26.7812 21.3127 26.7812C20.8564 26.7812 20.7314 26.7562 20.4252 26.6062C19.6627 26.2312 19.2502 25.6124 19.2002 24.7749C19.1564 23.9187 19.5002 23.2437 20.1877 22.8249C20.6627 22.5437 20.8314 22.4999 21.4127 22.5187C21.8127 22.5374 21.9939 22.5749 22.2627 22.7062Z" fill="#FDFDFD"/>
</g>
<defs>
<clipPath id="clip0_225_2410">
<rect width="32" height="32" fill="white"/>
</clipPath>
</defs>
</svg>
