<svg width="20" height="20" viewBox="0 0 20 20" fill="none" xmlns="http://www.w3.org/2000/svg">
<path d="M7.76433 0.0329628C6.29044 0.23875 5.05015 0.694822 3.92666 1.45123C1.91327 2.80276 0.611802 4.76052 0.133484 7.16324C-0.0444947 8.05869 -0.0444947 9.52702 0.133484 10.4225C0.311463 11.3012 0.539498 11.9687 0.923265 12.7418C2.6085 16.1067 6.22926 18.0199 9.94457 17.5249C11.3406 17.3414 12.7978 16.7741 13.8434 16.0066L14.1159 15.8119L16.096 17.7919C18.1538 19.8442 18.3374 19.9944 18.7712 20C19.4442 20.0055 20.0059 19.4438 20.0004 18.7708C19.9948 18.337 19.8446 18.1534 17.7979 16.1011L15.8179 14.1211L16.1627 13.5983C17.7367 11.2011 18.0426 8.15881 16.9692 5.50025C15.8401 2.69708 13.315 0.650328 10.3228 0.110828C9.76103 0.00515366 8.27045 -0.0337791 7.76433 0.0329628ZM9.91119 2.45236C11.2349 2.68596 12.3528 3.27551 13.3317 4.2544C13.9102 4.83283 14.2216 5.26109 14.5498 5.92295C15.423 7.66937 15.4452 9.81067 14.6054 11.5793C13.9991 12.8419 12.8145 14.0154 11.5074 14.6328C9.92788 15.3836 7.89781 15.4114 6.22926 14.6995C4.90554 14.1378 3.60963 12.8919 2.98115 11.5793C2.14131 9.81067 2.16355 7.66937 3.03676 5.92295C3.36491 5.26109 3.67637 4.83283 4.25481 4.2544C5.26706 3.23658 6.45729 2.6359 7.93118 2.40787C8.29826 2.34669 9.46069 2.3745 9.91119 2.45236Z" fill="#8FC7FF"/>
</svg>
