<svg width="24" height="19" viewBox="0 0 24 19" fill="none" xmlns="http://www.w3.org/2000/svg">
<path d="M5.53594 0.973448C5.42344 0.996885 5.25469 1.0672 5.16094 1.12814C5.06719 1.19376 3.91406 2.32813 2.59219 3.65001C0.0421875 6.2047 0 6.25157 0 6.68751C0 7.12345 0.046875 7.17501 2.56875 9.70157C3.87656 11.0141 5.03438 12.1484 5.14688 12.2234C5.64844 12.5797 6.33281 12.4297 6.64688 11.8953C6.80625 11.6281 6.82031 11.1688 6.68438 10.9063C6.6375 10.8172 5.92031 10.0625 5.09531 9.22814L3.59063 7.71876H10.6875C15.1172 7.71876 17.9484 7.73751 18.2109 7.76563C19.8938 7.95313 21.2391 9.07345 21.7313 10.6953C21.8484 11.0703 21.8625 11.1922 21.8625 11.8203C21.8672 12.575 21.8297 12.8094 21.6047 13.3578C21.0938 14.6234 20.0859 15.4906 18.7031 15.8609C18.4266 15.9313 17.9484 15.9453 13.6125 15.9688L8.82656 15.9922L8.60156 16.1328C8.02031 16.4938 7.94063 17.3328 8.45156 17.7828C8.775 18.0688 8.54531 18.0547 13.6641 18.0547C18.6656 18.0547 18.6047 18.0594 19.4578 17.8203C22.5609 16.9484 24.4828 13.8453 23.8828 10.6813C23.4703 8.52501 21.8953 6.70626 19.8047 5.9797C18.8766 5.66095 19.5328 5.68438 11.1703 5.67032C7.0125 5.66095 3.60938 5.63751 3.60938 5.61876C3.60938 5.60001 4.29375 4.90157 5.13281 4.06251C6.525 2.67501 6.66563 2.51563 6.73594 2.30001C6.83438 1.98595 6.7875 1.69532 6.59531 1.4047C6.36094 1.05782 5.95781 0.893761 5.53594 0.973448Z" fill="#070707"/>
</svg>
