<svg width="46" height="40" viewBox="0 0 46 40" fill="none" xmlns="http://www.w3.org/2000/svg">
<path d="M20.6512 0.0580978C20.2042 0.183216 19.8467 0.455528 19.4667 0.96336C19.057 1.51535 18.4685 1.94958 17.5 2.42797C15.8834 3.22283 13.8198 3.76746 12.1288 3.84106C10.9293 3.89994 10.3781 3.7969 9.499 3.36267C8.81363 3.02412 8.77638 3.01676 8.1208 3.01676C7.59188 3.02412 7.34603 3.06092 7.01825 3.19339C6.41482 3.42155 5.82629 3.97354 5.5283 4.5844C5.29736 5.04071 5.28246 5.12904 5.28246 5.82086C5.28246 6.54213 5.28991 6.57893 5.58045 7.14563C5.85609 7.6829 5.87844 7.77122 5.87844 8.31585C5.87099 8.81632 5.84119 8.97824 5.66985 9.32415C5.32716 10.016 4.41829 10.6931 3.42003 11.0022C1.72895 11.5247 0.693436 12.9452 0.797732 14.6012C0.84243 15.3519 1.08082 16.0143 1.50546 16.5442C1.6619 16.7355 2.15358 17.1624 2.60056 17.5009C4.10541 18.627 4.35125 19.3483 3.67332 20.6142C3.29339 21.3281 3.23379 21.7402 3.44983 22.2333C3.65842 22.6823 3.85957 22.9104 4.2395 23.0797C4.82803 23.3447 5.41656 23.2416 6.17643 22.7412C7.0555 22.1671 7.85261 22.064 8.60504 22.4247C8.99987 22.616 9.12652 22.7412 10.3855 24.0659C10.5718 24.2646 10.9368 24.5517 11.1975 24.6915C12.3075 25.3097 12.6279 25.6704 12.68 26.3696C12.7024 26.7081 12.6651 26.9068 12.4714 27.4147C12.166 28.2169 12.1511 28.7762 12.4193 29.2988C12.7843 29.998 13.3729 30.3512 14.17 30.3586C14.7287 30.3586 15.0118 30.2482 15.5854 29.8213C16.5241 29.1148 17.1648 28.8793 18.1034 28.8793C19.1613 28.8866 19.9584 29.2546 20.9865 30.2408C21.724 30.9327 22.0518 31.1093 23.0798 31.3522C23.9068 31.5435 24.607 31.8453 25.0913 32.2206C25.5233 32.5592 25.9927 33.2363 26.1938 33.7956C26.3428 34.2372 26.3652 34.4139 26.3428 35.3265C26.3354 35.9226 26.3652 36.4894 26.4099 36.6733C26.5142 37.0561 26.9835 37.5933 27.4007 37.8141C27.8328 38.0423 28.6969 38.0423 29.129 37.8141C29.8442 37.4388 30.2092 36.8426 30.2092 36.0698C30.2092 35.5031 30.09 35.1867 29.7026 34.7745C29.4419 34.4875 28.7789 34.1121 28.533 34.1121C28.4809 34.1121 28.1978 33.9944 27.9073 33.8472C26.4993 33.1553 25.7319 31.6907 25.9331 30.101C26.015 29.4165 26.1938 29.0044 26.6185 28.5039C27.3113 27.6723 28.3542 27.0319 29.4195 26.7817C30.2241 26.5977 31.2298 26.6272 31.9525 26.8553C33.2562 27.2675 34.1352 26.9657 34.6865 25.9132C34.8802 25.5453 34.9025 24.7872 34.7312 24.3898C34.5673 24.0218 34.1278 23.5581 33.7925 23.3962C32.8092 22.9325 31.7811 23.2563 31.1479 24.2278C30.4029 25.3686 29.2706 26.1193 27.8179 26.4284C26.8494 26.6345 25.8958 26.5168 24.8529 26.0678C23.7354 25.5894 23.0798 25.5453 22.2082 25.8691C21.8804 25.9868 21.6122 26.1782 21.1504 26.6124C20.0255 27.6502 19.1538 28.077 18.1407 28.077C17.2095 28.0697 16.4719 27.79 15.5631 27.0761C14.7883 26.4726 14.4233 26.1046 14.3264 25.8102C14.1849 25.3907 14.2817 24.6915 14.5425 24.2426C14.6691 24.0218 14.8777 23.6317 15.0192 23.3667L15.2651 22.8883V21.5268C15.2725 20.2682 15.28 20.1358 15.4364 19.7972C15.7791 19.0612 16.3378 18.6785 17.3957 18.4651C18.2003 18.3105 18.5132 18.1486 19.057 17.6113C19.9212 16.7723 21.1131 16.3602 22.7521 16.3454C23.944 16.3381 24.5027 16.4411 25.1136 16.787C25.9256 17.2581 26.1864 17.3537 26.6408 17.3464C27.9967 17.3243 28.8385 15.8671 28.1531 14.7116C27.9073 14.292 27.5869 14.0418 27.1325 13.9093C26.3726 13.6885 25.8958 13.8284 25.136 14.5055C24.309 15.2488 23.3704 15.6095 22.0294 15.7051C20.5842 15.8082 19.6157 15.6095 18.7218 15.0133C17.9172 14.476 17.2542 14.4098 16.5166 14.7852C15.794 15.1458 15.5333 15.6168 15.4439 16.7282C15.3768 17.6334 15.2427 18.075 14.9224 18.4577C14.5052 18.9582 13.4697 19.3188 12.4193 19.3188C11.9574 19.3188 11.2348 19.5323 10.8921 19.7678C10.758 19.8635 10.4377 20.1358 10.1844 20.3639C8.98497 21.4605 8.09101 21.7181 7.08529 21.2471C6.53402 20.9969 5.86354 20.3786 5.61025 19.9076C5.49105 19.6721 5.43891 19.4513 5.43146 19.1348C5.43146 18.4945 5.69965 18.0088 6.54891 17.1182C7.30879 16.3234 7.56953 15.8965 7.74832 15.1458C7.91221 14.4466 7.84517 13.8652 7.47268 12.7686C7.18959 11.9443 7.15979 11.775 7.15979 11.1494C7.15979 10.2368 7.33113 9.76574 7.91221 9.15487C8.3294 8.70592 8.3294 8.70592 8.66463 8.75008C9.09672 8.80896 9.83424 9.14751 10.1769 9.44927C10.691 9.89086 10.7878 10.2147 10.8325 11.5983C10.8698 12.798 10.8698 12.8201 11.0932 13.1807C11.6967 14.1448 12.978 14.4098 13.939 13.7769C14.4531 13.4383 14.7138 12.9673 14.766 12.327C14.8405 11.2524 14.2221 10.4576 13.1047 10.2C12.0841 9.9571 11.3093 9.34623 11.0932 8.62496C10.9219 8.06561 10.9442 7.14563 11.1379 6.75556C11.4359 6.15205 12.4863 5.34247 13.7677 4.73896C15.4141 3.96618 17.3883 3.47307 18.8782 3.46571C19.6381 3.45835 19.8094 3.48779 20.3532 3.67178C21.1206 3.93674 21.5377 3.91466 22.2753 3.54667C22.9904 3.19339 23.2288 3.12716 24.0483 3.06092C25.5084 2.94316 27.0952 3.23019 28.3766 3.85578C29.2557 4.28265 29.643 4.59912 30.4104 5.53382C31.3267 6.63044 31.5949 7.05732 31.6917 7.49891C31.8631 8.33793 31.3416 9.33151 30.537 9.68478C29.7622 10.0233 28.2127 10.1485 27.0729 9.96445C25.9331 9.78782 24.5921 9.18431 23.8472 8.52928C23.7056 8.40417 23.3853 8.05089 23.1394 7.74914C22.0965 6.48325 21.3292 6.10053 19.9584 6.15941C19.3475 6.18149 19.206 6.21829 18.7069 6.46117C17.4479 7.0794 16.7699 8.15393 16.7774 9.53022C16.7848 10.8403 17.4628 11.9295 18.6324 12.5036C19.1836 12.7833 19.6306 12.8642 20.3905 12.8274C21.2249 12.7906 21.724 12.5846 22.6403 11.8927C23.7131 11.0832 24.7709 10.7593 26.3652 10.7667C27.1623 10.7667 27.4677 10.8035 28.0786 10.958C29.1216 11.223 29.9187 11.6204 30.5445 12.1798C31.1851 12.7612 31.58 12.9452 32.1834 12.9378C33.2934 12.9305 34.1054 12.1135 34.1054 11.0022C34.1054 10.487 34.0235 10.2809 33.4871 9.45662C32.8539 8.49249 32.9135 7.63874 33.6808 6.80708C33.9192 6.53477 33.9713 6.51268 34.3289 6.51268C35.4687 6.52005 36.5862 6.99108 37.428 7.8301C38.3965 8.79424 38.8136 9.89086 38.754 11.3407C38.7317 12.0252 38.7094 12.1283 38.4486 12.6361C37.942 13.6517 37.0034 14.2847 35.3123 14.7484C34.8653 14.8735 34.314 15.0648 34.0831 15.1752C33.5169 15.4549 32.9209 16.0658 32.4441 16.8533C31.5055 18.3841 30.0751 19.4071 28.2201 19.8782C26.7526 20.2388 25.4042 20.1873 24.242 19.7163C23.1618 19.2747 22.3349 19.3188 21.6197 19.8561C21.0014 20.3198 20.7183 20.9233 20.7332 21.7402C20.7555 23.3667 22.4988 24.3898 23.9962 23.6611C24.3761 23.4771 24.5698 23.3079 24.9348 22.8736C26.0672 21.5047 27.8849 20.6804 29.941 20.5921C31.4608 20.5258 32.2653 20.7246 33.651 21.5047C34.0607 21.7329 34.612 21.9757 34.8802 22.0567C36.9363 22.616 39.0595 21.3501 39.5586 19.2747C39.7449 18.5019 39.6704 17.9278 39.2234 16.6251C38.6572 14.9692 38.6349 14.0418 39.1489 13.0482C39.35 12.6582 39.9535 12.0252 40.3036 11.8412L40.5718 11.7014L40.9592 12.1209C42.1139 13.3721 42.6279 15.2415 42.1884 16.603C42.099 16.9048 42.017 17.3464 42.017 17.5893C42.0096 17.972 42.0543 18.1265 42.3225 18.6564C42.7024 19.4219 42.8663 20.0033 42.8663 20.6436C42.8663 21.9684 42.2629 22.9693 40.8623 23.9482C40.095 24.4854 39.8417 24.7798 39.4096 25.6262C38.6274 27.1644 36.3925 28.5849 34.0086 29.0706C33.1891 29.2325 31.8258 29.1957 31.282 28.997C30.6935 28.7762 29.8963 28.7983 29.3674 29.0559C28.6001 29.4239 28.1158 30.1304 28.0562 30.9547C27.9818 31.9778 28.4734 32.7653 29.5313 33.3393C30.5594 33.8987 31.2298 34.7892 31.4012 35.8049C31.4906 36.3716 31.4086 36.953 31.133 37.6743C31.0287 37.9466 30.9467 38.2631 30.9467 38.3956C30.9467 39.2493 31.6917 40 32.5484 40C33.4722 40 34.2544 39.1315 34.1278 38.2336C34.0607 37.7405 33.8372 37.4167 33.2562 36.9751C32.4218 36.3348 31.9972 35.6945 31.8333 34.826C31.6992 34.09 31.8258 33.4497 32.31 32.5003C32.9284 31.2786 33.7329 30.5132 35.1782 29.7845C37.2343 28.7394 39.3202 28.4671 40.8921 29.0338C41.7563 29.3429 42.5832 29.3724 43.2537 29.1148C43.8497 28.8866 44.4382 28.3346 44.7436 27.7238C44.9522 27.3116 44.9969 27.135 45.0118 26.6051C45.0416 25.8323 44.9075 25.4275 44.319 24.537C43.2984 22.9987 43.2611 21.3722 44.2296 20.0327C44.4158 19.7751 44.7287 19.4366 44.9299 19.2747C45.6823 18.6712 45.8834 18.3105 45.8834 17.5525C45.8834 16.7134 45.5184 16.1762 44.684 15.764C43.5666 15.212 42.6875 14.0565 42.3001 12.614C42.1213 11.9443 42.1362 10.9507 42.3374 10.3398C42.6428 9.39775 42.4715 8.61024 41.8382 8.04354C41.4359 7.6829 40.9294 7.54306 40.0726 7.55779C39.7076 7.56514 39.2159 7.52834 38.9924 7.47683C37.9718 7.24131 36.8693 6.47589 36.2956 5.60006C35.9306 5.04808 35.7369 4.51081 35.5656 3.62762C35.4911 3.23755 35.3346 2.7518 35.2303 2.53837C34.8504 1.79502 34.0682 1.23567 33.1593 1.05904C32.4292 0.911839 31.5651 1.13264 30.8871 1.63311C30.1347 2.19246 29.0471 2.47949 27.7061 2.48685C25.6872 2.48685 24.0185 1.92014 22.8489 0.823521C22.5062 0.50705 22.1114 0.197933 21.9773 0.146416C21.6048 -0.00814056 21.0386 -0.0449409 20.6512 0.0580978ZM21.6048 0.514408C22.022 0.632168 22.387 0.96336 22.5584 1.37551C22.834 2.01582 22.5658 2.8254 21.9698 3.17131C21.4558 3.46571 21.0237 3.48043 20.5171 3.22283C20.1819 3.05356 20.0702 2.95052 19.8988 2.61197C19.5189 1.8907 19.6902 1.18415 20.383 0.676327C20.5469 0.558567 20.8971 0.433449 21.1578 0.411369C21.2025 0.404011 21.4037 0.455528 21.6048 0.514408ZM33.2115 1.76558C34.1725 2.01582 34.8951 2.89164 34.8951 3.82634C34.8951 4.54761 34.3513 5.40871 33.6808 5.75462C33.1519 6.03429 32.2728 6.04902 31.7662 5.78406C31.3118 5.5559 30.9691 5.22471 30.7381 4.78312C30.5743 4.48137 30.5445 4.31945 30.5445 3.89994C30.5668 2.61932 31.3267 1.82446 32.6974 1.66254C32.7421 1.66254 32.9731 1.7067 33.2115 1.76558ZM8.91047 3.81898C9.38726 4.0177 9.75229 4.34889 9.99068 4.79048C10.2812 5.34247 10.3408 5.78406 10.1993 6.32869C9.84169 7.66818 8.47839 8.31585 7.18214 7.7565C6.01253 7.24867 5.55065 5.68102 6.27327 4.64328C6.86925 3.78954 8.00906 3.43627 8.91047 3.81898ZM21.2621 7.18243C21.7985 7.43267 22.2678 7.89634 22.5137 8.41153C22.685 8.77216 22.7148 8.92672 22.7148 9.49343C22.7074 10.0528 22.6776 10.222 22.5137 10.568C22.2753 11.0758 21.8432 11.5174 21.3217 11.7897C20.9641 11.9737 20.8524 11.9958 20.1819 11.9958C19.504 11.9958 19.3997 11.9737 18.9974 11.775C18.2524 11.407 17.7533 10.7225 17.6192 9.89822C17.4106 8.64704 18.1109 7.52098 19.3848 7.04995C19.8318 6.88804 20.7704 6.95428 21.2621 7.18243ZM41.2125 8.16129C42.4938 8.81632 42.248 10.6563 40.8474 10.9139C39.648 11.1347 38.7094 9.97918 39.2085 8.89728C39.3649 8.56608 39.8119 8.16129 40.1471 8.05825C40.4228 7.96994 40.9443 8.02146 41.2125 8.16129ZM32.6378 9.64062C33.3083 9.83934 33.7776 10.5532 33.6659 11.2156C33.4945 12.2239 32.392 12.7906 31.4906 12.3343C30.6264 11.9001 30.4253 10.7667 31.0883 10.0381C31.3416 9.75838 31.7811 9.53758 32.1089 9.53022C32.1908 9.53022 32.4292 9.58174 32.6378 9.64062ZM13.2388 10.7152C13.9018 10.8918 14.386 11.6204 14.319 12.3343C14.1849 13.6959 12.3448 14.1448 11.5402 13.0041C11.3465 12.7244 11.3167 12.6214 11.3167 12.1871C11.3167 11.7676 11.3465 11.6425 11.5179 11.3849C11.7488 11.0464 11.9574 10.8844 12.382 10.7372C12.7247 10.6195 12.8737 10.6121 13.2388 10.7152ZM5.03662 11.8854C6.10938 12.2092 6.82455 13.0188 6.94375 14.0418C7.08529 15.2415 6.56381 16.2203 5.45381 16.7944C5.09622 16.9784 4.98447 17.0005 4.314 17.0005C3.63607 17.0005 3.53178 16.9784 3.13694 16.787C1.47566 15.9554 1.11807 13.8284 2.42177 12.5404C3.15184 11.8118 4.05326 11.5836 5.03662 11.8854ZM27.4007 14.4834C28.168 15.0648 28.1456 16.2056 27.356 16.7208C26.9313 17.0078 26.2609 17.0152 25.8586 16.7429C25.4637 16.4779 25.2477 16.0584 25.2552 15.5579C25.2626 15.0428 25.4637 14.6895 25.9033 14.4245C26.3354 14.1596 27.0058 14.189 27.4007 14.4834ZM17.8427 15.0648C18.2524 15.1826 18.6845 15.5727 18.7963 15.9186C18.9527 16.3896 18.8782 17.0446 18.6249 17.3685C18.3269 17.7512 17.7086 18.0235 17.284 17.9646C16.7774 17.8837 16.3229 17.5598 16.092 17.1035C15.7866 16.5 15.8685 15.9701 16.3304 15.477C16.755 15.0354 17.2765 14.8956 17.8427 15.0648ZM36.683 15.7567C38.0463 16.1541 38.9403 17.5451 38.7019 18.8846C38.4263 20.4449 36.9587 21.5121 35.4464 21.2545C34.4705 21.0852 33.6808 20.4964 33.2711 19.6279C33.0997 19.2599 33.0699 19.1127 33.0699 18.4724C33.0699 17.8174 33.0923 17.6849 33.286 17.2801C33.5094 16.7944 34.0682 16.1982 34.5301 15.9701C35.1856 15.6242 35.9828 15.5506 36.683 15.7567ZM44.7958 16.3307C45.1459 16.5736 45.4737 17.1624 45.4737 17.5451C45.4737 17.9573 45.1608 18.546 44.8181 18.7668C43.5442 19.5985 41.9127 18.2148 42.6056 16.8901C43.0078 16.1246 44.088 15.8523 44.7958 16.3307ZM23.7652 20.1137C24.2643 20.3639 24.5772 20.7908 24.6815 21.3501C24.8305 22.1229 24.4804 22.8295 23.7876 23.1754C22.2604 23.9261 20.6959 22.3805 21.4558 20.8791C21.8879 20.018 22.9085 19.6795 23.7652 20.1137ZM13.358 20.1946C13.8124 20.4302 14.17 20.7687 14.3935 21.1882C14.5574 21.5047 14.5946 21.6593 14.5946 22.1524C14.5946 22.6455 14.5574 22.8 14.3935 23.1165C13.9986 23.8598 13.2909 24.2794 12.4342 24.2794C10.4824 24.272 9.5586 21.9463 10.9666 20.5921C11.5924 19.9886 12.613 19.8193 13.358 20.1946ZM5.34206 20.5258C5.90079 20.7246 6.17643 21.1661 6.11683 21.7697C6.04233 22.594 5.19307 23.0797 4.39595 22.7485C3.93406 22.5572 3.61373 21.9389 3.71057 21.4164C3.77762 21.0705 4.15755 20.6657 4.53749 20.5332C4.90998 20.4081 4.98447 20.4007 5.34206 20.5258ZM33.4573 23.7421C33.718 23.8378 34.1278 24.2131 34.2768 24.5075C34.4034 24.743 34.4258 25.3613 34.314 25.6557C33.8894 26.7449 32.3473 26.9289 31.6992 25.9648C31.1702 25.1773 31.3937 24.2352 32.2057 23.8083C32.5037 23.6538 33.1295 23.617 33.4573 23.7421ZM43.0749 24.5443C43.4921 24.7283 43.9391 25.1331 44.1551 25.5379C44.2817 25.7734 44.319 25.9648 44.319 26.4579C44.319 27.1718 44.1774 27.5398 43.7081 28.0182C42.8141 28.9308 41.1827 28.7909 40.4228 27.7311C39.5735 26.5462 40.1397 24.8755 41.5402 24.4266C41.95 24.2941 42.6205 24.3456 43.0749 24.5443ZM24.2345 26.5462C25.4042 27.1055 25.8288 28.6364 25.0987 29.6815C24.2792 30.8591 22.6776 30.9842 21.724 29.9538C21.5079 29.7257 21.2994 29.4092 21.2323 29.2105C20.8151 27.9887 21.5303 26.7008 22.8042 26.3843C23.199 26.2886 23.8472 26.3622 24.2345 26.5462ZM15.0341 27.2454C15.9654 27.9004 15.8313 29.2841 14.7883 29.8066C14.3786 30.0127 13.6708 29.9317 13.3207 29.6521C12.9259 29.3356 12.7769 29.1221 12.7098 28.7394C12.613 28.2095 12.7322 27.8121 13.1047 27.4441C13.4846 27.0687 13.7751 26.9657 14.3264 27.0099C14.617 27.0319 14.8181 27.0982 15.0341 27.2454ZM31.133 29.5564C32.1983 30.0495 32.4739 31.4994 31.6694 32.331C31.3714 32.6402 31.133 32.7653 30.6562 32.8683C29.278 33.1553 28.1233 31.6245 28.7789 30.3733C28.9577 30.0274 29.3451 29.6594 29.6803 29.5196C30.0677 29.3503 30.7307 29.3724 31.133 29.5564ZM29.0247 34.7892C29.1812 34.8775 29.3972 35.0763 29.5089 35.2382C29.6877 35.4958 29.7175 35.6062 29.7175 36.0698C29.7175 36.5409 29.6952 36.6365 29.494 36.9162C29.2333 37.2769 28.8385 37.505 28.3766 37.5565C28.1158 37.5786 27.952 37.5492 27.6316 37.3873C27.1399 37.1517 26.8494 36.769 26.7972 36.2906C26.7302 35.7313 26.827 35.4516 27.2144 35.0689C27.7508 34.539 28.3915 34.436 29.0247 34.7892ZM33.1891 37.3725C33.5839 37.6375 33.7776 37.976 33.7776 38.4176C33.7776 39.6541 32.1983 40.0957 31.4906 39.0506C31.2 38.6237 31.282 37.9024 31.6619 37.5565C32.1014 37.1665 32.7645 37.0855 33.1891 37.3725Z" fill="#070707"/>
<path d="M20.8151 0.955534C20.8151 1.01441 20.8821 1.12481 20.9641 1.19105C21.1652 1.36769 21.1503 1.456 20.8821 1.72832C20.6661 1.93439 20.6512 1.98591 20.681 2.33183C20.7257 2.76606 20.9194 2.97949 21.2621 2.97949C21.6048 2.97949 21.7985 2.76606 21.8357 2.34655C21.8655 2.03743 21.8432 1.94911 21.6942 1.76512C21.5899 1.64 21.4856 1.456 21.4558 1.33825C21.4334 1.22785 21.344 1.07329 21.2621 0.992333C21.0833 0.815696 20.8151 0.800977 20.8151 0.955534ZM21.4707 2.21407C21.4856 2.41278 21.4558 2.54526 21.3738 2.6115C21.2025 2.75134 21.0386 2.5747 21.0386 2.24351C21.0386 1.92703 21.0907 1.8608 21.2993 1.89023C21.4185 1.90495 21.4558 1.97855 21.4707 2.21407Z" fill="#070707"/>
<path d="M32.0641 2.75946C31.9822 2.84042 31.9151 2.98762 31.9151 3.09066C31.9151 3.23785 31.9524 3.27465 32.1088 3.27465C32.2355 3.27465 32.3174 3.23049 32.3398 3.12745C32.3621 3.03178 32.4441 2.98026 32.5558 2.98026C32.9283 2.98026 32.8464 3.30409 32.4292 3.47337C31.9077 3.67944 31.7065 4.15047 31.9226 4.62886C32.0194 4.83494 32.3994 5.04102 32.675 5.04102C32.9283 5.04102 33.3231 4.77606 33.4125 4.54055C33.5168 4.27559 33.4498 3.87816 33.2561 3.67944C33.1294 3.54697 33.1145 3.48073 33.1816 3.31881C33.2859 3.03914 33.2784 2.99498 33.0698 2.79626C32.8315 2.55339 32.2876 2.53867 32.0641 2.75946ZM32.8836 3.93704C33.0773 4.12839 33.0698 4.30503 32.8836 4.51111C32.6974 4.70246 32.608 4.70982 32.4217 4.54791C32.2578 4.40071 32.2504 4.09895 32.4143 3.92232C32.5707 3.75304 32.6974 3.75304 32.8836 3.93704Z" fill="#070707"/>
<path d="M7.59205 5.01882C7.6591 5.17337 7.83789 5.40889 8.00179 5.54137C8.24018 5.74008 8.29978 5.83576 8.29978 6.03448C8.29978 6.26263 8.14333 6.51287 8.00924 6.51287C7.82299 6.51287 7.674 6.28471 7.674 5.99032C7.66655 5.71064 7.6442 5.67384 7.45796 5.62233C7.23447 5.56345 7.18232 5.61497 7.16742 5.93144C7.14507 6.32151 7.18977 6.49815 7.36856 6.6895C7.51756 6.85142 7.60695 6.88086 7.96454 6.88086C8.32958 6.88086 8.41152 6.85142 8.60522 6.66742C8.77656 6.49079 8.82126 6.38775 8.82126 6.11544C8.82126 5.67384 8.70951 5.45305 8.36682 5.23225C8.21783 5.12922 8.06884 4.98202 8.03904 4.8937C8.00179 4.7833 7.92729 4.7465 7.7336 4.7465H7.48031L7.59205 5.01882Z" fill="#070707"/>
<path d="M19.772 8.18389C19.4367 8.30901 19.2579 8.69172 19.392 9.03027C19.4516 9.17747 19.5038 9.21427 19.6528 9.18483C19.8092 9.15539 19.8465 9.10387 19.8316 8.94931C19.8092 8.68436 19.8912 8.57396 20.1072 8.57396C20.3381 8.57396 20.3679 8.68436 20.3679 9.53074C20.3679 10.1858 20.353 10.2667 20.2189 10.3403C19.9806 10.4654 19.772 10.3109 19.772 10.0091C19.772 9.7957 19.7422 9.74418 19.5857 9.70738C19.3324 9.64114 19.2877 9.70002 19.2952 10.0975C19.3026 10.5832 19.5038 10.7451 20.07 10.7451C20.435 10.7451 20.5467 10.7157 20.6808 10.5758C20.8298 10.4286 20.8522 10.3256 20.8745 9.66322C20.9118 8.7506 20.8224 8.39733 20.5169 8.24277C20.3009 8.13237 19.9806 8.11029 19.772 8.18389Z" fill="#070707"/>
<path d="M40.3337 8.47725C40.2071 8.52141 40.0357 8.71277 40.0357 8.80845C40.0357 8.89676 40.3635 8.88204 40.4604 8.78637C40.5945 8.65389 40.7807 8.77165 40.7807 8.97772C40.7807 9.13228 40.7435 9.16172 40.5647 9.16172C40.4455 9.16172 40.2741 9.22796 40.1773 9.30156C40.0283 9.41931 39.9985 9.50763 40.0059 9.8241C40.0134 10.2583 40.1177 10.3982 40.4976 10.4644C40.7211 10.4939 40.803 10.4718 40.9595 10.3172C41.1383 10.1406 41.1532 10.0817 41.1532 9.44139C41.1532 9.06604 41.1234 8.72013 41.0936 8.66861C40.9818 8.49933 40.5721 8.38893 40.3337 8.47725ZM40.736 9.57387C40.885 9.95658 40.6913 10.3246 40.4455 10.1185C40.2443 9.94922 40.3263 9.45611 40.5572 9.45611C40.6317 9.45611 40.7137 9.50763 40.736 9.57387Z" fill="#070707"/>
<path d="M32.3474 10.2222C32.2282 10.2885 32.1239 10.3032 32.1016 10.259C32.0718 10.2222 31.9451 10.1928 31.8036 10.1928C31.4907 10.1928 31.3193 10.4062 31.3193 10.8037C31.3193 11.0907 31.513 11.5176 31.6397 11.5176C31.6769 11.5176 31.6695 11.5691 31.6173 11.628C31.5652 11.6869 31.5428 11.7825 31.5652 11.8488C31.6024 11.9444 31.6397 11.9444 31.8185 11.834C32.0196 11.7236 32.0494 11.7236 32.3027 11.8414C32.4517 11.915 32.6379 11.9592 32.7124 11.9444C32.8316 11.9224 32.8242 11.9076 32.6752 11.7678C32.5858 11.6795 32.3772 11.5765 32.2133 11.5249C31.7589 11.3925 31.4832 10.8331 31.7216 10.524C31.8632 10.3326 31.9824 10.443 32.042 10.8257C32.1016 11.2232 32.2506 11.3704 32.5858 11.3704C32.9508 11.3704 33.07 11.2158 33.07 10.7742C33.07 10.259 32.7497 10.0162 32.3474 10.2222ZM32.7348 10.5976C32.854 10.8993 32.6528 11.2232 32.4591 11.0613C32.3548 10.9803 32.325 10.5461 32.4144 10.4651C32.5187 10.3621 32.6677 10.421 32.7348 10.5976Z" fill="#070707"/>
<path d="M12.6354 11.1279C12.4119 11.172 12.2182 11.4664 12.2778 11.6946C12.3299 11.9154 12.5981 11.8786 12.6354 11.6357C12.6503 11.5253 12.7099 11.4812 12.844 11.4812C12.993 11.4812 13.0377 11.5253 13.0526 11.6872C13.0749 11.8491 13.0451 11.908 12.9259 11.9375C12.7248 11.989 12.7248 12.2319 12.9185 12.2907C13.1047 12.3496 13.1345 12.8059 12.9557 12.8722C12.8142 12.9237 12.6205 12.8501 12.613 12.7397C12.6056 12.6955 12.5981 12.6072 12.5907 12.5483C12.5907 12.4895 12.5087 12.4306 12.4193 12.4159C12.0617 12.3643 12.1586 13.0046 12.5236 13.1445C12.762 13.2328 13.1792 13.1886 13.3357 13.0562C13.4623 12.9531 13.4772 12.3202 13.3506 12.1951C13.2835 12.1288 13.2835 12.0847 13.3506 12.0184C13.4846 11.8859 13.4623 11.4812 13.3133 11.3119C13.1718 11.15 12.9036 11.0837 12.6354 11.1279Z" fill="#070707"/>
<path d="M3.85232 12.82C3.44258 12.901 3.24144 13.5413 3.51708 13.8725C3.64372 14.027 3.64372 14.0712 3.54688 14.3435C3.42768 14.6894 3.47238 15.2046 3.64372 15.4622C3.91936 15.8743 4.75373 15.8302 5.02937 15.3886C5.27521 14.9838 5.19327 14.1889 4.87293 13.9681C4.76863 13.8945 4.74628 13.8136 4.77608 13.6149C4.82823 13.291 4.75373 13.0114 4.58984 12.923C4.41105 12.8347 4.04601 12.7832 3.85232 12.82ZM4.27695 13.3573C4.39615 13.5781 4.2993 13.8136 4.10561 13.7842C3.84487 13.7474 3.82997 13.2101 4.08326 13.2101C4.15031 13.2101 4.23225 13.2763 4.27695 13.3573ZM4.57494 14.3803C4.70158 14.6232 4.66434 15.0868 4.50044 15.234C4.32165 15.396 4.15031 15.3371 4.04601 15.0721C3.94916 14.8292 4.00876 14.3877 4.14286 14.2993C4.30675 14.1963 4.49299 14.2331 4.57494 14.3803Z" fill="#070707"/>
<path d="M25.8065 15.05C25.6128 15.2414 25.6128 15.5652 25.8139 15.8154C25.8959 15.9185 25.948 16.0362 25.9257 16.073C25.9033 16.1098 25.9331 16.1761 25.9853 16.2202C26.0598 16.2791 26.1044 16.2865 26.1417 16.2276C26.2087 16.1172 26.5291 16.1393 26.8196 16.2717C26.9537 16.338 27.1102 16.3748 27.1549 16.3601C27.3113 16.3085 26.9165 16.0141 26.6334 15.9626C26.4844 15.9332 26.2683 15.8669 26.1566 15.8081C25.9778 15.7198 25.948 15.6682 25.9704 15.4327C26.0002 15.0794 26.2087 15.0574 26.2385 15.3959C26.2534 15.5431 26.3056 15.6388 26.3652 15.6388C26.4248 15.6388 26.4769 15.5431 26.4918 15.3959C26.5067 15.2487 26.5514 15.1604 26.6259 15.1604C26.7004 15.1604 26.7451 15.2487 26.76 15.3959C26.7898 15.683 26.9984 15.7345 26.9984 15.4622C26.9984 15.2193 27.1698 15.0868 27.2964 15.234C27.3709 15.3223 27.3709 15.3886 27.3039 15.5358C27.1921 15.7786 27.1996 15.786 27.3635 15.786C27.5199 15.786 27.5944 15.6462 27.5944 15.337C27.5944 15.05 27.2964 14.8439 27.0431 14.9617C26.9165 15.0132 26.842 15.0132 26.7824 14.9543C26.7302 14.9028 26.6557 14.9028 26.5291 14.9543C26.4248 15.0058 26.313 15.0132 26.246 14.969C26.0821 14.866 25.9704 14.8881 25.8065 15.05Z" fill="#070707"/>
<path d="M17.3137 15.6098C17.3137 15.6761 17.3882 15.7865 17.4776 15.8527C17.6787 16.022 17.6117 16.2281 17.3509 16.2281C17.0753 16.2281 17.0902 16.5077 17.3733 16.5372C17.5297 16.5519 17.5819 16.6034 17.5968 16.7727C17.6117 16.8904 17.5819 17.0082 17.5297 17.045C17.3882 17.126 17.1796 16.9935 17.1498 16.8021C17.1349 16.7064 17.0678 16.6255 17.0008 16.6108C16.8965 16.5887 16.8667 16.6402 16.8667 16.8389C16.8667 17.1554 17.0604 17.332 17.4105 17.332C17.8948 17.332 18.1481 16.861 17.8799 16.4783C17.7905 16.3605 17.7905 16.309 17.8724 16.206C17.9991 16.0293 17.932 15.8159 17.7011 15.6393C17.4776 15.4626 17.3137 15.4479 17.3137 15.6098Z" fill="#070707"/>
<path d="M35.0367 17.1033C34.8654 17.2432 34.8579 17.28 34.8579 18.3766C34.8579 19.3555 34.8728 19.5321 34.9995 19.7014C35.2751 20.1062 36.0722 20.143 36.4149 19.7676C36.7203 19.4364 36.6756 18.4723 36.3479 18.1411C36.1989 17.9939 36.0871 17.9644 35.7519 17.9644H35.3347L35.357 17.6995L35.3794 17.4419L35.886 17.4198C36.3851 17.3977 36.3851 17.3977 36.3851 17.1843V16.9635H35.7966C35.3272 16.9635 35.1708 16.9929 35.0367 17.1033ZM36.0126 18.5753C36.1393 18.8182 36.102 19.3039 35.9381 19.4659C35.7593 19.6425 35.6848 19.6499 35.5358 19.4953C35.3645 19.3334 35.3496 18.7152 35.506 18.5238C35.6252 18.384 35.9232 18.4208 36.0126 18.5753Z" fill="#070707"/>
<path d="M43.6112 16.5595C43.6112 16.6257 43.7304 16.7435 43.8719 16.8318C44.1699 17.0011 44.1923 17.2071 43.9241 17.2439C43.7155 17.2734 43.6931 17.553 43.9017 17.553C44.2072 17.553 44.3189 18.0756 44.0433 18.2449C43.8719 18.3479 43.7304 18.2081 43.7229 17.9358C43.7229 17.7886 43.6782 17.7297 43.559 17.715C43.4026 17.6929 43.3877 17.7223 43.3877 17.9726C43.3877 18.1345 43.4324 18.3185 43.4845 18.3847C43.6186 18.5761 44.088 18.6276 44.3115 18.4804C44.5648 18.3185 44.6467 17.8916 44.4754 17.6046C44.386 17.4426 44.3711 17.3617 44.4307 17.2881C44.5648 17.1335 44.4903 16.795 44.2966 16.6993C44.1997 16.6551 44.0805 16.5742 44.0358 16.53C43.9092 16.4049 43.6112 16.427 43.6112 16.5595Z" fill="#070707"/>
<path d="M22.0068 20.9232C21.7461 21.1366 21.7088 21.8211 21.9472 22.2259C22.0962 22.4761 22.1633 22.5203 22.3942 22.5424L22.6698 22.5645L22.4463 22.1597C22.2005 21.7107 22.1782 21.3354 22.3942 21.2102C22.5879 21.0851 22.7518 21.2765 22.7518 21.6077C22.7518 21.88 22.7667 21.8947 22.9753 21.8947C23.1839 21.8947 23.1988 21.88 23.1988 21.6077C23.1988 21.2765 23.3627 21.0851 23.5564 21.2102C23.7724 21.3354 23.75 21.7107 23.5042 22.1597L23.2807 22.5645L23.5564 22.5424C23.7873 22.5203 23.8543 22.4761 24.0033 22.2259C24.1374 21.9904 24.1672 21.8505 24.1449 21.4973C24.1076 20.9306 23.9288 20.7613 23.4223 20.8202C23.236 20.8422 23.0349 20.8643 22.9753 20.8643C22.9157 20.8643 22.7145 20.8422 22.5283 20.8202C22.2601 20.7907 22.1484 20.8054 22.0068 20.9232Z" fill="#070707"/>
<path d="M12.1062 21.0332C11.689 21.1804 11.54 21.4527 11.54 22.0636C11.5475 22.358 11.5922 22.7186 11.6443 22.8658C11.7263 23.1161 11.7635 23.1455 11.987 23.1455H12.2329L12.1658 22.8658C12.069 22.461 12.0839 21.6441 12.1882 21.5411C12.3521 21.3791 12.6202 21.438 12.7022 21.6515C12.7841 21.8502 12.7469 22.6377 12.65 22.9762C12.6053 23.1308 12.6277 23.1455 12.8661 23.1455C13.1119 23.1455 13.1417 23.1234 13.2088 22.8658C13.3131 22.5199 13.3131 21.6662 13.2162 21.4233C13.0821 21.0627 12.5458 20.8787 12.1062 21.0332Z" fill="#070707"/>
<path d="M4.18733 21.2106C4.06069 21.3651 4.06069 21.9098 4.19478 22.0643C4.32143 22.2263 4.74606 22.2263 4.88016 22.0717C4.93231 22.0055 4.9919 21.8215 5.01425 21.6522C5.04405 21.4387 5.0962 21.3357 5.19305 21.321C5.29734 21.2989 5.31969 21.3504 5.31969 21.5786C5.31969 21.7331 5.26754 21.9392 5.2005 22.0275C5.0962 22.1821 5.0962 22.1895 5.26754 22.1895C5.58043 22.1895 5.75922 21.4535 5.50593 21.2106C5.34949 21.0487 4.32143 21.056 4.18733 21.2106ZM4.68647 21.6375C4.68647 21.9687 4.47787 22.1011 4.38848 21.8215C4.31398 21.5786 4.41083 21.2916 4.55982 21.321C4.65667 21.3357 4.68647 21.4167 4.68647 21.6375Z" fill="#070707"/>
<path d="M32.0197 24.5071C31.9303 24.6396 31.9079 24.7868 31.9377 25.0297C31.9824 25.4418 32.042 25.5007 32.422 25.5522C32.7796 25.5964 33.0328 25.3977 33.0328 25.0665C33.0328 24.7574 33.1073 24.6175 33.2638 24.6175C33.3681 24.6175 33.4053 24.669 33.4053 24.8383C33.4053 24.9708 33.3606 25.0812 33.2936 25.1033C33.234 25.1327 33.1818 25.2063 33.1818 25.2799C33.1818 25.3535 33.234 25.4271 33.2936 25.4565C33.4724 25.5228 33.4277 25.7877 33.2191 25.8834C33.0775 25.9423 32.9881 25.9423 32.8466 25.8834C32.6157 25.7804 32.3624 25.7657 32.3624 25.8613C32.3624 26.0527 32.6157 26.1631 33.0328 26.1631C33.599 26.1631 33.7108 26.0527 33.7033 25.5449C33.6959 25.3388 33.7182 25.0591 33.748 24.9266C33.8449 24.4556 33.4053 24.1612 32.9583 24.3967C32.8615 24.4482 32.8019 24.4482 32.7721 24.3967C32.7498 24.3599 32.5933 24.3231 32.4369 24.3231C32.2059 24.3231 32.1165 24.3599 32.0197 24.5071ZM32.7125 24.8236C32.7647 25.0517 32.6529 25.2431 32.4667 25.2431C32.3549 25.2431 32.3177 25.1769 32.3028 24.9561C32.2655 24.5218 32.6082 24.4114 32.7125 24.8236Z" fill="#070707"/>
<path d="M42.032 25.3386C41.451 25.4342 41.3765 25.4637 41.3765 25.6035C41.3839 25.6992 41.4808 25.817 41.6223 25.9053C41.9277 26.0966 41.9277 26.2512 41.6223 26.3469C41.4212 26.3984 41.3765 26.4499 41.3765 26.6265C41.3765 26.8252 41.3914 26.8326 41.6223 26.7885C42.1438 26.6781 42.3822 26.3469 42.2034 25.9715C42.0916 25.7286 42.0991 25.7213 42.2704 25.7213C42.412 25.7213 42.4194 25.7728 42.4194 26.4499C42.4194 26.8547 42.3971 27.23 42.3747 27.2963C42.3077 27.4729 41.8905 27.4508 41.8458 27.2668C41.7862 27.0534 41.3765 27.0608 41.3765 27.2742C41.3765 27.5244 41.5106 27.6937 41.7936 27.782C42.1214 27.8924 42.4716 27.8262 42.6951 27.6201C42.859 27.4656 42.8664 27.414 42.8664 26.3321C42.8664 25.4784 42.8441 25.2061 42.777 25.2134C42.7249 25.2208 42.3896 25.2723 42.032 25.3386Z" fill="#070707"/>
<path d="M22.3052 27.194C22.3052 27.378 22.335 27.4148 22.4765 27.4148C22.7149 27.4148 22.8267 27.5473 22.8267 27.8417C22.8267 28.0625 22.8416 28.0845 23.0352 28.0625C23.1991 28.0477 23.2438 27.9962 23.2587 27.8196C23.2736 27.6945 23.3258 27.5546 23.3705 27.5031C23.5418 27.2897 23.6461 27.6282 23.6461 28.4231C23.6461 29.0855 23.6238 29.2032 23.4971 29.3283C23.3183 29.505 23.2736 29.505 23.0799 29.3725C22.9757 29.2989 22.9384 29.1812 22.9384 28.953C22.9384 28.6733 22.9161 28.6218 22.7373 28.5629C22.6255 28.5261 22.5063 28.5188 22.4765 28.5482C22.4467 28.5776 22.4244 28.7911 22.4169 29.0266C22.4169 29.5344 22.551 29.7331 22.9905 29.8435C23.3779 29.9539 23.8324 29.8288 23.9963 29.5712C24.1602 29.321 24.2272 27.9741 24.0931 27.5031C24.0261 27.2382 23.959 27.1646 23.7355 27.0689C23.4897 26.9658 23.4375 26.9658 23.2587 27.0689C23.0799 27.1719 23.0278 27.1719 22.849 27.0836C22.7298 27.0247 22.5659 26.9732 22.4765 26.9732C22.335 26.9732 22.3052 27.0174 22.3052 27.194Z" fill="#070707"/>
<path d="M14.1846 27.6721C14.1846 27.915 14.1697 27.9297 13.9239 27.9297C13.6333 27.9297 13.4769 28.1284 13.544 28.4154C13.6036 28.6362 13.8121 28.57 13.8121 28.3271C13.8121 28.202 13.8568 28.1505 13.9537 28.1505C14.1399 28.1505 14.1846 28.2903 14.1846 28.8129C14.1846 29.1367 14.1548 29.2471 14.0654 29.2839C13.9015 29.3501 13.8121 29.2765 13.8121 29.0631C13.8121 28.938 13.7749 28.8865 13.6631 28.8865C13.4546 28.8865 13.4471 29.3649 13.6557 29.4752C13.8866 29.593 14.1697 29.5636 14.3336 29.4017C14.4677 29.2692 14.4826 29.1588 14.4826 28.3345C14.4826 27.466 14.4752 27.4145 14.3336 27.4145C14.2144 27.4145 14.1846 27.466 14.1846 27.6721Z" fill="#070707"/>
<path d="M30.358 30.0645C29.8514 30.2338 29.613 30.4104 29.4044 30.7711C29.0543 31.3672 29.2703 32.2725 29.7546 32.2725H29.9781L29.7918 31.9045C29.5832 31.4923 29.5534 31.2274 29.7173 31.0949C29.8961 30.9477 30.0451 31.0654 30.0973 31.3893C30.1345 31.6027 30.1792 31.6837 30.2761 31.6837C30.3729 31.6837 30.425 31.6027 30.4623 31.3819C30.5219 31.0581 30.656 30.9477 30.8348 31.0949C30.9987 31.2274 30.9689 31.4923 30.7603 31.9045L30.574 32.2725H30.7975C31.1104 32.2725 31.319 31.9265 31.319 31.404C31.319 30.9256 31.1551 30.7269 30.7379 30.7269C30.5815 30.7269 30.4176 30.7637 30.3803 30.8005C30.3059 30.8741 29.9036 30.7416 29.9036 30.6459C29.9036 30.5871 30.2016 30.4546 30.5666 30.3589C30.8646 30.2853 30.9316 30.1896 30.8124 30.013C30.7752 29.9467 30.656 29.9615 30.358 30.0645Z" fill="#070707"/>
<path d="M28.1159 35.0688C28.1159 35.1865 28.0861 35.2896 28.0488 35.2896C28.0116 35.2896 27.8775 35.3705 27.7508 35.4736C27.3634 35.7974 27.356 36.6732 27.7434 37.0191C27.9818 37.2326 28.5256 37.2031 28.764 36.9676C29.1663 36.5702 29.062 35.606 28.6001 35.3852C28.3766 35.2822 28.3543 35.238 28.3915 35.054C28.4288 34.8774 28.4064 34.848 28.2723 34.848C28.1457 34.848 28.1159 34.8921 28.1159 35.0688ZM28.2723 36.2463C28.3915 36.2463 28.4139 36.1948 28.4139 35.8931C28.4213 35.5766 28.4288 35.5545 28.5256 35.687C28.6969 35.9078 28.6746 36.5775 28.4884 36.7615C28.168 37.078 27.8179 36.8204 27.8179 36.2611C27.8179 36.0476 27.87 35.8415 27.952 35.7311L28.0786 35.5472L28.101 35.8931C28.1233 36.1875 28.1457 36.2463 28.2723 36.2463Z" fill="#070707"/>
<path d="M32.1387 38.2554C32.1387 39.087 32.2281 39.2637 32.6527 39.2637C32.9805 39.2637 33.0848 39.168 33.1518 38.8294C33.1891 38.6454 33.1593 38.5424 33.0401 38.3731C32.9507 38.2554 32.9134 38.1597 32.9581 38.1597C33.0103 38.1597 33.0103 38.1155 32.9581 38.0051C32.8911 37.8874 32.8538 37.8727 32.7644 37.9463C32.6304 38.0567 32.6304 38.1891 32.7793 38.4688C32.9134 38.719 32.8315 39.0429 32.6304 39.0429C32.4739 39.0429 32.4367 38.8736 32.4367 38.1891C32.4367 37.6224 32.4218 37.5709 32.2877 37.5709C32.1461 37.5709 32.1387 37.6224 32.1387 38.2554Z" fill="#070707"/>
</svg>
