<svg width="68" height="60" viewBox="0 0 68 60" fill="none" xmlns="http://www.w3.org/2000/svg">
<path d="M29.9781 0.0871468C29.3076 0.274822 28.7712 0.683296 28.2013 1.44504C27.5867 2.27302 26.7039 2.92437 25.2512 3.64195C22.8263 4.83425 19.731 5.65119 17.1943 5.76159C15.3952 5.84991 14.5683 5.69535 13.2497 5.04401C12.2217 4.53617 12.1658 4.52514 11.1824 4.52514C10.389 4.53617 10.0203 4.59137 9.52859 4.79009C8.62345 5.13232 7.74066 5.96031 7.29368 6.87661C6.94726 7.56107 6.92491 7.69355 6.92491 8.73129C6.92491 9.81319 6.93609 9.86839 7.3719 10.7184C7.78536 11.5244 7.81888 11.6568 7.81888 12.4738C7.80771 13.2245 7.76301 13.4674 7.50599 13.9862C6.99196 15.024 5.62866 16.0396 4.13127 16.5033C1.59464 17.2871 0.0413746 19.4178 0.197819 21.9017C0.264866 23.0278 0.622453 24.0214 1.2594 24.8162C1.49407 25.1033 2.23159 25.7436 2.90207 26.2514C5.15933 27.9405 5.52809 29.0224 4.51121 30.9212C3.9413 31.9921 3.85191 32.6103 4.17597 33.35C4.48886 34.0234 4.79057 34.3656 5.36047 34.6196C6.24327 35.017 7.12606 34.8624 8.26586 34.1117C9.58446 33.2506 10.7801 33.0961 11.9088 33.637C12.501 33.9241 12.691 34.1117 14.5795 36.0989C14.8589 36.397 15.4064 36.8275 15.7975 37.0373C17.4625 37.9646 17.943 38.5056 18.0213 39.5543C18.0548 40.0622 17.9989 40.3602 17.7084 41.122C17.2502 42.3253 17.2279 43.1643 17.6302 43.9482C18.1777 44.9969 19.0605 45.5269 20.2562 45.5379C21.0943 45.5379 21.5189 45.3723 22.3794 44.732C23.7873 43.6722 24.7484 43.3189 26.1564 43.3189C27.7432 43.3299 28.9388 43.8819 30.4809 45.3613C31.5872 46.399 32.0789 46.664 33.621 47.0283C34.8614 47.3153 35.9118 47.7679 36.6381 48.331C37.2862 48.8388 37.9902 49.8544 38.292 50.6935C38.5154 51.3559 38.549 51.6208 38.5154 52.9897C38.5043 53.884 38.549 54.734 38.616 55.01C38.7725 55.5841 39.4765 56.39 40.1022 56.7212C40.7504 57.0634 42.0466 57.0634 42.6947 56.7212C43.7675 56.1582 44.315 55.2639 44.315 54.1048C44.315 53.2547 44.1363 52.78 43.5552 52.1618C43.1641 51.7312 42.1695 51.1682 41.8008 51.1682C41.7225 51.1682 41.2979 50.9915 40.8621 50.7707C38.7501 49.733 37.5991 47.5361 37.9008 45.1515C38.0238 44.1248 38.292 43.5066 38.9289 42.7559C39.9681 41.5084 41.5326 40.5479 43.1305 40.1726C44.3374 39.8966 45.846 39.9407 46.9299 40.283C48.8855 40.9012 50.2041 40.4486 51.031 38.8699C51.3215 38.3179 51.355 37.1808 51.098 36.5846C50.8522 36.0326 50.1929 35.3371 49.69 35.0943C48.215 34.3988 46.6729 34.8845 45.723 36.3418C44.6056 38.0529 42.9071 39.179 40.728 39.6427C39.2753 39.9518 37.845 39.7751 36.2805 39.1017C34.6043 38.3841 33.621 38.3179 32.3136 38.8036C31.8219 38.9803 31.4196 39.2673 30.7268 39.9187C29.0394 41.4753 27.732 42.1156 26.2122 42.1156C24.8154 42.1045 23.7091 41.685 22.3458 40.6142C21.1837 39.7089 20.6361 39.1569 20.4909 38.7153C20.2785 38.086 20.4238 37.0373 20.8149 36.3638C21.0049 36.0326 21.3178 35.4475 21.5301 35.0501L21.8988 34.3325V32.2902C21.91 30.4024 21.9212 30.2036 22.1559 29.6958C22.6699 28.5918 23.508 28.0178 25.0948 27.6976C26.3016 27.4658 26.771 27.2229 27.5867 26.417C28.883 25.1585 30.6709 24.5402 33.1293 24.5182C34.9172 24.5071 35.7553 24.6617 36.6716 25.1806C37.8897 25.8871 38.2808 26.0306 38.9624 26.0196C40.9962 25.9865 42.2589 23.8006 41.2309 22.0673C40.8621 21.4381 40.3816 21.0627 39.6999 20.864C38.5601 20.5328 37.845 20.7426 36.7052 21.7582C35.4648 22.8732 34.0568 23.4142 32.0454 23.5577C29.8775 23.7123 28.4248 23.4142 27.0839 22.52C25.877 21.7141 24.8825 21.6147 23.7762 22.1777C22.6922 22.7187 22.3011 23.4252 22.167 25.0922C22.0665 26.4501 21.8653 27.1125 21.3848 27.6866C20.759 28.4373 19.2058 28.9782 17.6302 28.9782C16.9373 28.9782 15.8534 29.2984 15.3394 29.6517C15.1382 29.7952 14.6577 30.2036 14.2778 30.5459C12.4787 32.1908 11.1377 32.5772 9.62916 31.8707C8.80224 31.4953 7.79653 30.568 7.4166 29.8614C7.2378 29.5081 7.15958 29.177 7.14841 28.7022C7.14841 27.7418 7.55069 27.0132 8.82459 25.6773C9.9644 24.485 10.3555 23.8447 10.6237 22.7187C10.8695 21.6699 10.769 20.7978 10.2102 19.1528C9.78561 17.9164 9.74091 17.6625 9.74091 16.7241C9.74091 15.3552 9.99792 14.6486 10.8695 13.7323C11.4953 13.0589 11.4953 13.0589 11.9982 13.1251C12.6463 13.2134 13.7526 13.7213 14.2666 14.1739C15.0377 14.8363 15.1829 15.322 15.25 17.3975C15.3058 19.197 15.3058 19.2301 15.6411 19.7711C16.5462 21.2173 18.4683 21.6147 19.9098 20.6653C20.6808 20.1575 21.0719 19.4509 21.1502 18.4905C21.2619 16.8786 20.3344 15.6863 18.6582 15.3C17.1273 14.9356 15.9651 14.0193 15.6411 12.9374C15.3841 12.0984 15.4176 10.7184 15.7081 10.1333C16.1551 9.22808 17.7307 8.01371 19.6528 7.10844C22.1223 5.94927 25.0836 5.2096 27.3185 5.19856C28.4583 5.18752 28.7153 5.23168 29.5311 5.50768C30.6821 5.90511 31.3078 5.87199 32.4141 5.32C33.4869 4.79009 33.8445 4.69073 35.0737 4.59137C37.2639 4.41474 39.6441 4.84529 41.5661 5.78367C42.8847 6.42398 43.4658 6.89869 44.6168 8.30074C45.9912 9.94566 46.3935 10.586 46.5388 11.2484C46.7958 12.5069 46.0136 13.9973 44.8067 14.5272C43.6446 15.035 41.3203 15.2227 39.6106 14.9467C37.9008 14.6817 35.8894 13.7765 34.772 12.7939C34.5596 12.6063 34.0791 12.0763 33.7104 11.6237C32.1459 9.72487 30.995 9.1508 28.9388 9.23912C28.0225 9.27224 27.8102 9.32744 27.0615 9.69175C25.173 10.6191 24.1561 12.2309 24.1673 14.2953C24.1785 16.2604 25.1953 17.8943 26.9498 18.7554C27.7767 19.1749 28.4471 19.2964 29.587 19.2412C30.8385 19.186 31.5872 18.8768 32.9617 17.8391C34.5708 16.6247 36.1576 16.139 38.549 16.15C39.7446 16.15 40.2028 16.2052 41.1191 16.4371C42.6836 16.8345 43.8792 17.4306 44.8179 18.2697C45.7789 19.1418 46.3712 19.4178 47.2763 19.4067C48.9413 19.3957 50.1594 18.1703 50.1594 16.5033C50.1594 15.7305 50.0364 15.4214 49.2319 14.1849C48.282 12.7387 48.3714 11.4581 49.5224 10.2106C49.88 9.80215 49.9582 9.76903 50.4946 9.76903C52.2043 9.78007 53.8805 10.4866 55.1432 11.7451C56.5959 13.1914 57.2217 14.8363 57.1323 17.0111C57.0988 18.0378 57.0652 18.1924 56.6741 18.9541C55.9143 20.4776 54.5063 21.427 51.9696 22.1225C51.2992 22.3102 50.4722 22.5972 50.1258 22.7628C49.2766 23.1824 48.3826 24.0987 47.6674 25.2799C46.2594 27.5762 44.1139 29.1107 41.3314 29.8173C39.13 30.3582 37.1074 30.2809 35.3642 29.5744C33.7439 28.912 32.5035 28.9782 31.4308 29.7841C30.5033 30.4796 30.0786 31.3849 30.101 32.6103C30.1345 35.0501 32.7494 36.5846 34.9955 35.4917C35.5654 35.2157 35.8559 34.9618 36.4035 34.3104C38.102 32.257 40.8286 31.0206 43.9128 30.8881C46.1924 30.7888 47.3992 31.0868 49.4777 32.257C50.0923 32.5993 50.9192 32.9636 51.3215 33.085C54.4057 33.9241 57.5905 32.0252 58.3391 28.912C58.6185 27.7528 58.5068 26.8917 57.8363 24.9377C56.987 22.4537 56.9535 21.0627 57.7245 19.5723C58.0263 18.9872 58.9314 18.0378 59.4566 17.7618L59.8589 17.5521L60.44 18.1813C62.172 20.0581 62.9431 22.8622 62.2838 24.9046C62.1497 25.3572 62.0268 26.0196 62.0268 26.3839C62.0156 26.958 62.0826 27.1898 62.4849 27.9847C63.0548 29.1328 63.3007 30.0049 63.3007 30.9654C63.3007 32.9526 62.3955 34.454 60.2947 35.9223C59.1437 36.7282 58.7638 37.1697 58.1157 38.4393C56.9423 40.7466 53.59 42.8773 50.0141 43.6059C48.7849 43.8488 46.7399 43.7936 45.9242 43.4955C45.0414 43.1643 43.8457 43.1975 43.0523 43.5839C41.9013 44.1358 41.175 45.1957 41.0856 46.4321C40.9739 47.9666 41.7114 49.1479 43.2982 50.009C44.8403 50.848 45.846 52.1838 46.103 53.7073C46.2371 54.5574 46.1142 55.4295 45.7007 56.5114C45.5443 56.9199 45.4213 57.3946 45.4213 57.5933C45.4213 58.8739 46.5388 60 47.8239 60C49.2095 60 50.3828 58.6973 50.1929 57.3505C50.0923 56.6108 49.7571 56.125 48.8855 55.4627C47.6339 54.5022 46.997 53.5417 46.7511 52.239C46.55 51.1351 46.7399 50.1746 47.4663 48.7505C48.3938 46.9179 49.6006 45.7697 51.7685 44.6768C54.8527 43.1091 57.9816 42.7007 60.3394 43.5507C61.6356 44.0144 62.876 44.0586 63.8817 43.6722C64.7757 43.3299 65.6585 42.502 66.1167 41.5857C66.4295 40.9674 66.4966 40.7025 66.5189 39.9076C66.5636 38.7484 66.3625 38.1412 65.4797 36.8054C63.9488 34.4981 63.8929 32.0583 65.3456 30.0491C65.625 29.6627 66.0943 29.1549 66.396 28.912C67.5247 28.0067 67.8264 27.4658 67.8264 26.3287C67.8264 25.0702 67.2788 24.2643 66.0273 23.646C64.3511 22.818 63.0325 21.0848 62.4514 18.921C62.1832 17.9164 62.2056 16.426 62.5073 15.5097C62.9654 14.0966 62.7084 12.9154 61.7586 12.0653C61.1551 11.5244 60.3953 11.3146 59.1102 11.3367C58.5626 11.3477 57.8251 11.2925 57.4899 11.2152C55.959 10.862 54.3051 9.71383 53.4447 8.4001C52.8971 7.57211 52.6066 6.76621 52.3496 5.44144C52.2378 4.85633 52.0032 4.1277 51.8467 3.80755C51.2768 2.69254 50.1035 1.85351 48.7402 1.58855C47.6451 1.36776 46.3488 1.69896 45.3319 2.44966C44.2033 3.28868 42.5718 3.71923 40.5604 3.73027C37.5321 3.73027 35.029 2.88021 33.2746 1.23528C32.7605 0.760574 32.1683 0.296902 31.9671 0.219624C31.4084 -0.0122108 30.5591 -0.0674095 29.9781 0.0871468ZM31.4084 0.771614C32.0342 0.94825 32.5817 1.44504 32.8388 2.06327C33.2522 3.02373 32.8499 4.2381 31.956 4.75697C31.1849 5.19856 30.5368 5.22064 29.7769 4.83425C29.2741 4.58033 29.1064 4.42578 28.8494 3.91795C28.2795 2.83605 28.5365 1.77623 29.5758 1.01449C29.8216 0.837852 30.3468 0.650177 30.7379 0.617058C30.805 0.606018 31.1067 0.683296 31.4084 0.771614ZM48.8184 2.64837C50.2599 3.02373 51.3439 4.33746 51.3439 5.73951C51.3439 6.82141 50.5281 8.11306 49.5224 8.63193C48.729 9.05145 47.4104 9.07352 46.6505 8.67609C45.9689 8.33386 45.4549 7.83707 45.1084 7.17468C44.8626 6.72205 44.8179 6.47918 44.8179 5.84991C44.8514 3.92899 45.9912 2.73669 48.0474 2.49382C48.1144 2.49382 48.4608 2.56005 48.8184 2.64837ZM12.3669 5.72847C13.0821 6.02655 13.6297 6.52333 13.9872 7.18572C14.4231 8.01371 14.5125 8.67609 14.3001 9.49303C13.7638 11.5023 11.7188 12.4738 9.77443 11.6348C8.02002 10.873 7.3272 8.52153 8.41113 6.96493C9.3051 5.68431 11.0148 5.1544 12.3669 5.72847ZM30.8944 10.7736C31.699 11.149 32.403 11.8445 32.7717 12.6173C33.0287 13.1582 33.0734 13.3901 33.0734 14.2401C33.0622 15.0792 33.0176 15.3331 32.7717 15.8519C32.4141 16.6137 31.766 17.2761 30.9838 17.6845C30.4474 17.9605 30.2798 17.9937 29.2741 17.9937C28.2572 17.9937 28.1007 17.9605 27.4973 17.6625C26.3799 17.1105 25.6312 16.0838 25.43 14.8473C25.1171 12.9706 26.1675 11.2815 28.0784 10.5749C28.7489 10.3321 30.1569 10.4314 30.8944 10.7736ZM60.8199 12.2419C62.7419 13.2245 62.3732 15.9844 60.2723 16.3708C58.4732 16.702 57.0652 14.9688 57.8139 13.3459C58.0486 12.8491 58.7191 12.2419 59.2219 12.0874C59.6354 11.9549 60.4176 12.0322 60.8199 12.2419ZM47.958 14.4609C48.9637 14.759 49.6677 15.8299 49.5001 16.8234C49.243 18.3359 47.5892 19.186 46.2371 18.5015C44.9408 17.8501 44.6391 16.15 45.6336 15.0571C46.0136 14.6376 46.6729 14.3064 47.1646 14.2953C47.2875 14.2953 47.6451 14.3726 47.958 14.4609ZM18.8594 16.0727C19.8539 16.3377 20.5802 17.4306 20.4797 18.5015C20.2785 20.5438 17.5184 21.2173 16.3116 19.5061C16.021 19.0866 15.9763 18.932 15.9763 18.2807C15.9763 17.6514 16.021 17.4638 16.278 17.0774C16.6244 16.5695 16.9373 16.3267 17.5743 16.1059C18.0883 15.9292 18.3118 15.9182 18.8594 16.0727ZM6.55615 17.8281C8.16529 18.3138 9.23805 19.5282 9.41685 21.0627C9.62916 22.8622 8.84694 24.3305 7.18193 25.1916C6.64555 25.4676 6.47793 25.5007 5.47222 25.5007C4.45533 25.5007 4.29889 25.4676 3.70664 25.1806C1.21471 23.9331 0.678326 20.7426 2.63388 18.8106C3.72899 17.7177 5.08111 17.3754 6.55615 17.8281ZM40.1022 21.7251C41.2532 22.5972 41.2197 24.3084 40.0352 25.0812C39.3982 25.5117 38.3925 25.5228 37.7891 25.1143C37.1968 24.7169 36.8728 24.0876 36.884 23.3369C36.8951 22.5641 37.1968 22.0342 37.8561 21.6368C38.5043 21.2394 39.51 21.2835 40.1022 21.7251ZM25.7653 22.5972C26.3799 22.7739 27.028 23.359 27.1956 23.8779C27.4303 24.5844 27.3185 25.5669 26.9386 26.0527C26.4916 26.6268 25.5641 27.0352 24.9272 26.9469C24.1673 26.8255 23.4856 26.3397 23.1392 25.6553C22.6811 24.75 22.804 23.9551 23.4968 23.2155C24.1338 22.5531 24.916 22.3433 25.7653 22.5972ZM54.0258 23.635C56.0707 24.2311 57.4117 26.3176 57.0541 28.3269C56.6406 30.6673 54.4392 32.2681 52.1708 31.8817C50.7069 31.6278 49.5224 30.7446 48.9078 29.4419C48.6508 28.8899 48.6061 28.6691 48.6061 27.7087C48.6061 26.7261 48.6396 26.5274 48.9302 25.9202C49.2654 25.1916 50.1035 24.2974 50.7963 23.9551C51.7797 23.4363 52.9753 23.3259 54.0258 23.635ZM66.1949 24.4961C66.7201 24.8604 67.2118 25.7436 67.2118 26.3176C67.2118 26.9359 66.7424 27.8191 66.2284 28.1503C64.3175 29.3977 61.8703 27.3223 62.9095 25.3351C63.513 24.187 65.1333 23.7785 66.1949 24.4961ZM34.649 30.1705C35.3977 30.5459 35.8671 31.1862 36.0235 32.0252C36.247 33.1844 35.7218 34.2442 34.6826 34.7631C32.3918 35.8891 30.0451 33.5708 31.1849 31.3187C31.833 30.027 33.364 29.5192 34.649 30.1705ZM19.0382 30.292C19.7198 30.6452 20.2562 31.1531 20.5914 31.7823C20.8373 32.257 20.8931 32.4889 20.8931 33.2285C20.8931 33.9682 20.8373 34.2 20.5914 34.6748C19.9992 35.7898 18.9376 36.419 17.6525 36.419C14.7248 36.408 13.3391 32.9194 15.4511 30.8881C16.3898 29.9829 17.9207 29.7289 19.0382 30.292ZM7.01431 30.7888C7.8524 31.0868 8.26586 31.7492 8.17647 32.6545C8.06472 33.8909 6.79082 34.6196 5.59514 34.1228C4.90232 33.8357 4.42181 32.9084 4.56708 32.1246C4.66765 31.6057 5.23755 30.9985 5.80746 30.7998C6.36619 30.6121 6.47793 30.6011 7.01431 30.7888ZM49.1872 35.6131C49.5783 35.7567 50.1929 36.3197 50.4164 36.7613C50.6063 37.1145 50.6399 38.0419 50.4722 38.4835C49.8353 40.1174 47.5222 40.3934 46.55 38.9472C45.7566 37.7659 46.0918 36.3528 47.3098 35.7125C47.7568 35.4807 48.6955 35.4255 49.1872 35.6131ZM63.6135 36.8165C64.2393 37.0925 64.9098 37.6997 65.2339 38.3068C65.4238 38.6601 65.4797 38.9472 65.4797 39.6868C65.4797 40.7577 65.2674 41.3097 64.5634 42.0272C63.2224 43.3962 60.7752 43.1864 59.6354 41.5967C58.3615 39.8193 59.2108 37.3133 61.3116 36.6398C61.9262 36.4411 62.9319 36.5184 63.6135 36.8165ZM35.353 39.8193C37.1074 40.6583 37.7444 42.9546 36.6493 44.5222C35.4201 46.2886 33.0176 46.4763 31.5872 44.9307C31.2631 44.5885 30.9503 44.1138 30.8497 43.8157C30.2239 41.9831 31.2967 40.0511 33.2075 39.5764C33.7998 39.4329 34.772 39.5433 35.353 39.8193ZM21.5524 40.8681C22.9493 41.8506 22.7481 43.9261 21.1837 44.7099C20.5691 45.019 19.5075 44.8976 18.9823 44.4781C18.39 44.0034 18.1665 43.6832 18.066 43.1091C17.9207 42.3143 18.0995 41.7181 18.6582 41.1661C19.2281 40.6031 19.6639 40.4486 20.4909 40.5148C20.9267 40.5479 21.2284 40.6473 21.5524 40.8681ZM45.7007 44.3346C47.2987 45.0742 47.7121 47.2491 46.5053 48.4966C46.0583 48.9602 45.7007 49.1479 44.9855 49.3025C42.9182 49.733 41.1862 47.4367 42.1695 45.56C42.4377 45.0411 43.0188 44.4891 43.5217 44.2794C44.1027 44.0254 45.0973 44.0586 45.7007 44.3346ZM42.5383 52.1838C42.773 52.3163 43.097 52.6144 43.2646 52.8573C43.5328 53.2437 43.5775 53.4093 43.5775 54.1048C43.5775 54.8113 43.544 54.9548 43.2423 55.3743C42.8512 55.9153 42.2589 56.2575 41.5661 56.3348C41.175 56.3679 40.9292 56.3238 40.4486 56.0809C39.7111 55.7276 39.2753 55.1535 39.1971 54.436C39.0965 53.5969 39.2418 53.1774 39.8229 52.6034C40.6274 51.8085 41.5885 51.6539 42.5383 52.1838ZM48.7849 56.0588C49.3771 56.4562 49.6677 56.9641 49.6677 57.6264C49.6677 59.4811 47.2987 60.1435 46.2371 58.5759C45.8013 57.9356 45.9242 56.8537 46.4941 56.3348C47.1534 55.7497 48.1479 55.6282 48.7849 56.0588Z" fill="#070707"/>
<path d="M30.2239 1.43403C30.2239 1.52235 30.3244 1.68795 30.4474 1.78731C30.7491 2.05226 30.7267 2.18474 30.3244 2.59321C30.0004 2.90232 29.978 2.9796 30.0227 3.49847C30.0898 4.14982 30.3803 4.46997 30.8943 4.46997C31.4084 4.46997 31.6989 4.14982 31.7548 3.52055C31.7995 3.05688 31.766 2.9244 31.5425 2.64841C31.386 2.46073 31.2296 2.18474 31.1849 2.0081C31.1514 1.8425 31.0173 1.61067 30.8943 1.48923C30.6262 1.22428 30.2239 1.2022 30.2239 1.43403ZM31.2072 3.32183C31.2296 3.61991 31.1849 3.81862 31.062 3.91798C30.805 4.12774 30.5591 3.86278 30.5591 3.36599C30.5591 2.89128 30.6373 2.79193 30.9502 2.83608C31.129 2.85816 31.1849 2.96856 31.2072 3.32183Z" fill="#070707"/>
<path d="M47.0974 4.13883C46.9745 4.26026 46.8739 4.48106 46.8739 4.63562C46.8739 4.85641 46.9298 4.91161 47.1645 4.91161C47.3544 4.91161 47.4774 4.84537 47.5109 4.69082C47.5444 4.5473 47.6673 4.47002 47.8349 4.47002C48.3937 4.47002 48.2707 4.95577 47.645 5.20969C46.8627 5.5188 46.561 6.22534 46.8851 6.94293C47.0304 7.25204 47.6003 7.56116 48.0137 7.56116C48.3937 7.56116 48.9859 7.16373 49.12 6.81045C49.2765 6.41302 49.1759 5.81687 48.8853 5.5188C48.6954 5.32008 48.673 5.22073 48.7736 4.97785C48.93 4.55834 48.9189 4.4921 48.606 4.19403C48.2484 3.82971 47.4327 3.80763 47.0974 4.13883ZM48.3266 5.90519C48.6172 6.19223 48.606 6.45718 48.3266 6.76629C48.0473 7.05333 47.9132 7.06437 47.6338 6.82149C47.388 6.6007 47.3768 6.14807 47.6226 5.88311C47.8573 5.6292 48.0473 5.6292 48.3266 5.90519Z" fill="#070707"/>
<path d="M10.3893 7.52786C10.4899 7.7597 10.7581 8.11297 11.0039 8.31168C11.3615 8.60976 11.4509 8.75327 11.4509 9.05135C11.4509 9.39358 11.2162 9.76893 11.0151 9.76893C10.7357 9.76893 10.5122 9.4267 10.5122 8.98511C10.501 8.5656 10.4675 8.5104 10.1882 8.43312C9.85292 8.3448 9.7747 8.42208 9.75235 8.89679C9.71883 9.4819 9.78587 9.74685 10.0541 10.0339C10.2776 10.2768 10.4117 10.3209 10.948 10.3209C11.4956 10.3209 11.6185 10.2768 11.909 10.0008C12.1661 9.73581 12.2331 9.58126 12.2331 9.17279C12.2331 8.5104 12.0655 8.17921 11.5515 7.84801C11.328 7.69346 11.1045 7.47266 11.0598 7.34018C11.0039 7.17459 10.8922 7.11939 10.6016 7.11939H10.2217L10.3893 7.52786Z" fill="#070707"/>
<path d="M28.6594 12.275C28.1566 12.4627 27.8884 13.0367 28.0895 13.5446C28.1789 13.7653 28.2571 13.8205 28.4806 13.7764C28.7153 13.7322 28.7712 13.655 28.7488 13.4231C28.7153 13.0257 28.8382 12.8601 29.1623 12.8601C29.5087 12.8601 29.5534 13.0257 29.5534 14.2953C29.5534 15.2778 29.531 15.3992 29.3299 15.5096C28.9723 15.6973 28.6594 15.4655 28.6594 15.0128C28.6594 14.6927 28.6147 14.6154 28.38 14.5602C28.0001 14.4609 27.9331 14.5492 27.9442 15.1453C27.9554 15.8739 28.2571 16.1168 29.1064 16.1168C29.6539 16.1168 29.8216 16.0727 30.0227 15.8629C30.2462 15.6421 30.2797 15.4876 30.3132 14.494C30.3691 13.125 30.235 12.5951 29.7769 12.3633C29.4528 12.1977 28.9723 12.1646 28.6594 12.275Z" fill="#070707"/>
<path d="M59.5013 12.7167C59.3113 12.783 59.0543 13.07 59.0543 13.2135C59.0543 13.346 59.546 13.3239 59.6913 13.1804C59.8924 12.9817 60.1718 13.1583 60.1718 13.4674C60.1718 13.6993 60.1159 13.7434 59.8477 13.7434C59.6689 13.7434 59.4119 13.8428 59.2666 13.9532C59.0432 14.1298 58.9985 14.2623 59.0096 14.737C59.0208 15.3884 59.1772 15.5981 59.7471 15.6975C60.0824 15.7416 60.2053 15.7085 60.44 15.4767C60.7082 15.2117 60.7305 15.1234 60.7305 14.1629C60.7305 13.5999 60.6858 13.081 60.6411 13.0038C60.4735 12.7499 59.8589 12.5843 59.5013 12.7167ZM60.1047 14.3617C60.3282 14.9357 60.0377 15.4877 59.6689 15.1786C59.3672 14.9247 59.4901 14.185 59.8365 14.185C59.9483 14.185 60.0712 14.2623 60.1047 14.3617Z" fill="#070707"/>
<path d="M47.5223 15.3331C47.3435 15.4325 47.1871 15.4546 47.1536 15.3883C47.1089 15.3331 46.9189 15.289 46.7066 15.289C46.2372 15.289 45.9802 15.6091 45.9802 16.2053C45.9802 16.6358 46.2708 17.2761 46.4607 17.2761C46.5166 17.2761 46.5054 17.3534 46.4272 17.4417C46.349 17.53 46.3155 17.6735 46.349 17.7729C46.4049 17.9164 46.4607 17.9164 46.7289 17.7508C47.0306 17.5852 47.0753 17.5852 47.4553 17.7619C47.6788 17.8723 47.9581 17.9385 48.0699 17.9164C48.2487 17.8833 48.2375 17.8612 48.014 17.6515C47.8799 17.519 47.567 17.3644 47.3212 17.2872C46.6395 17.0884 46.2261 16.2494 46.5837 15.7857C46.796 15.4987 46.9748 15.6643 47.0642 16.2384C47.1536 16.8345 47.377 17.0553 47.8799 17.0553C48.4275 17.0553 48.6063 16.8235 48.6063 16.1611C48.6063 15.3883 48.1257 15.024 47.5223 15.3331ZM48.1034 15.8961C48.2822 16.3488 47.9805 16.8345 47.6899 16.5917C47.5335 16.4702 47.4888 15.8189 47.6229 15.6974C47.7793 15.5429 48.0028 15.6312 48.1034 15.8961Z" fill="#070707"/>
<path d="M17.954 16.691C17.6188 16.7572 17.3283 17.1988 17.4177 17.541C17.4959 17.8722 17.8982 17.817 17.954 17.4527C17.9764 17.2871 18.0658 17.2209 18.2669 17.2209C18.4904 17.2209 18.5575 17.2871 18.5798 17.53C18.6133 17.7729 18.5686 17.8612 18.3899 17.9053C18.0881 17.9826 18.0881 18.3469 18.3787 18.4353C18.658 18.5236 18.7027 19.208 18.4345 19.3074C18.2222 19.3847 17.9317 19.2743 17.9205 19.1087C17.9093 19.0424 17.8982 18.91 17.887 18.8216C17.887 18.7333 17.7641 18.645 17.63 18.6229C17.0936 18.5457 17.2389 19.5061 17.7864 19.7159C18.144 19.8483 18.7698 19.7821 19.0045 19.5834C19.1944 19.4288 19.2168 18.4794 19.0268 18.2917C18.9262 18.1924 18.9262 18.1261 19.0268 18.0268C19.2279 17.8281 19.1944 17.2209 18.9709 16.967C18.7586 16.7241 18.3563 16.6247 17.954 16.691Z" fill="#070707"/>
<path d="M4.7797 19.2303C4.16509 19.3517 3.86338 20.3122 4.27684 20.8089C4.46681 21.0408 4.46681 21.107 4.32154 21.5155C4.14274 22.0344 4.20979 22.8071 4.46681 23.1935C4.88027 23.8118 6.13182 23.7455 6.54528 23.0831C6.91404 22.476 6.79112 21.2837 6.31061 20.9525C6.15417 20.8421 6.12064 20.7206 6.16534 20.4226C6.24357 19.9368 6.13182 19.5173 5.88598 19.3848C5.61779 19.2523 5.07023 19.1751 4.7797 19.2303ZM5.41665 20.0362C5.59544 20.3674 5.45017 20.7206 5.15963 20.6765C4.76852 20.6213 4.74617 19.8154 5.12611 19.8154C5.22668 19.8154 5.3496 19.9147 5.41665 20.0362ZM5.86363 21.5707C6.0536 21.935 5.99772 22.6305 5.75188 22.8513C5.48369 23.0942 5.22668 23.0059 5.07023 22.6084C4.92497 22.2441 5.01436 21.5817 5.2155 21.4493C5.46134 21.2947 5.74071 21.3499 5.86363 21.5707Z" fill="#070707"/>
<path d="M37.7109 22.5751C37.4204 22.8622 37.4204 23.3479 37.7221 23.7233C37.845 23.8778 37.9232 24.0545 37.8897 24.1097C37.8562 24.1649 37.9009 24.2642 37.9791 24.3305C38.0908 24.4188 38.1579 24.4298 38.2138 24.3415C38.3143 24.1759 38.7948 24.209 39.2307 24.4077C39.4318 24.5071 39.6665 24.5623 39.7335 24.5402C39.9682 24.4629 39.3759 24.0213 38.9513 23.9441C38.7278 23.8999 38.4037 23.8005 38.2361 23.7122C37.9679 23.5798 37.9232 23.5025 37.9568 23.1492C38.0015 22.6193 38.3143 22.5862 38.359 23.094C38.3814 23.3148 38.4596 23.4583 38.549 23.4583C38.6384 23.4583 38.7166 23.3148 38.739 23.094C38.7613 22.8732 38.8284 22.7407 38.9401 22.7407C39.0519 22.7407 39.1189 22.8732 39.1413 23.094C39.186 23.5246 39.4988 23.6018 39.4988 23.1934C39.4988 22.829 39.7559 22.6303 39.9458 22.8511C40.0576 22.9836 40.0576 23.083 39.957 23.3038C39.7894 23.6681 39.8006 23.6791 40.0464 23.6791C40.2811 23.6791 40.3928 23.4694 40.3928 23.0057C40.3928 22.5751 39.9458 22.266 39.5659 22.4427C39.3759 22.5199 39.2642 22.5199 39.1748 22.4316C39.0966 22.3543 38.9848 22.3543 38.7948 22.4316C38.6384 22.5089 38.4708 22.5199 38.3702 22.4537C38.1244 22.2991 37.9568 22.3323 37.7109 22.5751Z" fill="#070707"/>
<path d="M24.9717 23.4143C24.9717 23.5136 25.0835 23.6792 25.2176 23.7786C25.5193 24.0325 25.4187 24.3416 25.0276 24.3416C24.6142 24.3416 24.6365 24.7611 25.0611 24.8053C25.2958 24.8273 25.374 24.9046 25.3964 25.1585C25.4187 25.3352 25.374 25.5118 25.2958 25.567C25.0835 25.6884 24.7706 25.4897 24.7259 25.2027C24.7036 25.0592 24.603 24.9377 24.5024 24.9157C24.346 24.8825 24.3013 24.9598 24.3013 25.2579C24.3013 25.7326 24.5918 25.9976 25.117 25.9976C25.8434 25.9976 26.2233 25.291 25.821 24.7169C25.6869 24.5403 25.6869 24.463 25.8098 24.3085C25.9998 24.0435 25.8992 23.7234 25.5528 23.4584C25.2176 23.1935 24.9717 23.1714 24.9717 23.4143Z" fill="#070707"/>
<path d="M51.556 25.6553C51.299 25.865 51.2878 25.9202 51.2878 27.5651C51.2878 29.0334 51.3102 29.2984 51.5002 29.5523C51.9136 30.1595 53.1093 30.2147 53.6233 29.6517C54.0815 29.1549 54.0144 27.7087 53.5228 27.2119C53.2993 26.9911 53.1316 26.9469 52.6288 26.9469H52.003L52.0365 26.5495L52.0701 26.1631L52.8299 26.13C53.5786 26.0969 53.5786 26.0969 53.5786 25.7767V25.4455H52.6958C51.9918 25.4455 51.7572 25.4897 51.556 25.6553ZM53.0199 27.8632C53.2099 28.2275 53.154 28.9562 52.9082 29.199C52.64 29.464 52.5282 29.475 52.3047 29.2432C52.0477 29.0003 52.0254 28.073 52.26 27.7859C52.4388 27.5762 52.8858 27.6314 53.0199 27.8632Z" fill="#070707"/>
<path d="M64.418 24.8383C64.418 24.9377 64.5968 25.1143 64.8091 25.2468C65.2561 25.5007 65.2896 25.8098 64.8873 25.865C64.5744 25.9092 64.5409 26.3287 64.8538 26.3287C65.312 26.3287 65.4796 27.1125 65.0661 27.3665C64.8091 27.521 64.5968 27.3113 64.5856 26.9028C64.5856 26.682 64.5186 26.5937 64.3398 26.5716C64.1051 26.5385 64.0828 26.5826 64.0828 26.958C64.0828 27.2009 64.1498 27.4768 64.228 27.5762C64.4292 27.8632 65.1332 27.9405 65.4684 27.7197C65.8483 27.4768 65.9713 26.8365 65.7143 26.406C65.5802 26.1631 65.5578 26.0417 65.6472 25.9313C65.8483 25.6994 65.7366 25.1916 65.4461 25.0481C65.3008 24.9819 65.122 24.8604 65.055 24.7942C64.865 24.6065 64.418 24.6396 64.418 24.8383Z" fill="#070707"/>
<path d="M32.0117 31.3849C31.6206 31.7051 31.5647 32.7318 31.9223 33.339C32.1458 33.7143 32.2464 33.7806 32.5928 33.8137L33.0062 33.8468L32.671 33.2396C32.3022 32.5662 32.2687 32.0032 32.5928 31.8155C32.8833 31.6278 33.1291 31.9148 33.1291 32.4116C33.1291 32.8201 33.1515 32.8422 33.4644 32.8422C33.7773 32.8422 33.7996 32.8201 33.7996 32.4116C33.7996 31.9148 34.0455 31.6278 34.336 31.8155C34.6601 32.0032 34.6265 32.5662 34.2578 33.2396L33.9225 33.8468L34.336 33.8137C34.6824 33.7806 34.783 33.7143 35.0065 33.339C35.2076 32.9857 35.2523 32.7759 35.2188 32.246C35.1629 31.396 34.8947 31.1421 34.1349 31.2304C33.8555 31.2635 33.5538 31.2966 33.4644 31.2966C33.375 31.2966 33.0733 31.2635 32.7939 31.2304C32.3916 31.1862 32.224 31.2083 32.0117 31.3849Z" fill="#070707"/>
<path d="M17.1608 31.5506C16.535 31.7714 16.3115 32.1798 16.3115 33.0961C16.3227 33.5377 16.3897 34.0787 16.468 34.2995C16.5909 34.6748 16.6468 34.719 16.982 34.719H17.3508L17.2502 34.2995C17.1049 33.6923 17.1273 32.4669 17.2837 32.3123C17.5296 32.0694 17.9318 32.1578 18.0548 32.4779C18.1777 32.776 18.1218 33.9572 17.9765 34.4651C17.9095 34.6969 17.943 34.719 18.3006 34.719C18.6694 34.719 18.7141 34.6859 18.8146 34.2995C18.9711 33.7806 18.9711 32.5 18.8258 32.1357C18.6247 31.5947 17.8201 31.3187 17.1608 31.5506Z" fill="#070707"/>
<path d="M5.28222 31.8155C5.09225 32.0474 5.09225 32.8643 5.2934 33.0961C5.48336 33.339 6.12032 33.339 6.32146 33.1072C6.39968 33.0078 6.48908 32.7318 6.5226 32.4779C6.5673 32.1578 6.64552 32.0032 6.79079 31.9811C6.94723 31.948 6.98076 32.0253 6.98076 32.3675C6.98076 32.5993 6.90254 32.9085 6.80196 33.0409C6.64552 33.2728 6.64552 33.2838 6.90254 33.2838C7.37187 33.2838 7.64006 32.1798 7.26012 31.8155C7.02546 31.5726 5.48336 31.5837 5.28222 31.8155ZM6.03092 32.4558C6.03092 32.9526 5.71803 33.1513 5.58394 32.7318C5.47219 32.3675 5.61746 31.937 5.84095 31.9811C5.98622 32.0032 6.03092 32.1246 6.03092 32.4558Z" fill="#070707"/>
<path d="M47.0305 36.7614C46.8964 36.9601 46.8629 37.1809 46.9076 37.5452C46.9746 38.1635 47.064 38.2518 47.6339 38.3291C48.1703 38.3953 48.5502 38.0972 48.5502 37.6004C48.5502 37.1368 48.662 36.927 48.8967 36.927C49.0531 36.927 49.109 37.0043 49.109 37.2582C49.109 37.4569 49.0419 37.6225 48.9414 37.6556C48.852 37.6998 48.7737 37.8102 48.7737 37.9206C48.7737 38.031 48.852 38.1414 48.9414 38.1855C49.2095 38.2849 49.1425 38.6823 48.8296 38.8258C48.6173 38.9142 48.4832 38.9142 48.2709 38.8258C47.9245 38.6713 47.5445 38.6492 47.5445 38.7927C47.5445 39.0798 47.9245 39.2454 48.5502 39.2454C49.3995 39.2454 49.5671 39.0798 49.556 38.318C49.5448 38.0089 49.5783 37.5894 49.623 37.3907C49.7683 36.6841 49.109 36.2425 48.4385 36.5958C48.2932 36.6731 48.2038 36.6731 48.1591 36.5958C48.1256 36.5406 47.8909 36.4854 47.6563 36.4854C47.3099 36.4854 47.1758 36.5406 47.0305 36.7614ZM48.0697 37.2361C48.148 37.5784 47.9803 37.8654 47.701 37.8654C47.5334 37.8654 47.4775 37.766 47.4551 37.4348C47.3993 36.7835 47.9133 36.6179 48.0697 37.2361Z" fill="#070707"/>
<path d="M62.0493 38.0087C61.1777 38.1522 61.0659 38.1964 61.0659 38.4061C61.0771 38.5496 61.2224 38.7263 61.4347 38.8588C61.8928 39.1458 61.8928 39.3776 61.4347 39.5211C61.133 39.5984 61.0659 39.6757 61.0659 39.9407C61.0659 40.2387 61.0883 40.2498 61.4347 40.1835C62.2169 40.0179 62.5745 39.5211 62.3063 38.9581C62.1387 38.5938 62.1499 38.5828 62.4069 38.5828C62.6192 38.5828 62.6304 38.66 62.6304 39.6757C62.6304 40.2829 62.5968 40.8459 62.5633 40.9453C62.4627 41.2102 61.837 41.1771 61.7699 40.9011C61.6805 40.581 61.0659 40.592 61.0659 40.9122C61.0659 41.2875 61.2671 41.5414 61.6917 41.6739C62.1834 41.8395 62.7086 41.7401 63.0438 41.431C63.2897 41.1992 63.3008 41.1219 63.3008 39.4991C63.3008 38.2185 63.2673 37.81 63.1667 37.821C63.0885 37.8321 62.5857 37.9093 62.0493 38.0087Z" fill="#070707"/>
<path d="M32.459 40.7907C32.459 41.0667 32.5037 41.1219 32.716 41.1219C33.0736 41.1219 33.2412 41.3207 33.2412 41.7622C33.2412 42.0934 33.2636 42.1266 33.5541 42.0934C33.7999 42.0714 33.867 41.9941 33.8893 41.7291C33.9117 41.5414 33.9899 41.3317 34.0569 41.2544C34.314 40.9343 34.4704 41.4421 34.4704 42.6344C34.4704 43.628 34.4369 43.8046 34.2469 43.9923C33.9787 44.2572 33.9117 44.2572 33.6211 44.0585C33.4647 43.9481 33.4088 43.7715 33.4088 43.4292C33.4088 43.0097 33.3753 42.9325 33.1071 42.8441C32.9395 42.7889 32.7607 42.7779 32.716 42.8221C32.6713 42.8662 32.6378 43.1864 32.6266 43.5396C32.6266 44.3014 32.8277 44.5995 33.487 44.7651C34.0681 44.9307 34.7498 44.743 34.9956 44.3566C35.2415 43.9812 35.342 41.961 35.1409 41.2544C35.0403 40.857 34.9397 40.7466 34.6045 40.6031C34.2357 40.4485 34.1575 40.4485 33.8893 40.6031C33.6211 40.7576 33.5429 40.7576 33.2747 40.6251C33.0959 40.5368 32.8501 40.4595 32.716 40.4595C32.5037 40.4595 32.459 40.5258 32.459 40.7907Z" fill="#070707"/>
<path d="M20.2784 41.5085C20.2784 41.8728 20.2561 41.8949 19.8873 41.8949C19.4515 41.8949 19.2168 42.193 19.3174 42.6235C19.4068 42.9547 19.7197 42.8553 19.7197 42.491C19.7197 42.3034 19.7867 42.2261 19.932 42.2261C20.2114 42.2261 20.2784 42.4358 20.2784 43.2197C20.2784 43.7054 20.2337 43.871 20.0996 43.9262C19.8538 44.0256 19.7197 43.9152 19.7197 43.595C19.7197 43.4073 19.6638 43.3301 19.4962 43.3301C19.1833 43.3301 19.1721 44.0476 19.485 44.2132C19.8314 44.3899 20.2561 44.3457 20.5019 44.1028C20.703 43.9041 20.7254 43.7385 20.7254 42.5021C20.7254 41.1994 20.7142 41.1221 20.5019 41.1221C20.3231 41.1221 20.2784 41.1994 20.2784 41.5085Z" fill="#070707"/>
<path d="M44.5385 45.0963C43.7786 45.3502 43.421 45.6151 43.1081 46.1561C42.5829 47.0503 42.907 48.4082 43.6333 48.4082H43.9686L43.6892 47.8562C43.3763 47.238 43.3316 46.8406 43.5774 46.6418C43.8456 46.421 44.0691 46.5977 44.1474 47.0834C44.2032 47.4036 44.2703 47.525 44.4155 47.525C44.5608 47.525 44.639 47.4036 44.6949 47.0724C44.7843 46.5866 44.9854 46.421 45.2536 46.6418C45.4995 46.8406 45.4548 47.238 45.1419 47.8562L44.8625 48.4082H45.1978C45.6671 48.4082 45.98 47.8893 45.98 47.1055C45.98 46.3879 45.7341 46.0899 45.1084 46.0899C44.8737 46.0899 44.6279 46.145 44.572 46.2002C44.4602 46.3106 43.8568 46.1119 43.8568 45.9684C43.8568 45.8801 44.3038 45.6814 44.8514 45.5379C45.2983 45.4275 45.3989 45.2839 45.2201 45.019C45.1642 44.9196 44.9854 44.9417 44.5385 45.0963Z" fill="#070707"/>
<path d="M41.1753 52.6033C41.1753 52.7799 41.1306 52.9345 41.0747 52.9345C41.0188 52.9345 40.8177 53.0559 40.6277 53.2105C40.0466 53.6962 40.0355 55.0099 40.6165 55.5288C40.9741 55.849 41.7899 55.8048 42.1475 55.4515C42.7509 54.8554 42.5944 53.4092 41.9016 53.078C41.5664 52.9234 41.5329 52.8572 41.5887 52.5812C41.6446 52.3162 41.6111 52.2721 41.4099 52.2721C41.22 52.2721 41.1753 52.3383 41.1753 52.6033ZM41.4099 54.3696C41.5887 54.3696 41.6223 54.2924 41.6223 53.8397C41.6334 53.365 41.6446 53.3319 41.7899 53.5306C42.0469 53.8618 42.0134 54.8664 41.734 55.1424C41.2535 55.6171 40.7283 55.2307 40.7283 54.3917C40.7283 54.0716 40.8065 53.7624 40.9294 53.5968L41.1194 53.3209L41.1529 53.8397C41.1864 54.2813 41.22 54.3696 41.4099 54.3696Z" fill="#070707"/>
<path d="M47.2095 57.3835C47.2095 58.631 47.3436 58.896 47.9805 58.896C48.4722 58.896 48.6286 58.7525 48.7292 58.2446C48.7851 57.9687 48.7404 57.8141 48.5616 57.5602C48.4275 57.3835 48.3716 57.24 48.4387 57.24C48.5169 57.24 48.5169 57.1738 48.4387 57.0082C48.3381 56.8316 48.2822 56.8095 48.1481 56.9199C47.947 57.0855 47.947 57.2842 48.1705 57.7037C48.3716 58.0791 48.2487 58.5648 47.947 58.5648C47.7123 58.5648 47.6565 58.3109 47.6565 57.2842C47.6565 56.4341 47.6341 56.3568 47.433 56.3568C47.2206 56.3568 47.2095 56.4341 47.2095 57.3835Z" fill="#070707"/>
</svg>
