<svg width="182" height="62" viewBox="0 0 182 62" fill="none" xmlns="http://www.w3.org/2000/svg">
<path d="M43.8364 24.4768C43.8384 27.1296 43.2696 29.7517 42.1688 32.1644C41.3187 34.0255 40.1687 35.7337 38.7649 37.2206C38.322 37.6031 37.9006 38.0099 37.5028 38.4392C35.5054 40.5788 34.1318 43.2261 33.5312 46.0932C33.5207 46.1479 33.5083 46.2009 33.4995 46.2557C33.4907 46.3104 33.4854 46.3193 33.4801 46.351C33.4572 46.4764 33.4343 46.6001 33.4131 46.7254C33.3059 47.0067 33.1037 47.2414 32.8416 47.3887C32.5796 47.5361 32.2743 47.5867 31.9788 47.5319C31.6833 47.4771 31.4164 47.3203 31.2243 47.0888C31.0323 46.8572 30.9273 46.5656 30.9276 46.2645C30.9269 46.1983 30.9316 46.1321 30.9417 46.0667L30.9523 46.0031C31.2253 44.5105 31.6824 43.0577 32.3132 41.6781C33.1627 39.8201 34.3109 38.1144 35.7118 36.629C36.1576 36.2435 36.5819 35.8338 36.9827 35.4016C39.7506 32.44 41.2897 28.534 41.2874 24.4768C41.2874 15.5777 34.0231 8.36341 25.0612 8.36341C16.0993 8.36341 8.83316 15.5777 8.83316 24.4768C8.83064 28.5279 10.3635 32.4288 13.122 35.391C13.5509 35.8534 14.0065 36.2904 14.4863 36.6996C15.877 38.1716 17.0179 39.8617 17.8638 41.7028C18.4821 43.0433 18.9355 44.4541 19.2141 45.9042C19.2299 45.9855 19.2458 46.0685 19.2599 46.1532C19.2626 46.1897 19.2626 46.2263 19.2599 46.2627C19.259 46.6042 19.123 46.9314 18.8819 47.1727C18.6407 47.414 18.3139 47.5497 17.9731 47.5502C17.7077 47.5502 17.4488 47.4681 17.2317 47.3151C17.0146 47.1621 16.85 46.9457 16.7603 46.6954C16.7427 46.5948 16.725 46.4941 16.7057 46.3917C16.7057 46.3634 16.6933 46.3369 16.688 46.3087C16.1071 43.3892 14.7243 40.69 12.6954 38.5151C12.274 38.0597 11.8261 37.6298 11.3539 37.2277C9.96086 35.7525 8.81818 34.0588 7.97116 32.2139C6.8561 29.7877 6.2805 27.1478 6.2842 24.4768C6.2842 14.179 14.6891 5.8309 25.0594 5.8309C35.4297 5.8309 43.8364 14.179 43.8364 24.4768Z" fill="#005CB8"/>
<path d="M50.1013 25.0667C50.1047 28.7138 49.3128 32.3177 47.7809 35.6263C46.2491 38.9349 44.0143 41.8682 41.2328 44.2212C41.1552 44.2901 41.0759 44.3554 40.9966 44.4208C40.7657 44.559 40.4918 44.6066 40.2279 44.5543C39.964 44.5021 39.7288 44.3537 39.5677 44.1379C39.4066 43.922 39.3311 43.654 39.3557 43.3857C39.3803 43.1173 39.5033 42.8676 39.701 42.6847C39.7155 42.6715 39.7308 42.6592 39.7468 42.6477L39.7627 42.6335C42.6906 40.1968 44.9732 37.074 46.4083 33.5419C47.827 30.0324 48.363 26.2273 47.9691 22.4614C47.5752 18.6956 46.2635 15.0844 44.1494 11.9458C42.0353 8.80713 39.1836 6.23717 35.8452 4.46204C32.5068 2.68691 28.7842 1.76103 25.0047 1.76587C21.2253 1.77071 17.505 2.70613 14.1712 4.48981C10.8374 6.27349 7.99222 8.85075 5.88613 11.9948C3.78003 15.1389 2.47754 18.7534 2.09326 22.5202C1.70898 26.287 2.25471 30.0908 3.6824 33.5967C5.1114 37.0922 7.37236 40.1844 10.2681 42.6035C10.3368 42.6618 10.4056 42.7201 10.4761 42.7801C10.6644 42.9797 10.7697 43.2437 10.7705 43.5183C10.7689 43.6627 10.7388 43.8054 10.6821 43.9382C10.6254 44.0709 10.5432 44.1912 10.44 44.2921C10.3369 44.393 10.2149 44.4725 10.081 44.5261C9.94716 44.5797 9.80407 44.6063 9.65993 44.6044C9.47533 44.6039 9.29372 44.5578 9.13111 44.4702C9.01476 44.3748 8.89842 44.2777 8.77855 44.1788C5.58422 41.4447 3.12759 37.9495 1.63473 34.0149C0.141877 30.0804 -0.339256 25.8329 0.23561 21.6633C0.810477 17.4936 2.42288 13.5358 4.92443 10.1541C7.42599 6.77231 10.7363 4.0752 14.5509 2.31094C18.3654 0.546683 22.5616 -0.228046 26.7533 0.0580414C30.9449 0.344129 34.9975 1.68184 38.5379 3.94809C42.0784 6.21433 44.9931 9.33631 47.0137 13.0267C49.0344 16.7171 50.0961 20.8575 50.1013 25.0667Z" fill="#005CB8"/>
<path d="M44.9894 50.4024C44.9894 50.5897 44.9245 50.7713 44.8059 50.9162C44.6874 51.0611 44.5223 51.1603 44.3389 51.1971C44.1944 51.1829 44.0498 51.1706 43.9035 51.16C43.1608 51.1046 42.4111 51.077 41.6542 51.077C36.1812 51.0663 30.8104 52.5618 26.1278 55.4003C25.7559 55.6263 25.3892 55.8612 25.0279 56.1067C24.6277 55.84 24.2188 55.5769 23.8045 55.3331C19.1515 52.5384 13.8266 51.0664 8.40147 51.0752C7.46838 51.0752 6.54704 51.1176 5.63745 51.2024C5.42416 51.2218 5.21086 51.243 4.99933 51.266C4.83791 51.2162 4.69544 51.1183 4.59085 50.9855C4.48626 50.8526 4.4245 50.691 4.41379 50.5222C4.40307 50.3533 4.44391 50.1851 4.53087 50.0401C4.61783 49.895 4.74679 49.7799 4.90062 49.7101C5.07689 49.6906 5.25317 49.673 5.42945 49.6571C6.36959 49.5652 7.32618 49.5199 8.29923 49.5211C14.2165 49.5113 20.0033 51.2625 24.9256 54.5526C29.8481 51.2627 35.6348 49.5115 41.552 49.5211C42.3746 49.5211 43.1849 49.5535 43.9829 49.6182C44.168 49.6324 44.3513 49.6482 44.5346 49.6677C44.672 49.7345 44.7877 49.839 44.8682 49.969C44.9487 50.0991 44.9907 50.2493 44.9894 50.4024Z" fill="#005CB8"/>
<path d="M48.3175 56.4352C48.3175 56.7888 48.1773 57.128 47.9277 57.378C47.6781 57.6281 47.3396 57.7685 46.9866 57.7685C46.9526 57.7704 46.9184 57.7704 46.8844 57.7685L46.6394 57.7262C44.9292 57.4381 43.1981 57.2928 41.4639 57.2917C36.6464 57.2845 31.8935 58.4019 27.5821 60.5554C26.6972 60.9969 25.8382 61.4784 25.005 62C24.1706 61.4784 23.311 60.9969 22.426 60.5554C18.1147 58.4017 13.3618 57.2843 8.54428 57.2917C6.78218 57.2911 5.02317 57.4393 3.28595 57.735L3.03035 57.7791C2.99806 57.7809 2.96569 57.7809 2.9334 57.7791C2.60348 57.7802 2.28497 57.6583 2.03981 57.4371C1.79465 57.2159 1.64035 56.9113 1.60694 56.5824C1.57352 56.2536 1.66337 55.9241 1.85901 55.6579C2.05465 55.3918 2.3421 55.208 2.66546 55.1424C2.69101 55.1362 2.71691 55.1315 2.74302 55.1283C4.65938 54.7944 6.60091 54.6266 8.54604 54.6268C14.3123 54.6181 19.9829 56.1038 25.0067 58.9394C31.7368 55.1577 39.559 53.806 47.1647 55.1107L47.2616 55.1265C47.5611 55.1896 47.8297 55.3542 48.022 55.5926C48.2144 55.831 48.3188 56.1286 48.3175 56.4352Z" fill="#005CB8"/>
<path d="M59.2163 20.0438V10.1787C59.2163 9.12964 59.4819 8.3202 60.0131 7.75036C60.5419 7.18169 61.3087 6.89735 62.3047 6.89735C63.3006 6.89735 64.0868 7.18169 64.6174 7.75036C65.148 8.31902 65.4142 9.12964 65.4142 10.1787V20.0438H63.3817V10.0497C63.3817 9.57998 63.2848 9.2462 63.0944 9.0484C62.991 8.94716 62.8677 8.86851 62.7323 8.81744C62.597 8.76637 62.4526 8.74398 62.3082 8.7517C62.1665 8.74473 62.025 8.76753 61.8926 8.81862C61.7602 8.86972 61.64 8.94799 61.5396 9.0484C61.3469 9.2462 61.2511 9.57998 61.2523 10.0497V20.0438H59.2163Z" fill="#005CB8"/>
<path d="M70.1965 11.8302C70.5646 11.8272 70.9306 11.8869 71.2788 12.0068C71.6277 12.1288 71.9463 12.3245 72.2131 12.5807C72.5019 12.8671 72.726 13.2122 72.8706 13.5927C73.0482 14.0757 73.1325 14.5881 73.1191 15.1027V16.9023C73.1191 17.9536 72.8541 18.7601 72.3241 19.3217C71.7941 19.8833 71.0226 20.1647 70.0096 20.1659C68.9978 20.1659 68.2269 19.8845 67.6969 19.3217C67.1669 18.759 66.9019 17.9525 66.9019 16.9023V10.1913C66.9019 9.13989 67.1604 8.32987 67.6775 7.7612C68.1957 7.1943 68.9555 6.9082 69.955 6.9082C70.15 6.90885 70.3449 6.92123 70.5384 6.94529C70.7412 6.97178 70.9544 6.99297 71.1766 7.01063C71.3987 7.02829 71.6261 7.03889 71.8605 7.03889C72.0852 7.03866 72.3093 7.01379 72.5286 6.96471V8.78197C72.3352 8.83556 72.1351 8.86055 71.9345 8.85615C71.8553 8.86864 71.7751 8.87454 71.6948 8.87381C71.5344 8.87381 71.374 8.87381 71.2136 8.85615C70.9668 8.84379 70.7359 8.82789 70.5191 8.81023C70.3022 8.79257 70.133 8.78197 70.0096 8.78197C69.8705 8.77668 69.7317 8.79943 69.6015 8.84887C69.4713 8.89832 69.3523 8.97347 69.2516 9.06984C69.0542 9.26057 68.9555 9.59082 68.9555 10.0606V12.2558C69.2111 11.9715 69.6236 11.8302 70.1965 11.8302ZM71.0655 14.9826C71.0655 14.5116 70.9697 14.1778 70.7782 13.9812C70.568 13.7901 70.2943 13.6842 70.0105 13.6842C69.7267 13.6842 69.453 13.7901 69.2428 13.9812C69.0501 14.179 68.9543 14.5128 68.9555 14.9826V17.04C68.9555 17.5109 69.0513 17.8447 69.2428 18.0413C69.453 18.2325 69.7267 18.3383 70.0105 18.3383C70.2943 18.3383 70.568 18.2325 70.7782 18.0413C70.9697 17.8459 71.0655 17.5121 71.0655 17.04V14.9826Z" fill="#005CB8"/>
<path d="M79.0387 11.2738C79.5972 11.4662 80.0674 11.8545 80.3625 12.367C80.6852 12.9702 80.8416 13.6487 80.8155 14.3326V16.911C80.8155 17.9624 80.5476 18.7689 80.0117 19.3305C79.4758 19.8921 78.7073 20.1735 77.706 20.1747C76.6942 20.1747 75.9233 19.8933 75.3933 19.3305C74.8633 18.7678 74.6 17.9613 74.6036 16.911V14.3326C74.6036 13.4425 74.7922 12.732 75.1694 12.201C75.5628 11.658 76.1488 11.2864 76.807 11.1626C76.9074 10.999 77.0357 10.8543 77.186 10.7352C77.3411 10.6133 77.4892 10.4915 77.6302 10.382C77.7592 10.2731 77.8773 10.1518 77.9828 10.0199C78.0824 9.89345 78.1348 9.73601 78.1308 9.57489V9.53781C78.1433 9.34482 78.1018 9.15217 78.011 8.9815C77.9605 8.91565 77.8939 8.86397 77.8176 8.83148C77.7413 8.79899 77.6579 8.78679 77.5756 8.79607C77.495 8.78646 77.4133 8.79655 77.3375 8.82546C77.2617 8.85437 77.194 8.90124 77.1402 8.96208C77.0444 9.13794 77.0027 9.33825 77.0203 9.53781V9.83627H75.1148V9.53958C75.1148 8.69894 75.3281 8.05139 75.7546 7.59693C76.1812 7.14246 76.7888 6.91641 77.5773 6.91877C78.3541 6.91877 78.9587 7.15071 79.3912 7.61459C79.8237 8.07847 80.0393 8.71836 80.0382 9.53428V9.58903C80.0449 9.80174 80.007 10.0135 79.9271 10.2107C79.8599 10.3667 79.7728 10.5133 79.668 10.6469C79.5714 10.7683 79.4634 10.8801 79.3454 10.9807C79.2358 11.0703 79.1332 11.1684 79.0387 11.2738ZM78.7619 14.2037C78.7619 13.7339 78.665 13.4037 78.4746 13.2112C78.2618 13.0255 77.9891 12.9232 77.7069 12.9232C77.4247 12.9232 77.152 13.0255 76.9392 13.2112C76.7477 13.4031 76.6519 13.7339 76.6519 14.2037V17.04C76.6519 17.5109 76.7477 17.8447 76.9392 18.0413C77.1494 18.2324 77.4231 18.3383 77.7069 18.3383C77.9907 18.3383 78.2644 18.2324 78.4746 18.0413C78.665 17.8453 78.7619 17.5115 78.7619 17.04V14.2037Z" fill="#005CB8"/>
<path d="M85.004 16.1694C85.4107 16.408 85.7922 16.6873 86.1427 17.0029C86.4684 17.2971 86.7599 17.6271 87.0118 17.9866C87.2417 18.3131 87.4345 18.6644 87.5864 19.0339C87.7163 19.3566 87.7965 19.6972 87.8244 20.0441H85.7761C85.6579 19.5835 85.4366 19.1559 85.1291 18.7937C84.8499 18.4674 84.5143 18.194 84.1384 17.9866C83.7825 17.7918 83.3982 17.6542 82.9997 17.5787C82.7499 17.5301 82.4961 17.5053 82.2417 17.5045C82.1183 17.5045 82.0002 17.5045 81.8892 17.5222V15.4877C81.9751 15.4765 82.0616 15.4706 82.1483 15.47H82.4074C82.3296 15.2495 82.292 15.0168 82.2964 14.783V10.1913C82.2964 9.14228 82.5649 8.33284 83.1019 7.763C83.639 7.19315 84.407 6.90881 85.4059 6.90999C86.406 6.90999 87.1698 7.19433 87.6975 7.763C88.2251 8.33166 88.4907 9.1411 88.4942 10.1913V13.5291H86.4618V10.05C86.4618 9.58025 86.3648 9.24647 86.1744 9.04868C85.9638 8.85781 85.6899 8.75213 85.4059 8.75213C85.1219 8.75213 84.848 8.85781 84.6373 9.04868C84.4469 9.24647 84.3517 9.58025 84.3517 10.05V15.2599C84.3523 15.3647 84.3708 15.4686 84.4064 15.5672C84.4456 15.6791 84.5054 15.7827 84.5827 15.8727C84.6957 15.992 84.8272 16.0922 84.9722 16.1694H85.004Z" fill="#005CB8"/>
<path d="M89.9785 20.044V10.1789C89.9785 9.12987 90.2435 8.32043 90.7735 7.75059C91.3035 7.18075 92.0674 6.89641 93.0651 6.89759C94.0769 6.89759 94.8484 7.18192 95.3796 7.75059C95.9108 8.31926 96.1758 9.12869 96.1746 10.1789V20.044H94.1422V10.05C94.1422 9.57903 94.0464 9.24525 93.8548 9.04863C93.7515 8.94721 93.6283 8.86845 93.4929 8.81737C93.3576 8.76629 93.2131 8.744 93.0686 8.75193C92.927 8.74529 92.7855 8.76824 92.6532 8.81931C92.5209 8.87039 92.4007 8.94849 92.3001 9.04863C92.1097 9.24643 92.0145 9.58021 92.0145 10.05V20.044H89.9785Z" fill="#005CB8"/>
<path d="M101.824 12.5154H103.865V16.9111C103.865 17.9625 103.6 18.769 103.07 19.3306C102.54 19.8922 101.769 20.1735 100.757 20.1747C99.7574 20.1747 98.9936 19.8933 98.4659 19.3306C97.9383 18.7678 97.6732 17.9613 97.6709 16.9111V7.04594H99.7069V17.04C99.7069 17.5109 99.8027 17.8447 99.9942 18.0413C100.095 18.1418 100.215 18.22 100.347 18.2711C100.48 18.3222 100.621 18.345 100.763 18.338C100.906 18.3438 101.048 18.3205 101.182 18.2695C101.315 18.2185 101.437 18.1409 101.54 18.0413C101.736 17.8453 101.836 17.5115 101.836 17.04L101.824 12.5154Z" fill="#005CB8"/>
<path d="M109.078 6.91529C110.028 6.91529 110.68 7.2014 111.031 7.7683C111.382 8.3352 111.56 9.14757 111.56 10.1984V16.9093C111.56 17.9607 111.295 18.7672 110.765 19.3288C110.235 19.8904 109.463 20.1724 108.449 20.1748C107.437 20.1748 106.666 19.8934 106.136 19.3306C105.606 18.7678 105.34 17.9613 105.339 16.9111V15.4082H107.391V17.04C107.391 17.511 107.487 17.8448 107.678 18.0414C107.888 18.2325 108.162 18.3384 108.446 18.3384C108.73 18.3384 109.003 18.2325 109.214 18.0414C109.406 17.8459 109.502 17.5122 109.501 17.04V10.0677C109.517 9.73415 109.483 9.40005 109.399 9.07694C109.37 8.98622 109.311 8.90812 109.232 8.85571C109.153 8.80331 109.058 8.77978 108.963 8.78907C108.872 8.78209 108.78 8.80686 108.704 8.85926C108.629 8.91165 108.573 8.98849 108.547 9.07694C108.464 9.40021 108.429 9.73417 108.445 10.0677V11.3039H106.598V9.67209C106.598 9.2765 106.552 9.02925 106.46 8.93035C106.398 8.87585 106.326 8.83457 106.248 8.80906C106.17 8.78355 106.087 8.77434 106.005 8.782C105.783 8.7783 105.56 8.7907 105.339 8.81909C105.278 8.83109 105.216 8.83701 105.154 8.83675C105.041 8.83668 104.928 8.81819 104.821 8.782V7.04598C104.955 7.06845 105.092 7.08085 105.228 7.08307H105.339C105.455 7.07256 105.57 7.05367 105.683 7.02656C105.787 7.00183 105.889 6.97888 105.988 6.95238C106.109 6.92524 106.234 6.91278 106.358 6.91529C106.64 6.91551 106.913 7.01772 107.126 7.20316C107.361 7.40733 107.521 7.68476 107.58 7.99081C107.617 7.83007 107.687 7.67846 107.784 7.54478C107.881 7.41109 108.003 7.29798 108.144 7.21199C108.419 7.0235 108.744 6.92033 109.078 6.91529Z" fill="#005CB8"/>
<path d="M113.032 20.044V10.1789C113.032 9.12987 113.288 8.32043 113.8 7.75059C114.313 7.18075 115.068 6.89641 116.067 6.89759C116.262 6.89818 116.457 6.91057 116.651 6.93468C116.853 6.9594 117.067 6.98059 117.289 7.00002C117.511 7.01945 117.74 7.02651 117.975 7.02651C118.199 7.02628 118.422 7.00141 118.641 6.95234V8.75193C118.448 8.80565 118.249 8.83065 118.049 8.82611C117.969 8.83859 117.888 8.8445 117.807 8.84377C117.659 8.84377 117.506 8.84377 117.345 8.82611C117.098 8.81375 116.864 8.79785 116.64 8.78019C116.416 8.76253 116.245 8.75193 116.122 8.75193C115.982 8.74694 115.842 8.77069 115.711 8.82171C115.581 8.87273 115.462 8.94995 115.362 9.04863C115.165 9.24643 115.066 9.58021 115.066 10.05V12.2187C115.217 12.0878 115.389 11.9844 115.575 11.9132C115.81 11.8281 116.058 11.7874 116.307 11.7931C116.676 11.7928 117.042 11.8555 117.389 11.9785C117.74 12.1017 118.059 12.3013 118.324 12.5631C118.612 12.8529 118.836 13.2 118.981 13.5821C119.159 14.0588 119.244 14.5655 119.231 15.0744V20.044H117.204V14.9455C117.204 14.4757 117.107 14.1454 116.917 13.9529C116.812 13.8543 116.688 13.778 116.553 13.7285C116.418 13.679 116.274 13.6575 116.131 13.6651C115.99 13.6584 115.849 13.6805 115.717 13.73C115.585 13.7795 115.464 13.8553 115.362 13.9529C115.171 14.1449 115.075 14.4757 115.075 14.9455V20.044H113.032Z" fill="#005CB8"/>
<path d="M120.647 12.6267H124.349V14.4807H120.647V12.6267Z" fill="#005CB8"/>
<path d="M132.123 7.04594V16.9111C132.123 17.9625 131.857 18.769 131.326 19.3306C130.795 19.8922 130.031 20.1735 129.034 20.1747C128.022 20.1747 127.252 19.8933 126.722 19.3306C126.192 18.7678 125.926 17.9613 125.925 16.9111V15.4082H127.961V17.04C127.961 17.5109 128.057 17.8447 128.248 18.0413C128.351 18.1428 128.475 18.2215 128.61 18.2726C128.745 18.3237 128.89 18.346 129.034 18.338C129.176 18.3447 129.317 18.3217 129.45 18.2707C129.582 18.2196 129.702 18.1415 129.803 18.0413C129.993 17.8453 130.09 17.5115 130.09 17.04V11.9414C130.098 11.703 130.07 11.4647 130.006 11.235C129.966 11.0959 129.894 10.9686 129.794 10.8641C129.719 10.7887 129.621 10.7398 129.516 10.7246C129.424 10.7125 129.331 10.706 129.239 10.7052H129.091C129.003 10.7052 128.899 10.7052 128.775 10.7246C128.648 10.7409 128.527 10.7889 128.423 10.8641C128.293 10.9597 128.191 11.0875 128.126 11.235C128.037 11.4593 127.996 11.7001 128.007 11.9414V12.2381H126.089V11.9414C126.089 10.9395 126.344 10.1742 126.856 9.64556C127.113 9.38067 127.423 9.17279 127.766 9.03531C128.109 8.89782 128.477 8.83378 128.846 8.84731H128.994C129.195 8.8404 129.396 8.87474 129.584 8.94822C129.772 9.0217 129.943 9.13279 130.087 9.27469V7.04594H132.123Z" fill="#005CB8"/>
<path d="M137.044 7.84243C137.044 8.07503 137.115 8.30209 137.249 8.49234C137.398 8.70669 137.569 8.90548 137.758 9.08572C137.96 9.28352 138.182 9.49368 138.425 9.7162C138.667 9.94127 138.89 10.1864 139.091 10.4491C139.301 10.7271 139.471 11.0325 139.599 11.3569C139.741 11.7329 139.81 12.1327 139.803 12.5348V16.9111C139.803 17.9625 139.537 18.769 139.006 19.3306C138.475 19.8922 137.711 20.1735 136.715 20.1747C135.703 20.1747 134.932 19.8933 134.402 19.3306C133.872 18.7678 133.607 17.9613 133.607 16.9111V15.4082H135.643V17.04C135.643 17.5109 135.738 17.8447 135.929 18.0413C136.032 18.1425 136.155 18.2211 136.291 18.2721C136.426 18.3232 136.57 18.3456 136.715 18.338C136.856 18.3448 136.998 18.3219 137.13 18.2708C137.262 18.2197 137.383 18.1416 137.483 18.0413C137.675 17.8459 137.771 17.5121 137.771 17.04V12.5348C137.764 12.1345 137.609 11.7509 137.335 11.4593C137.046 11.1255 136.727 10.7882 136.383 10.4491C136.045 10.1187 135.727 9.76836 135.43 9.40008C135.149 9.06874 134.994 8.64811 134.994 8.2133V7.04594H137.048L137.044 7.84243Z" fill="#005CB8"/>
<path d="M141.284 20.044V10.1789C141.284 9.12987 141.54 8.32043 142.052 7.75059C142.565 7.18075 143.32 6.89641 144.319 6.89759C144.514 6.89823 144.709 6.91062 144.903 6.93468C145.105 6.9594 145.319 6.98059 145.541 7.00002C145.763 7.01945 145.99 7.02651 146.225 7.02651C146.449 7.02628 146.672 7.00141 146.891 6.95234V8.75193C146.698 8.80565 146.499 8.83065 146.299 8.82611C146.219 8.8386 146.139 8.84451 146.059 8.84377C145.911 8.84377 145.756 8.84377 145.595 8.82611C145.349 8.81375 145.114 8.79785 144.89 8.78019C144.666 8.76253 144.495 8.75193 144.372 8.75193C144.232 8.74698 144.093 8.77074 143.962 8.82177C143.832 8.87279 143.714 8.95 143.614 9.04863C143.417 9.24643 143.318 9.58021 143.318 10.05V12.2187C143.468 12.0874 143.641 11.984 143.827 11.9132C144.061 11.8281 144.309 11.7874 144.557 11.7931C144.926 11.7929 145.293 11.8556 145.641 11.9785C145.992 12.1017 146.311 12.3013 146.576 12.5631C146.863 12.8534 147.087 13.2004 147.233 13.5821C147.41 14.0592 147.494 14.5657 147.482 15.0744V20.044H145.446V14.9455C145.446 14.4745 145.35 14.1437 145.16 13.9529C145.055 13.8543 144.931 13.778 144.795 13.7286C144.66 13.6791 144.516 13.6575 144.372 13.6651C144.231 13.6584 144.091 13.6804 143.959 13.7299C143.827 13.7794 143.707 13.8553 143.605 13.9529C143.414 14.1449 143.318 14.4757 143.318 14.9455V20.044H141.284Z" fill="#005CB8"/>
<path d="M156.043 6.87817C156.956 6.87817 157.669 7.15956 158.182 7.72234C158.694 8.28512 158.95 9.09162 158.95 10.1418V20.044H156.914V10.0129C156.914 9.54196 156.84 9.21112 156.692 9.02039C156.609 8.93076 156.509 8.85922 156.398 8.8103C156.286 8.76137 156.166 8.73611 156.044 8.73611C155.922 8.73611 155.802 8.76137 155.691 8.8103C155.579 8.85922 155.479 8.93076 155.396 9.02039C155.24 9.21112 155.162 9.54196 155.162 10.0129V16.874C155.162 17.9242 154.896 18.7307 154.365 19.2935C153.834 19.8563 153.063 20.1376 152.052 20.1376C151.041 20.1376 150.269 19.8563 149.738 19.2935C149.207 18.7307 148.942 17.9242 148.943 16.874V10.1418C148.943 9.0928 149.208 8.2863 149.738 7.72234C150.268 7.15839 151.039 6.877 152.052 6.87817C152.459 6.87408 152.864 6.94348 153.246 7.08304C153.626 7.23266 153.94 7.51573 154.127 7.87952C154.295 7.52484 154.584 7.24218 154.942 7.08304C155.292 6.94271 155.666 6.87308 156.043 6.87817ZM153.11 10.0129C153.11 9.54196 153.015 9.21112 152.824 9.02039C152.611 8.83489 152.338 8.73274 152.056 8.73274C151.774 8.73274 151.501 8.83489 151.287 9.02039C151.096 9.21348 151 9.54431 151 10.0129V17.0029C151 17.4739 151.096 17.8047 151.287 17.9954C151.501 18.1809 151.774 18.2831 152.056 18.2831C152.338 18.2831 152.611 18.1809 152.824 17.9954C153.015 17.8047 153.11 17.4739 153.11 17.0029V10.0129Z" fill="#005CB8"/>
<path d="M164.161 6.91529C165.111 6.91529 165.761 7.2014 166.112 7.7683C166.463 8.3352 166.641 9.14757 166.641 10.1984V16.9093C166.641 17.9607 166.375 18.7672 165.844 19.3288C165.313 19.8904 164.542 20.1718 163.531 20.173C162.52 20.173 161.748 19.8916 161.217 19.3288C160.686 18.766 160.421 17.9596 160.422 16.9093V15.4064H162.476V17.0383C162.476 17.5092 162.571 17.843 162.763 18.0396C162.973 18.2307 163.247 18.3366 163.531 18.3366C163.814 18.3366 164.088 18.2307 164.298 18.0396C164.491 17.8442 164.587 17.5104 164.586 17.0383V10.0677C164.602 9.73415 164.568 9.40005 164.483 9.07694C164.455 8.98636 164.396 8.90831 164.318 8.85588C164.239 8.80346 164.144 8.77987 164.05 8.78907C163.958 8.78175 163.866 8.8064 163.791 8.85884C163.715 8.91128 163.659 8.98832 163.634 9.07694C163.549 9.40005 163.515 9.73415 163.531 10.0677V11.3039H161.684V9.67209C161.684 9.2765 161.636 9.02925 161.545 8.93035C161.484 8.87572 161.412 8.83434 161.334 8.80882C161.256 8.78329 161.173 8.77416 161.092 8.782C160.869 8.7783 160.646 8.7907 160.425 8.81909C160.367 8.83053 160.308 8.83644 160.249 8.83675C160.136 8.83668 160.023 8.81819 159.916 8.782V7.04598C160.051 7.06845 160.187 7.08085 160.323 7.08307H160.434C160.549 7.07256 160.664 7.05367 160.776 7.02656C160.88 7.00183 160.982 6.97888 161.081 6.95238C161.203 6.92524 161.327 6.91278 161.451 6.91529C161.734 6.91551 162.007 7.01772 162.22 7.20316C162.455 7.40733 162.614 7.68476 162.673 7.99081C162.71 7.82966 162.78 7.6777 162.877 7.54391C162.974 7.41013 163.097 7.29726 163.239 7.21199C163.511 7.02561 163.831 6.92252 164.161 6.91529Z" fill="#005CB8"/>
<path d="M170.824 16.1694C171.231 16.4076 171.612 16.6869 171.961 17.0029C172.287 17.2971 172.579 17.627 172.832 17.9866C173.061 18.3132 173.254 18.6644 173.405 19.0339C173.54 19.3557 173.624 19.6964 173.655 20.0441H171.602C171.483 19.5834 171.261 19.1558 170.953 18.7937C170.674 18.4669 170.338 18.1935 169.962 17.9866C169.607 17.7916 169.223 17.654 168.825 17.5787C168.575 17.5301 168.32 17.5052 168.065 17.5045C167.942 17.5045 167.826 17.5045 167.713 17.5222V15.4877C167.799 15.4765 167.885 15.4706 167.972 15.47H168.231C168.153 15.2495 168.116 15.0168 168.12 14.783V10.1913C168.12 9.14228 168.388 8.33284 168.924 7.763C169.46 7.19315 170.228 6.90881 171.23 6.90999C172.229 6.90999 172.992 7.19433 173.521 7.763C174.05 8.33166 174.315 9.1411 174.316 10.1913V13.5291H172.28V10.05C172.28 9.57908 172.184 9.2453 171.993 9.04868C171.783 8.85756 171.509 8.75169 171.225 8.75169C170.941 8.75169 170.668 8.85756 170.458 9.04868C170.266 9.24647 170.17 9.58025 170.17 10.05V15.2599C170.171 15.3648 170.19 15.4687 170.227 15.5672C170.266 15.6791 170.326 15.7827 170.403 15.8727C170.515 15.992 170.646 16.0922 170.791 16.1694H170.824Z" fill="#005CB8"/>
<path d="M175.802 20.044V10.1789C175.802 9.12987 176.068 8.32043 176.599 7.75059C177.128 7.18192 177.895 6.89758 178.891 6.89758C179.887 6.89758 180.673 7.18192 181.203 7.75059C181.734 8.31925 182 9.12987 182 10.1789V20.044H179.964V10.05C179.964 9.58021 179.867 9.24643 179.677 9.04863C179.573 8.94738 179.45 8.86874 179.315 8.81767C179.179 8.7666 179.035 8.74421 178.891 8.75193C178.749 8.74496 178.607 8.76776 178.475 8.81885C178.343 8.86995 178.222 8.94822 178.122 9.04863C177.93 9.24643 177.835 9.58021 177.835 10.05V20.044H175.802Z" fill="#005CB8"/>
<path d="M62.4035 24.9764C63.4153 24.9764 64.1768 25.2625 64.6951 25.8294C65.2133 26.3963 65.4637 27.2087 65.4637 28.2595V34.9704C65.4637 36.0218 65.1981 36.8283 64.6669 37.3899C64.1357 37.9515 63.3648 38.2329 62.3541 38.2341C61.3423 38.2341 60.5708 37.9527 60.0396 37.3899C59.5085 36.8271 59.2435 36.0207 59.2446 34.9704V33.1726C59.2308 32.6579 59.3157 32.1453 59.4949 31.6626C59.6383 31.282 59.8619 30.9368 60.1507 30.6507C60.4178 30.394 60.7371 30.1983 61.0867 30.0767C61.4343 29.9537 61.8004 29.891 62.1691 29.8913C62.7367 29.8913 63.1492 30.0343 63.403 30.3169V28.1288C63.403 27.6578 63.3072 27.3276 63.1157 27.138C62.9029 26.9523 62.6302 26.85 62.348 26.85C62.0658 26.85 61.7931 26.9523 61.5803 27.138C61.3876 27.3288 61.2918 27.659 61.293 28.1288V28.7593H59.3539V28.2595C59.3539 27.2081 59.6101 26.3981 60.1225 25.8294C60.6302 25.2625 61.3917 24.9764 62.4035 24.9764ZM63.403 33.0437C63.403 32.5727 63.3072 32.239 63.1157 32.0423C62.9055 31.8512 62.6318 31.7454 62.348 31.7454C62.0641 31.7454 61.7905 31.8512 61.5803 32.0423C61.3876 32.2401 61.2918 32.5739 61.293 33.0437V35.1011C61.293 35.5721 61.3887 35.9059 61.5803 36.1025C61.7905 36.2936 62.0641 36.3995 62.348 36.3995C62.6318 36.3995 62.9055 36.2936 63.1157 36.1025C63.3072 35.9059 63.403 35.5721 63.403 35.1011V33.0437Z" fill="#005CB8"/>
<path d="M66.939 38.1054V28.2403C66.939 27.1912 67.1946 26.3818 67.7058 25.812C68.217 25.2421 68.9732 24.9578 69.9744 24.959C70.1689 24.9595 70.3632 24.9719 70.5561 24.996C70.7606 25.0208 70.9739 25.042 71.196 25.0614C71.4181 25.0808 71.6455 25.0879 71.88 25.0879C72.1041 25.0876 72.3276 25.0628 72.5463 25.0137V26.8133C72.3536 26.867 72.154 26.892 71.954 26.8875C71.8747 26.8999 71.7945 26.9058 71.7143 26.9051C71.5662 26.9051 71.4111 26.9051 71.2507 26.8875C71.0039 26.8751 70.7694 26.8592 70.5456 26.8416C70.3217 26.8239 70.1507 26.8133 70.0273 26.8133C69.8874 26.8081 69.748 26.8318 69.6176 26.8828C69.4872 26.9339 69.3687 27.0112 69.2693 27.11C69.0719 27.3078 68.9732 27.6416 68.9732 28.1113V30.2801C69.126 30.1462 69.3015 30.041 69.4914 29.9692C69.7258 29.8843 69.9738 29.8436 70.223 29.8491C70.5912 29.846 70.9572 29.9057 71.3053 30.0257C71.6568 30.1484 71.9766 30.3481 72.2414 30.6103C72.5281 30.9007 72.7515 31.2477 72.8971 31.6293C73.0752 32.1061 73.1602 32.6127 73.1474 33.1216V38.0913H71.1026V33.0068C71.1026 32.5359 71.0068 32.205 70.8153 32.0143C70.7107 31.9153 70.587 31.8386 70.4518 31.7891C70.3166 31.7396 70.1728 31.7183 70.0291 31.7264C69.8882 31.7199 69.7475 31.742 69.6154 31.7915C69.4833 31.841 69.3626 31.9168 69.2605 32.0143C69.0701 32.2074 68.975 32.5382 68.975 33.0068V38.1054H66.939Z" fill="#005CB8"/>
<path d="M78.0617 25.9073C78.0605 26.1397 78.1314 26.3668 78.2644 26.5572C78.4146 26.7712 78.5852 26.9699 78.7739 27.1506C78.9784 27.3484 79.2005 27.5586 79.4402 27.7811C79.6834 28.0052 79.9064 28.2505 80.1065 28.514C80.3175 28.7915 80.4889 29.097 80.616 29.4217C80.7583 29.7978 80.8277 30.1976 80.8204 30.5997V34.976C80.8204 36.0273 80.5549 36.8338 80.0237 37.3954C79.4925 37.957 78.7286 38.2384 77.7321 38.2396C76.7203 38.2396 75.9488 37.9582 75.4176 37.3954C74.8864 36.8327 74.6214 36.0262 74.6226 34.976V33.4731H76.6586V35.1049C76.6586 35.5758 76.7543 35.9096 76.9459 36.1062C77.0489 36.208 77.1722 36.287 77.3076 36.3381C77.443 36.3892 77.5876 36.4113 77.7321 36.4029C77.8738 36.41 78.0154 36.3873 78.1477 36.3362C78.2801 36.2851 78.4003 36.2067 78.5006 36.1062C78.691 35.9102 78.788 35.5764 78.788 35.1049V30.5962C78.7808 30.196 78.6256 29.8128 78.3526 29.5206C78.0623 29.1875 77.7444 28.8507 77.3989 28.5105C77.0615 28.1791 76.7431 27.8289 76.4453 27.4614C76.1655 27.1295 76.0119 26.7091 76.0116 26.2747V25.1073H78.0652L78.0617 25.9073Z" fill="#005CB8"/>
<path d="M88.5188 28.4627C88.5185 28.7149 88.4973 28.9665 88.4554 29.2151C88.416 29.454 88.3473 29.6871 88.2509 29.9091C88.1638 30.1122 88.0447 30.3 87.8983 30.4654C87.7602 30.6234 87.5852 30.7448 87.3889 30.8187C87.5849 30.893 87.7598 31.0143 87.8983 31.1719C88.0456 31.3405 88.1647 31.532 88.2509 31.7388C88.3458 31.9613 88.4145 32.1943 88.4554 32.4328C88.4973 32.6778 88.5186 32.926 88.5188 33.1746V34.9742C88.5188 36.0255 88.2509 36.832 87.715 37.3936C87.1791 37.9552 86.4106 38.2366 85.4093 38.2378C84.3975 38.2378 83.6266 37.9564 83.0966 37.3936C82.5666 36.8309 82.301 36.0244 82.2998 34.9742V33.4713H84.3552V35.1031C84.3552 35.574 84.451 35.9078 84.6425 36.1044C84.8527 36.2955 85.1264 36.4014 85.4102 36.4014C85.694 36.4014 85.9677 36.2955 86.1779 36.1044C86.3706 35.9078 86.4664 35.574 86.4652 35.1031V33.0439C86.4652 32.5729 86.3694 32.2391 86.1779 32.0425C86.0774 31.9423 85.9571 31.8641 85.8248 31.8131C85.6925 31.762 85.551 31.7391 85.4093 31.7458H85.0391V29.8915H85.4093C85.551 29.8982 85.6925 29.8753 85.8248 29.8243C85.9571 29.7732 86.0774 29.695 86.1779 29.5948C86.3706 29.397 86.4664 29.0632 86.4652 28.5934V28.129C86.4652 27.658 86.3694 27.3278 86.1779 27.1382C85.9651 26.9525 85.6924 26.8502 85.4102 26.8502C85.128 26.8502 84.8553 26.9525 84.6425 27.1382C84.451 27.3289 84.3552 27.6592 84.3552 28.129V28.7594H82.2998V28.2597C82.2998 27.2083 82.5654 26.3982 83.0966 25.8296C83.6254 25.2627 84.3975 24.9766 85.4093 24.9766C86.4211 24.9766 87.1721 25.2627 87.715 25.8296C88.258 26.3965 88.5188 27.2089 88.5188 28.2597V28.4627Z" fill="#005CB8"/>
<path d="M93.4421 25.9073C93.4415 26.1399 93.513 26.367 93.6466 26.5572C93.7962 26.7716 93.9668 26.9704 94.156 27.1506C94.3593 27.3484 94.5814 27.5586 94.8223 27.7811C95.0646 28.0062 95.2875 28.2513 95.4887 28.514C95.6984 28.792 95.8692 29.0974 95.9963 29.4217C96.1387 29.7978 96.2081 30.1976 96.2008 30.5997V34.976C96.2008 36.0273 95.9352 36.8338 95.404 37.3954C94.8729 37.957 94.109 38.2384 93.1124 38.2396C92.1006 38.2396 91.3297 37.9582 90.7997 37.3954C90.2697 36.8327 90.0041 36.0262 90.0029 34.976V33.4731H92.0389V35.1049C92.0389 35.5758 92.1347 35.9096 92.3263 36.1062C92.4293 36.208 92.5525 36.287 92.6879 36.3381C92.8234 36.3892 92.968 36.4113 93.1124 36.4029C93.2541 36.41 93.3957 36.3873 93.5281 36.3362C93.6605 36.2851 93.7807 36.2067 93.881 36.1062C94.0714 35.9102 94.1683 35.5764 94.1683 35.1049V30.5962C94.1612 30.196 94.006 29.8128 93.7329 29.5206C93.4427 29.1875 93.1248 28.8507 92.7793 28.5105C92.442 28.1795 92.1242 27.8293 91.8274 27.4614C91.5464 27.1301 91.392 26.7095 91.392 26.2747V25.1073H93.4456L93.4421 25.9073Z" fill="#005CB8"/>
<path d="M100.384 34.2307C100.791 34.4689 101.172 34.7482 101.521 35.0642C101.847 35.3588 102.139 35.6887 102.392 36.0479C102.621 36.3745 102.814 36.7257 102.965 37.0952C103.1 37.417 103.184 37.7577 103.215 38.1054H101.161C101.043 37.6456 100.823 37.2187 100.516 36.8568C100.237 36.53 99.9018 36.2566 99.5257 36.0497C99.1704 35.8547 98.7867 35.717 98.3887 35.6417C98.1383 35.5931 97.8839 35.5683 97.6289 35.5676C97.5055 35.5676 97.3892 35.5676 97.2764 35.5852V33.5437C97.3623 33.5325 97.4488 33.5266 97.5355 33.526H97.7946C97.7169 33.3055 97.6792 33.0728 97.6836 32.839V28.2473C97.6836 27.1983 97.9515 26.3888 98.4874 25.819C99.0233 25.2491 99.7918 24.9648 100.793 24.966C101.793 24.966 102.557 25.2503 103.085 25.819C103.612 26.3877 103.877 27.1971 103.88 28.2473V31.5851H101.845V28.1113C101.845 27.6404 101.75 27.3066 101.558 27.11C101.348 26.9189 101.074 26.813 100.79 26.813C100.507 26.813 100.233 26.9189 100.023 27.11C99.8312 27.3078 99.7354 27.6416 99.7354 28.1113V33.3247C99.7366 33.4296 99.7557 33.5335 99.7918 33.632C99.8337 33.7446 99.8965 33.8483 99.9769 33.9375C100.089 34.0568 100.22 34.1571 100.365 34.2342L100.384 34.2307Z" fill="#005CB8"/>
<path d="M108.472 33.4324C108.25 33.4354 108.031 33.3946 107.825 33.3123C107.629 33.2343 107.447 33.1245 107.287 32.9874V33.0245C107.289 33.2307 107.326 33.4352 107.398 33.6284C107.472 33.8309 107.689 34.0317 108.047 34.2307L108.065 34.2483C108.475 34.4779 108.858 34.7554 109.203 35.0748C109.526 35.3712 109.817 35.7003 110.072 36.0568C110.303 36.3795 110.496 36.728 110.647 37.0952C110.781 37.4172 110.866 37.7579 110.897 38.1054H108.842C108.724 37.6448 108.503 37.2172 108.195 36.855C107.916 36.5287 107.58 36.2553 107.204 36.0479C106.848 35.8531 106.464 35.7155 106.066 35.64C105.816 35.5914 105.562 35.5666 105.308 35.5658C105.184 35.5658 105.066 35.5658 104.955 35.5835V33.5437C105.041 33.5325 105.128 33.5266 105.214 33.526H105.473C105.396 33.3055 105.358 33.0728 105.362 32.839V28.2473C105.362 27.1983 105.631 26.3888 106.168 25.819C106.705 25.2491 107.473 24.9648 108.472 24.966C109.471 24.966 110.235 25.2503 110.763 25.819C111.292 26.3877 111.558 27.1971 111.56 28.2473V30.1458C111.56 31.1972 111.295 32.0066 110.763 32.5741C110.232 33.1416 109.468 33.4277 108.472 33.4324ZM107.414 30.28C107.414 30.751 107.509 31.0818 107.7 31.2725C107.913 31.458 108.186 31.5602 108.468 31.5602C108.751 31.5602 109.024 31.458 109.237 31.2725C109.427 31.0818 109.524 30.7516 109.524 30.28V28.1113C109.524 27.6416 109.427 27.3078 109.237 27.11C109.026 26.9191 108.752 26.8134 108.468 26.8134C108.184 26.8134 107.91 26.9191 107.7 27.11C107.509 27.3078 107.414 27.6416 107.414 28.1113V30.28Z" fill="#005CB8"/>
<path d="M116.487 25.9073C116.485 26.1397 116.556 26.3668 116.689 26.5572C116.839 26.7716 117.009 26.9704 117.199 27.1506C117.402 27.3484 117.624 27.5586 117.865 27.7811C118.107 28.0062 118.33 28.2513 118.531 28.514C118.741 28.7923 118.912 29.0976 119.041 29.4217C119.182 29.7981 119.25 30.1978 119.243 30.5997V34.976C119.243 36.0273 118.978 36.8338 118.448 37.3954C117.92 37.9588 117.153 38.2396 116.157 38.2396C115.161 38.2396 114.373 37.9588 113.842 37.3954C113.312 36.8321 113.047 36.0268 113.047 34.976V33.4731H115.083V35.1049C115.083 35.5758 115.179 35.9096 115.369 36.1062C115.472 36.2079 115.596 36.2868 115.732 36.3379C115.867 36.3889 116.012 36.4111 116.157 36.4029C116.298 36.4101 116.44 36.3874 116.572 36.3363C116.704 36.2851 116.824 36.2068 116.924 36.1062C117.115 35.9096 117.211 35.5758 117.211 35.1049V30.5962C117.205 30.1958 117.049 29.8123 116.776 29.5206C116.487 29.1869 116.167 28.8495 115.824 28.5105C115.485 28.18 115.167 27.8297 114.87 27.4614C114.589 27.1301 114.435 26.7095 114.435 26.2747V25.1073H116.487V25.9073Z" fill="#005CB8"/>
<path d="M120.725 38.1054V28.2403C120.725 27.1912 120.981 26.3818 121.493 25.812C122.006 25.2421 122.761 24.9578 123.76 24.959C123.955 24.9596 124.15 24.972 124.344 24.996C124.546 25.0208 124.76 25.042 124.982 25.0614C125.204 25.0808 125.431 25.0879 125.666 25.0879C125.89 25.0875 126.114 25.0627 126.334 25.0137V26.8133C126.14 26.8669 125.94 26.8919 125.74 26.8875C125.66 26.9 125.58 26.9059 125.5 26.9051C125.352 26.9051 125.197 26.9051 125.036 26.8875C124.79 26.8751 124.557 26.8592 124.331 26.8416C124.106 26.8239 123.936 26.8133 123.813 26.8133C123.673 26.8083 123.534 26.8321 123.403 26.8831C123.273 26.9342 123.154 27.0114 123.055 27.11C122.858 27.3078 122.759 27.6416 122.759 28.1113V30.2801C122.909 30.1488 123.082 30.0454 123.268 29.9745C123.502 29.8894 123.749 29.8487 123.998 29.8544C124.367 29.8514 124.733 29.9112 125.082 30.031C125.433 30.1542 125.752 30.3539 126.016 30.6156C126.304 30.9059 126.528 31.2529 126.674 31.6346C126.851 32.1117 126.935 32.6182 126.922 33.1269V38.0966H124.888V33.0068C124.888 32.5359 124.793 32.205 124.603 32.0143C124.497 31.9157 124.373 31.8394 124.238 31.7899C124.103 31.7405 123.959 31.7189 123.815 31.7264C123.674 31.7197 123.534 31.7418 123.402 31.7913C123.27 31.8408 123.15 31.9167 123.048 32.0143C122.855 32.2074 122.759 32.5382 122.761 33.0068V38.1054H120.725Z" fill="#005CB8"/>
<path d="M132.847 29.3352C133.406 29.5271 133.876 29.9155 134.171 30.4284C134.493 31.0316 134.65 31.7101 134.624 32.394V34.9724C134.624 36.0238 134.356 36.8303 133.82 37.3919C133.284 37.9535 132.516 38.2349 131.514 38.2361C130.502 38.2361 129.732 37.9547 129.202 37.3919C128.672 36.8291 128.406 36.0226 128.405 34.9724V32.394C128.405 31.5039 128.593 30.7934 128.971 30.2624C129.364 29.7193 129.95 29.3478 130.608 29.2239C130.71 29.0611 130.838 28.9166 130.987 28.7965C131.142 28.6747 131.29 28.5528 131.431 28.4433C131.561 28.3349 131.679 28.2136 131.784 28.0813C131.884 27.9548 131.936 27.7974 131.932 27.6363V27.5992C131.945 27.4062 131.903 27.2135 131.812 27.0429C131.762 26.977 131.695 26.9253 131.619 26.8928C131.543 26.8603 131.459 26.8482 131.377 26.8574C131.296 26.848 131.215 26.8581 131.139 26.887C131.063 26.9159 130.995 26.9627 130.941 27.0234C130.847 27.1996 130.805 27.3997 130.822 27.5992V27.8959H128.923V27.5992C128.923 26.7585 129.136 26.111 129.563 25.6565C129.99 25.202 130.597 24.976 131.386 24.9784C132.162 24.9784 132.767 25.2103 133.199 25.6742C133.632 26.1381 133.848 26.778 133.846 27.5939V27.6486C133.853 27.8613 133.815 28.0731 133.735 28.2703C133.668 28.4263 133.581 28.5729 133.476 28.7065C133.38 28.8279 133.272 28.9397 133.154 29.0403C133.044 29.1305 132.941 29.2291 132.847 29.3352ZM132.57 32.2651C132.57 31.7941 132.474 31.4633 132.283 31.2725C132.07 31.0868 131.797 30.9845 131.515 30.9845C131.233 30.9845 130.96 31.0868 130.747 31.2725C130.556 31.4656 130.46 31.7965 130.46 32.2651V35.1013C130.46 35.5723 130.556 35.9061 130.747 36.1027C130.958 36.2938 131.231 36.3997 131.515 36.3997C131.799 36.3997 132.073 36.2938 132.283 36.1027C132.474 35.9061 132.57 35.5723 132.57 35.1013V32.2651Z" fill="#005CB8"/>
<path d="M143.101 24.9589C144.1 24.9589 144.85 25.2433 145.35 25.8119C145.851 26.3806 146.101 27.19 146.1 28.2402V38.1054H144.056V28.1113C144.056 27.6404 143.967 27.3066 143.789 27.11C143.699 27.0162 143.591 26.9415 143.472 26.8906C143.352 26.8396 143.224 26.8133 143.094 26.8133C142.964 26.8133 142.836 26.8396 142.716 26.8906C142.597 26.9415 142.489 27.0162 142.399 27.11C142.222 27.3078 142.133 27.6416 142.132 28.1113V31.5975H140.085V28.1113C140.085 27.6404 139.995 27.3066 139.815 27.11C139.726 27.0162 139.618 26.9416 139.499 26.8907C139.379 26.8397 139.251 26.8134 139.122 26.8134C138.992 26.8134 138.864 26.8397 138.745 26.8907C138.625 26.9416 138.518 27.0162 138.428 27.11C138.252 27.3078 138.16 27.6398 138.16 28.1113V38.1054H136.124V28.2402C136.124 27.1912 136.374 26.3818 136.873 25.8119C137.373 25.2421 138.122 24.9578 139.121 24.9589C139.517 24.9589 139.908 25.0445 140.268 25.2097C140.624 25.364 140.918 25.6349 141.1 25.9779H141.12C141.3 25.6364 141.59 25.3658 141.943 25.2097C142.306 25.0422 142.701 24.9566 143.101 24.9589Z" fill="#005CB8"/>
<path d="M153.799 28.4627C153.799 28.7149 153.777 28.9667 153.734 29.2151C153.695 29.4539 153.627 29.687 153.531 29.9091C153.444 30.1122 153.325 30.3 153.179 30.4654C153.041 30.6238 152.867 30.7452 152.671 30.8187C152.867 30.8926 153.041 31.014 153.179 31.1719C153.326 31.3406 153.445 31.532 153.531 31.7388C153.626 31.9614 153.694 32.1943 153.734 32.4328C153.777 32.6777 153.799 32.9259 153.799 33.1746V34.9742C153.799 36.0255 153.531 36.832 152.994 37.3936C152.456 37.9552 151.688 38.2366 150.69 38.2378C149.678 38.2378 148.907 37.9564 148.377 37.3936C147.847 36.8309 147.581 36.0244 147.58 34.9742V33.4713H149.635V35.1031C149.635 35.574 149.731 35.9078 149.921 36.1044C150.132 36.2953 150.406 36.401 150.69 36.401C150.974 36.401 151.248 36.2953 151.458 36.1044C151.649 35.9084 151.745 35.5746 151.745 35.1031V33.0439C151.745 32.5741 151.649 32.2403 151.458 32.0425C151.358 31.9424 151.237 31.8643 151.105 31.8132C150.973 31.7621 150.831 31.7392 150.69 31.7458H150.319V29.8915H150.69C150.831 29.8981 150.973 29.8752 151.105 29.8241C151.237 29.773 151.358 29.6949 151.458 29.5948C151.649 29.397 151.745 29.065 151.745 28.5934V28.129C151.745 27.6592 151.649 27.3289 151.458 27.1382C151.245 26.9527 150.972 26.8506 150.69 26.8506C150.407 26.8506 150.134 26.9527 149.921 27.1382C149.731 27.3289 149.635 27.6592 149.635 28.129V28.7594H147.582V28.2597C147.582 27.2083 147.847 26.3982 148.379 25.8296C148.907 25.2627 149.68 24.9766 150.691 24.9766C151.703 24.9766 152.454 25.2627 152.995 25.8296C153.536 26.3965 153.801 27.2089 153.801 28.2597L153.799 28.4627Z" fill="#005CB8"/>
<path d="M158.722 25.9073C158.721 26.1397 158.792 26.3668 158.925 26.5572C159.075 26.7712 159.246 26.9699 159.435 27.1506C159.639 27.3484 159.861 27.5586 160.101 27.7811C160.344 28.0052 160.567 28.2505 160.767 28.514C160.978 28.7915 161.15 29.097 161.277 29.4217C161.418 29.7979 161.487 30.1977 161.479 30.5997V34.976C161.479 36.0273 161.214 36.8338 160.684 37.3954C160.154 37.957 159.39 38.2384 158.393 38.2396C157.381 38.2396 156.609 37.9582 156.078 37.3954C155.547 36.8327 155.282 36.0262 155.283 34.976V33.4731H157.319V35.1049C157.319 35.5758 157.415 35.9096 157.607 36.1062C157.71 36.208 157.833 36.287 157.968 36.3381C158.104 36.3892 158.248 36.4113 158.393 36.4029C158.534 36.41 158.676 36.3873 158.808 36.3362C158.941 36.2851 159.061 36.2067 159.161 36.1062C159.352 35.9096 159.447 35.5758 159.447 35.1049V30.5962C159.44 30.1962 159.286 29.8129 159.013 29.5206C158.723 29.1875 158.405 28.8507 158.06 28.5105C157.722 28.1791 157.404 27.8289 157.106 27.4614C156.826 27.1296 156.671 26.7093 156.671 26.2747V25.1073H158.726L158.722 25.9073Z" fill="#005CB8"/>
<path d="M166.255 29.8915C166.624 29.8914 166.99 29.9541 167.339 30.077C167.688 30.199 168.006 30.3947 168.273 30.6509C168.562 30.9373 168.786 31.2824 168.93 31.6629C169.108 32.1459 169.192 32.6583 169.179 33.1728V34.9724C169.179 36.0238 168.914 36.8303 168.384 37.3919C167.854 37.9535 167.082 38.2349 166.069 38.2361C165.058 38.2361 164.287 37.9547 163.757 37.3919C163.227 36.8291 162.961 36.0227 162.96 34.9724V28.2615C162.96 27.2101 163.219 26.4001 163.737 25.8314C164.256 25.2645 165.015 24.9784 166.015 24.9784C166.21 24.979 166.405 24.9914 166.598 25.0155C166.801 25.042 167.014 25.0632 167.236 25.0808C167.459 25.0985 167.686 25.1091 167.92 25.1091C168.145 25.1089 168.368 25.084 168.587 25.0349V26.8522C168.394 26.9059 168.194 26.9309 167.994 26.9263C167.915 26.9388 167.835 26.9447 167.755 26.944C167.594 26.944 167.434 26.944 167.273 26.9263C167.027 26.914 166.796 26.8981 166.579 26.8804C166.362 26.8628 166.193 26.8522 166.069 26.8522C165.93 26.8469 165.792 26.8696 165.661 26.9191C165.531 26.9685 165.412 27.0437 165.311 27.14C165.114 27.3308 165.015 27.661 165.015 28.1308V30.3224C165.274 30.0346 165.687 29.8915 166.255 29.8915ZM167.125 33.0439C167.125 32.573 167.03 32.2392 166.838 32.0426C166.628 31.8515 166.354 31.7456 166.07 31.7456C165.787 31.7456 165.513 31.8515 165.303 32.0426C165.111 32.2404 165.015 32.5742 165.015 33.0439V35.1014C165.015 35.5723 165.111 35.9061 165.303 36.1027C165.513 36.2938 165.787 36.3997 166.07 36.3997C166.354 36.3997 166.628 36.2938 166.838 36.1027C167.03 35.9061 167.125 35.5723 167.125 35.1014V33.0439Z" fill="#005CB8"/>
<path d="M170.66 38.1054V28.2403C170.66 27.1912 170.926 26.3818 171.457 25.812C171.988 25.2421 172.752 24.9578 173.749 24.959C174.76 24.959 175.531 25.2433 176.061 25.812C176.591 26.3806 176.857 27.1901 176.858 28.2403V38.1054H174.822V28.1113C174.822 27.6416 174.725 27.3078 174.535 27.11C174.431 27.0088 174.308 26.9301 174.173 26.879C174.037 26.828 173.893 26.8056 173.749 26.8133C173.607 26.8066 173.465 26.8294 173.333 26.8805C173.201 26.9316 173.08 27.0098 172.98 27.11C172.788 27.3078 172.693 27.6416 172.693 28.1113V38.1054H170.66Z" fill="#005CB8"/>
<path d="M62.3769 52.8749C62.7831 53.1142 63.164 53.394 63.5139 53.7102C63.8379 54.005 64.1282 54.3349 64.3794 54.6939C64.6089 55.0211 64.8011 55.3729 64.9523 55.743C65.0875 56.0647 65.1719 56.4055 65.2026 56.7531H63.1543C63.0347 56.2922 62.813 55.8642 62.5056 55.501C62.2258 55.1752 61.8903 54.9019 61.5149 54.6939C61.1593 54.4997 60.7757 54.3621 60.3779 54.286C60.1274 54.2383 59.8731 54.2135 59.6182 54.2118C59.5004 54.2117 59.3827 54.2182 59.2656 54.2312V52.1897C59.3514 52.177 59.438 52.1705 59.5248 52.1703H59.7839C59.7061 51.9504 59.6685 51.7183 59.6728 51.485V46.8933C59.6728 45.8431 59.9408 45.0331 60.4766 44.4632C61.0055 43.8963 61.7829 43.6102 62.7823 43.6102C63.7818 43.6102 64.5451 43.8963 65.0739 44.4632C65.6028 45.0301 65.8689 45.8425 65.8689 46.8933V50.2311H63.8382V46.7556C63.8382 46.2846 63.7425 45.9508 63.5509 45.7542C63.3407 45.5631 63.0671 45.4572 62.7832 45.4572C62.4994 45.4572 62.2257 45.5631 62.0155 45.7542C61.8228 45.952 61.727 46.2858 61.7282 46.7556V51.9672C61.7295 52.0715 61.7485 52.1748 61.7846 52.2727C61.8261 52.3855 61.889 52.4893 61.9697 52.5782C62.0812 52.6985 62.2123 52.7988 62.3575 52.8749H62.3769Z" fill="#005CB8"/>
<path d="M70.4645 43.6225C71.4763 43.6225 72.2478 43.9068 72.779 44.4755C73.3102 45.0442 73.5752 45.8536 73.574 46.9038V53.6148C73.574 54.6662 73.309 55.4733 72.779 56.036C72.249 56.5988 71.4775 56.8796 70.4645 56.8784C69.4527 56.8784 68.6818 56.5976 68.1518 56.036C67.6217 55.4744 67.3562 54.6674 67.355 53.6148V52.1137H69.4104V53.7455C69.4104 54.2164 69.5055 54.5473 69.6959 54.738C69.9097 54.9225 70.1824 55.0239 70.4645 55.0239C70.7466 55.0239 71.0193 54.9225 71.2331 54.738C71.4234 54.5455 71.5204 54.2082 71.5204 53.7455V46.7749C71.5204 46.3051 71.4234 45.9713 71.2331 45.7736C71.0224 45.5827 70.7485 45.477 70.4645 45.477C70.1805 45.477 69.9066 45.5827 69.6959 45.7736C69.5055 45.9713 69.4104 46.3051 69.4104 46.7749V48.0111H67.355V46.8985C67.355 45.8495 67.6206 45.0401 68.1518 44.4702C68.6829 43.9004 69.4538 43.6178 70.4645 43.6225Z" fill="#005CB8"/>
<path d="M81.2542 43.7443V53.6165C81.2542 54.6679 80.9892 55.475 80.4592 56.0378C79.9292 56.6006 79.1653 56.8814 78.1676 56.8802C77.1558 56.8802 76.3843 56.5994 75.8531 56.0378C75.3219 55.4762 75.0569 54.6691 75.0581 53.6165V52.1154H77.0941V53.7472C77.0941 54.2182 77.1899 54.5519 77.3814 54.7486C77.4842 54.8499 77.6068 54.9287 77.7415 54.9801C77.8762 55.0314 78.0201 55.0542 78.1641 55.047C78.3057 55.0537 78.4472 55.0307 78.5795 54.9796C78.7118 54.9286 78.8321 54.8505 78.9327 54.7503C79.123 54.5525 79.2182 54.2188 79.2182 53.749V48.6469C79.2266 48.4086 79.1986 48.1704 79.1354 47.9405C79.0957 47.8012 79.0225 47.6738 78.9221 47.5696C78.8464 47.4956 78.7497 47.4469 78.6453 47.4301C78.5529 47.4193 78.4599 47.4134 78.3668 47.4124H78.2187C78.1324 47.4124 78.0284 47.4124 77.905 47.4301C77.775 47.4465 77.651 47.4944 77.5436 47.5696C77.4145 47.6654 77.3124 47.7932 77.2475 47.9405C77.1573 48.1646 77.1164 48.4055 77.1276 48.6469V48.9436H75.2203V48.6469C75.2203 47.6461 75.4765 46.8808 75.9888 46.351C76.2467 46.0865 76.557 45.8789 76.8998 45.7417C77.2425 45.6045 77.6102 45.5408 77.979 45.5545H78.1288C78.33 45.5475 78.5305 45.5817 78.7181 45.6548C78.9057 45.728 79.0765 45.8387 79.22 45.9801V43.7443H81.2542Z" fill="#005CB8"/>
<path d="M86.9002 49.2191H88.9362V53.6165C88.9362 54.6679 88.6706 55.475 88.1394 56.0378C87.6082 56.6006 86.8373 56.8814 85.8266 56.8802C84.8277 56.8802 84.0639 56.5994 83.535 56.0378C83.0062 55.4762 82.7406 54.6691 82.7383 53.6165V43.7443H84.7743V53.7402C84.7743 54.2111 84.87 54.5449 85.0616 54.7415C85.1621 54.8417 85.2824 54.9199 85.4147 54.971C85.547 55.0221 85.6885 55.045 85.8302 55.0382C85.973 55.044 86.1156 55.0206 86.2492 54.9696C86.3828 54.9186 86.5047 54.841 86.6075 54.7415C86.805 54.5437 86.9037 54.2099 86.9037 53.7402L86.9002 49.2191Z" fill="#005CB8"/>
<path d="M90.417 56.7513V46.8862C90.417 45.836 90.682 45.026 91.212 44.4561C91.7408 43.8892 92.5076 43.6031 93.5036 43.6031C94.4995 43.6031 95.2875 43.8892 95.8181 44.4561C96.3487 45.023 96.6131 45.8354 96.6131 46.8862V56.7513H94.5806V46.7555C94.5806 46.2846 94.4849 45.9508 94.2933 45.7542C94.1894 45.6535 94.0661 45.5753 93.9309 45.5243C93.7957 45.4732 93.6514 45.4505 93.5071 45.4575C93.3655 45.4513 93.2242 45.4744 93.0919 45.5255C92.9597 45.5765 92.8394 45.6544 92.7385 45.7542C92.5482 45.952 92.453 46.2857 92.453 46.7555V56.7513H90.417Z" fill="#005CB8"/>
<path d="M104.317 47.1087C104.317 47.3603 104.295 47.6114 104.251 47.8593C104.213 48.0987 104.145 48.3324 104.049 48.5551C103.961 48.7577 103.842 48.9454 103.696 49.1114C103.559 49.2699 103.385 49.3913 103.189 49.4646C103.385 49.538 103.559 49.6595 103.696 49.8178C103.843 49.9862 103.962 50.177 104.049 50.383C104.143 50.6063 104.211 50.8398 104.251 51.0788C104.295 51.3236 104.317 51.5718 104.317 51.8205V53.6166C104.317 54.668 104.048 55.4751 103.511 56.0378C102.974 56.6006 102.206 56.8814 101.207 56.8802C100.195 56.8802 99.4244 56.5994 98.8944 56.0378C98.3644 55.4762 98.0988 54.6692 98.0977 53.6166V52.1154H100.153V53.7473C100.153 54.2182 100.248 54.552 100.439 54.7486C100.649 54.9395 100.923 55.0452 101.207 55.0452C101.491 55.0452 101.765 54.9395 101.976 54.7486C102.166 54.5508 102.263 54.2188 102.263 53.7473V51.6916C102.263 51.2236 102.166 50.888 101.976 50.6903C101.875 50.5905 101.755 50.5126 101.622 50.4615C101.49 50.4105 101.349 50.3873 101.207 50.3936H100.652V48.5392H101.207C101.349 48.5463 101.49 48.5235 101.623 48.4724C101.755 48.4213 101.875 48.343 101.976 48.2425C102.166 48.0465 102.263 47.7127 102.263 47.2412V46.7785C102.263 46.3087 102.166 45.9784 101.976 45.7859C101.874 45.6884 101.753 45.6126 101.621 45.5632C101.489 45.5137 101.348 45.4915 101.207 45.4981V43.6261C102.207 43.6261 102.975 43.9104 103.511 44.4791C104.047 45.0477 104.316 45.8572 104.317 46.9074V47.1087Z" fill="#005CB8"/>
<path d="M112.794 43.6031C113.793 43.6031 114.542 43.8892 115.043 44.4561C115.544 45.023 115.792 45.8354 115.792 46.8862V56.7513H113.756V46.7555C113.756 46.2846 113.667 45.9508 113.488 45.7542C113.398 45.6604 113.291 45.5857 113.171 45.5347C113.052 45.4838 112.923 45.4575 112.794 45.4575C112.664 45.4575 112.536 45.4838 112.416 45.5347C112.297 45.5857 112.189 45.6604 112.099 45.7542C111.922 45.952 111.832 46.2858 111.831 46.7555V50.2417H109.778V46.7555C109.778 46.2846 109.688 45.9508 109.508 45.7542C109.418 45.6604 109.311 45.5858 109.191 45.5348C109.072 45.4839 108.944 45.4576 108.814 45.4576C108.685 45.4576 108.556 45.4839 108.437 45.5348C108.318 45.5858 108.21 45.6604 108.121 45.7542C107.944 45.952 107.853 46.284 107.853 46.7555V56.7513H105.815V46.8862C105.815 45.836 106.065 45.026 106.566 44.4561C107.065 43.8892 107.814 43.6031 108.815 43.6031C109.211 43.6041 109.601 43.6896 109.961 43.8539C110.318 44.0088 110.612 44.2802 110.795 44.6239H110.814C110.994 44.2816 111.284 44.0102 111.637 43.8539C112 43.6875 112.395 43.6019 112.794 43.6031Z" fill="#005CB8"/>
<path d="M120.568 48.5356C120.936 48.5333 121.302 48.593 121.65 48.7122C121.999 48.8345 122.318 49.0308 122.584 49.288C122.873 49.5734 123.098 49.9179 123.242 50.2981C123.421 50.7814 123.506 51.2946 123.492 51.8099V53.6165C123.492 54.6679 123.226 55.475 122.695 56.0378C122.164 56.6006 121.393 56.8814 120.382 56.8802C119.371 56.8802 118.599 56.5994 118.068 56.0378C117.537 55.4762 117.272 54.6691 117.273 53.6165V46.9056C117.273 45.8565 117.532 45.0471 118.05 44.4773C118.569 43.9074 119.327 43.6231 120.326 43.6243C120.521 43.6248 120.716 43.6372 120.91 43.6613C121.114 43.6861 121.326 43.7073 121.548 43.7267C121.77 43.7461 121.999 43.7532 122.233 43.7532C122.458 43.7538 122.681 43.7289 122.9 43.679V45.4963C122.707 45.5508 122.507 45.5759 122.307 45.5704C122.228 45.5844 122.147 45.5909 122.066 45.5899C121.905 45.5899 121.745 45.5899 121.585 45.5704C121.338 45.5598 121.107 45.5439 120.892 45.5245C120.677 45.5051 120.506 45.4963 120.382 45.4963C120.243 45.4917 120.104 45.5148 119.974 45.5642C119.844 45.6136 119.724 45.6884 119.623 45.7841C119.425 45.976 119.327 46.3069 119.327 46.7766V48.9648C119.586 48.6799 120 48.5368 120.568 48.5356ZM121.437 51.6915C121.437 51.2235 121.341 50.888 121.151 50.6902C120.94 50.4993 120.666 50.3937 120.382 50.3937C120.098 50.3937 119.825 50.4993 119.614 50.6902C119.424 50.888 119.327 51.22 119.327 51.6915V53.7508C119.327 54.2205 119.424 54.5543 119.614 54.7521C119.825 54.943 120.098 55.0487 120.382 55.0487C120.666 55.0487 120.94 54.943 121.151 54.7521C121.341 54.5543 121.437 54.2205 121.437 53.7508V51.6915Z" fill="#005CB8"/>
<path d="M124.973 56.7513V46.8862C124.973 45.836 125.238 45.026 125.768 44.4561C126.296 43.8892 127.063 43.6031 128.059 43.6031C129.055 43.6031 129.843 43.8892 130.374 44.4561C130.904 45.023 131.169 45.8354 131.169 46.8862V56.7513H129.136V46.7555C129.136 46.2846 129.041 45.9508 128.851 45.7542C128.747 45.6533 128.623 45.5749 128.487 45.5239C128.352 45.4729 128.207 45.4503 128.063 45.4575C127.921 45.4511 127.78 45.4741 127.648 45.5252C127.516 45.5763 127.396 45.6542 127.296 45.7542C127.104 45.952 127.009 46.2857 127.009 46.7555V56.7513H124.973Z" fill="#005CB8"/>
</svg>
