<svg width="92" height="49" viewBox="0 0 92 49" fill="none" xmlns="http://www.w3.org/2000/svg">
<rect width="92" height="49" rx="10" fill="#FDFDFD"/>
<path d="M11.0547 25.4766C11.0547 21.5859 12.6289 19.6406 15.7773 19.6406C16.9648 19.6406 17.9609 20.0664 18.7656 20.918C19.5234 19.9648 20.4609 19.5 21.5781 19.5234C22.8359 19.5234 23.8125 19.9922 24.5078 20.9297C25.2188 20.0703 26.1914 19.6406 27.4258 19.6406C30.5742 19.6406 32.1484 21.4219 32.1484 24.9844C32.1406 26.0312 31.9492 27.0586 31.5742 28.0664C31.207 29.0742 30.6406 30.1484 29.875 31.2891H25.9375C27.8516 28.9531 28.8086 26.8516 28.8086 24.9844C28.8086 23.1641 28.3516 22.2539 27.4375 22.2539C26.5391 22.2539 26.0859 22.6445 26.0781 23.4258L25.9492 27.832H22.9258L22.7852 23.4375C22.7852 22.6094 22.3828 22.1953 21.5781 22.1953C20.8125 22.1953 20.4297 22.6055 20.4297 23.4258L20.3125 27.832H17.3008L17.1719 23.4258C17.1719 22.6445 16.707 22.2539 15.7773 22.2539C14.8633 22.2539 14.4062 23.3438 14.4062 25.5234C14.4062 27.1953 15.0117 28.6094 16.2227 29.7656C17.4336 30.9141 19.1875 31.8672 21.4844 32.625C24.6562 33.4766 26.5273 35.4023 27.0977 38.4023H23.793C23.6289 37.5273 23.1836 36.7383 22.457 36.0352C21.7383 35.3398 20.7695 34.9844 19.5508 34.9688C18.5898 34.9609 17.7344 35.1953 16.9844 35.6719C16.2422 36.1562 15.5781 36.7734 14.9922 37.5234L13 34.957C13.8906 34.1289 14.8398 33.543 15.8477 33.1992C12.6523 31.418 11.0547 28.8438 11.0547 25.4766ZM34.2578 25.8984C34.2578 21.7266 35.8086 19.6406 38.9102 19.6406C40.2773 19.6406 41.3125 20.1211 42.0156 21.082C42.7656 20.1211 43.7969 19.6406 45.1094 19.6406C48.1953 19.6406 49.7344 21.7266 49.7266 25.8984C49.7344 28.1875 49.0312 30.5547 47.6172 33H43.6562C45.4688 30.5078 46.375 28.1406 46.375 25.8984C46.3672 23.4688 45.9375 22.2539 45.0859 22.2539C44.0859 22.2539 43.5859 22.8281 43.5859 23.9766V27.5273H40.3984V23.9766C40.3984 22.8281 39.8984 22.2539 38.8984 22.2539C38.0391 22.2539 37.6094 23.4688 37.6094 25.8984C37.6016 28.0234 38.4922 30.3945 40.2812 33.0117H36.332C34.9492 30.5977 34.2578 28.2266 34.2578 25.8984ZM51.7539 32.2266C51.7539 28.9844 53.3984 26.7773 56.6875 25.6055C57.7188 24.7695 58.2422 23.9297 58.2578 23.0859C58.2422 22.3828 57.8477 22.0312 57.0742 22.0312C56.4414 22.0312 56.125 22.332 56.125 22.9336C56.1328 23.1914 56.168 23.4961 56.2305 23.8477L53.3711 24.6914L53.0898 23.0039C53.0898 20.6914 54.4219 19.5352 57.0859 19.5352C59.8438 19.5352 61.2148 20.7539 61.1992 23.1914C61.1992 24.0742 60.7383 25.0586 59.8164 26.1445C62.1367 27.543 63.2969 29.5703 63.2969 32.2266C63.2969 33.875 62.8203 35.3438 61.8672 36.6328C60.9141 37.9219 59.4844 38.5664 57.5781 38.5664C55.7578 38.5664 54.332 37.9219 53.3008 36.6328C52.2695 35.3438 51.7539 33.875 51.7539 32.2266ZM55.0938 32.2031C55.0938 33.4062 55.3359 34.3242 55.8203 34.957C56.3047 35.5977 56.8789 35.918 57.543 35.918C58.1133 35.918 58.6523 35.5977 59.1602 34.957C59.6758 34.3164 59.9336 33.4062 59.9336 32.2266C59.9336 31.1875 59.7539 30.3047 59.3945 29.5781C59.0352 28.8438 58.4531 28.3633 57.6484 28.1367C56.7656 28.3398 56.1172 28.8164 55.7031 29.5664C55.2969 30.3164 55.0938 31.1953 55.0938 32.2031ZM65.2891 25.8984C65.2891 21.7266 66.8398 19.6406 69.9414 19.6406C71.3086 19.6406 72.3438 20.1211 73.0469 21.082C73.7969 20.1211 74.8281 19.6406 76.1406 19.6406C79.2266 19.6406 80.7656 21.7266 80.7578 25.8984C80.7656 28.1875 80.0625 30.5547 78.6484 33H74.6875C76.5 30.5078 77.4062 28.1406 77.4062 25.8984C77.3984 23.4688 76.9688 22.2539 76.1172 22.2539C75.1172 22.2539 74.6172 22.8281 74.6172 23.9766V27.5273H71.4297V23.9766C71.4297 22.8281 70.9297 22.2539 69.9297 22.2539C69.0703 22.2539 68.6406 23.4688 68.6406 25.8984C68.6328 28.0234 69.5234 30.3945 71.3125 33.0117H67.3633C65.9805 30.5977 65.2891 28.2266 65.2891 25.8984Z" fill="#005CB8"/>
</svg>
