<svg width="29" height="60" viewBox="0 0 29 60" fill="none" xmlns="http://www.w3.org/2000/svg">
<g clip-path="url(#clip0_391_878)">
<path d="M19.6349 55.0283L18.9987 55.6645L14.6634 60.0008L10.3281 55.6645L9.69189 55.0283C10.0511 55.0819 10.4126 55.1284 10.778 55.1695C13.3614 55.4567 15.9685 55.4567 18.5518 55.1695C18.9165 55.1284 19.2788 55.0819 19.6349 55.0283Z" fill="#1D2933"/>
<path d="M18.9959 44.9235C17.6667 44.219 16.1858 43.8494 14.6815 43.8467C13.1772 43.844 11.695 44.2082 10.3633 44.9079L11.2431 36.4464L11.6589 32.4654L11.7024 32.0371L11.9258 32.0782C12.7718 32.2224 13.6279 32.2986 14.486 32.3063H14.8088C15.6734 32.2994 16.536 32.2229 17.3884 32.0775L17.5831 32.0418L17.6242 32.4212L18.0602 36.4339L18.9959 44.9235Z" fill="#1D2933"/>
<path d="M26.4732 5.12847C25.6262 5.33158 24.795 5.59555 23.9859 5.9183C20.5345 7.29925 17.5783 9.68658 15.5015 12.77C15.2026 13.2112 14.923 13.6666 14.6628 14.1363C14.3753 13.6146 14.0612 13.1081 13.7218 12.6187C13.1123 11.7324 12.4259 10.9016 11.6705 10.1359C10.9314 9.38586 10.1302 8.69963 9.27551 8.08452C8.05502 7.20806 6.73265 6.48301 5.33742 5.92528C4.52984 5.60033 3.69988 5.33404 2.854 5.12847C5.44128 2.33976 8.93697 0.563496 12.7147 0.117932C13.174 0.0612934 13.638 0.0256036 14.1112 0H15.029C15.4107 0 15.7979 0.0310346 16.1672 0.0667244C16.8948 0.13203 17.617 0.247652 18.3286 0.41276C21.4513 1.14139 24.2866 2.78298 26.4732 5.12847Z" fill="#1D2933"/>
<path d="M27.1575 47.5045L23.6601 51.0021L22.56 52.1023C22.3272 52.1636 22.0859 52.2202 21.847 52.2737L21.5467 52.3428C20.9825 52.4643 20.4135 52.5712 19.8399 52.6632L19.6964 52.6865C18.9169 52.8096 18.1282 52.9027 17.3301 52.9658C16.4509 53.0393 15.562 53.076 14.6636 53.076C13.7652 53.076 12.8764 53.0393 11.9971 52.9658C11.2006 52.9027 10.4118 52.8096 9.63083 52.6865H9.55325C8.9569 52.5908 8.36469 52.4806 7.77661 52.356C7.61524 52.3203 7.45387 52.2838 7.29172 52.2435C7.12957 52.2031 6.93794 52.1612 6.76338 52.1155L5.66326 51.0153L2.16895 47.5045C2.90356 46.7704 3.86429 46.3055 4.89582 46.1849C5.92735 46.0644 6.96937 46.2953 7.85342 46.8404C8.52198 47.2521 9.07446 47.8276 9.4586 48.5124C9.64004 48.2988 9.83712 48.0992 10.0482 47.9149C10.4189 47.5792 10.8265 47.2866 11.2632 47.0429C12.3002 46.4587 13.4703 46.1519 14.6605 46.1519C15.8507 46.1519 17.0208 46.4587 18.0578 47.0429C18.5147 47.2981 18.9399 47.6062 19.3248 47.9607C19.5164 48.1323 19.6963 48.3166 19.8632 48.5124C20.2081 47.8991 20.6887 47.3729 21.2682 46.9738C21.3325 46.9265 21.3993 46.8828 21.4684 46.8427C22.3524 46.2968 23.3948 46.0651 24.4268 46.1852C25.4588 46.3053 26.4201 46.7702 27.1552 47.5045H27.1575Z" fill="#798996"/>
<path d="M28.36 45.4845C27.356 44.6346 26.1306 44.0883 24.8274 43.9097C23.5241 43.731 22.197 43.9274 21.0013 44.4759L20.3248 38.2627L19.9764 35.0499L19.5947 31.5344C21.4322 30.9472 23.1493 30.0345 24.664 28.8398L26.8634 38.7438L27.415 41.2265L28.36 45.4845Z" fill="#798996"/>
<path d="M9.45539 31.449L9.05041 35.3159L8.72456 38.462L8.1039 44.3904C6.92797 43.8994 5.63933 43.7425 4.37995 43.9371C3.12056 44.1316 1.93931 44.67 0.966309 45.4929L1.91282 41.2334L2.46443 38.7507L4.66389 28.8413C6.10056 29.978 7.72069 30.86 9.45539 31.449Z" fill="#798996"/>
<path d="M25.6726 7.75879C22.4412 8.84939 19.6359 10.9309 17.6552 13.7073C16.9714 14.6669 16.3954 15.6988 15.9376 16.7844L15.8988 16.8744C15.0817 18.8393 14.6617 20.9464 14.6629 23.0744C14.665 20.9441 14.2449 18.8345 13.427 16.8674C13.3882 16.7751 13.3494 16.6828 13.3091 16.5928C12.7896 15.4112 12.1301 14.2963 11.3447 13.2721C10.5798 12.2696 9.70021 11.3601 8.72393 10.562C7.2169 9.32889 5.49887 8.37914 3.65314 7.75879C2.35162 9.47052 1.46617 11.4616 1.06682 13.5746C0.667476 15.6876 0.76518 17.8645 1.35221 19.9332C1.93924 22.0019 2.99949 23.9056 4.44912 25.4939C5.89875 27.0821 7.69799 28.3113 9.70457 29.0842C10.4309 29.3683 11.1806 29.5887 11.9452 29.7429C12.3401 29.8252 12.7427 29.8865 13.15 29.9299C13.3269 29.9501 13.5061 29.9656 13.6861 29.9757C14.0089 30.0013 14.3347 30.0114 14.6652 30.0114C14.992 30.0176 15.3188 30.0056 15.6443 29.9757C15.8237 29.9707 16.0027 29.9555 16.1804 29.9299C16.5753 29.8865 16.9647 29.8275 17.3441 29.7507C18.0217 29.6204 18.6881 29.4375 19.3372 29.2037C21.3887 28.4696 23.238 27.2616 24.7347 25.678C26.2314 24.0944 27.3332 22.1799 27.9505 20.0902C28.5679 18.0005 28.6834 15.7946 28.2875 13.6518C27.8917 11.5091 26.9958 9.49 25.6726 7.75879ZM10.0483 16.3895C10.0027 16.833 9.82964 17.2537 9.55004 17.6009C9.27043 17.9481 8.89625 18.2069 8.47271 18.3459C8.04918 18.485 7.59444 18.4984 7.16347 18.3844C6.7325 18.2705 6.34375 18.0342 6.04423 17.7041C5.7447 17.3739 5.54722 16.964 5.47566 16.524C5.40411 16.084 5.46154 15.6327 5.64101 15.2246C5.82049 14.8166 6.11432 14.4692 6.48699 14.2246C6.85965 13.98 7.2952 13.8486 7.74096 13.8462C7.82654 13.8462 7.91203 13.8514 7.99698 13.8617C8.561 13.9247 9.08202 14.1934 9.46044 14.6163C9.83887 15.0393 10.0481 15.5869 10.0483 16.1544V16.3895ZM22.3319 18.3416C22.0917 18.4236 21.8394 18.4643 21.5856 18.4619C21.0124 18.4649 20.4586 18.2544 20.0321 17.8714C19.6056 17.4885 19.3368 16.9605 19.2783 16.3903V16.1575C19.2784 15.59 19.4877 15.0424 19.8661 14.6194C20.2445 14.1965 20.7655 13.9278 21.3295 13.8649C21.4145 13.8548 21.5 13.8496 21.5856 13.8493C22.1328 13.8498 22.662 14.0448 23.0787 14.3994C23.4955 14.754 23.7727 15.2452 23.8608 15.7853C23.9489 16.3253 23.8422 16.8792 23.5597 17.3478C23.2772 17.8165 22.8374 18.1696 22.3187 18.3439L22.3319 18.3416Z" fill="#798996"/>
</g>
<defs>
<clipPath id="clip0_391_878">
<rect width="27.6923" height="60" fill="white" transform="translate(0.825195)"/>
</clipPath>
</defs>
</svg>
