<svg width="29" height="60" viewBox="0 0 29 60" fill="none" xmlns="http://www.w3.org/2000/svg">
<g clip-path="url(#clip0_836_9736)">
<path d="M19.6361 55.0282L18.9999 55.6644L14.6646 60.0007L10.3293 55.6644L9.69312 55.0282C10.0523 55.0817 10.4139 55.1283 10.7793 55.1694C13.3626 55.4566 15.9697 55.4566 18.553 55.1694C18.9177 55.1283 19.28 55.0817 19.6361 55.0282Z" fill="#1D2933"/>
<path d="M18.9969 44.9233C17.6677 44.2189 16.1868 43.8492 14.6825 43.8465C13.1782 43.8438 11.6959 44.2081 10.3643 44.9078L11.244 36.4462L11.6599 32.4653L11.7033 32.037L11.9268 32.0781C12.7727 32.2222 13.6289 32.2985 14.487 32.3062H14.8097C15.6744 32.2993 16.537 32.2228 17.3894 32.0773L17.5841 32.0416L17.6252 32.421L18.0612 36.4338L18.9969 44.9233Z" fill="#1D2933"/>
<path d="M26.4742 5.12847C25.6272 5.33158 24.7959 5.59555 23.9869 5.9183C20.5355 7.29925 17.5792 9.68658 15.5025 12.77C15.2035 13.2112 14.924 13.6666 14.6638 14.1363C14.3763 13.6146 14.0622 13.1081 13.7227 12.6187C13.1133 11.7324 12.4269 10.9016 11.6715 10.1359C10.9323 9.38586 10.1312 8.69963 9.27648 8.08452C8.056 7.20806 6.73363 6.48301 5.3384 5.92528C4.53082 5.60033 3.70086 5.33404 2.85498 5.12847C5.44226 2.33976 8.93794 0.563496 12.7157 0.117932C13.175 0.0612934 13.639 0.0256036 14.1122 0H15.03C15.4117 0 15.7988 0.0310346 16.1681 0.0667244C16.8957 0.13203 17.618 0.247652 18.3296 0.41276C21.4523 1.14139 24.2875 2.78298 26.4742 5.12847Z" fill="#1D2933"/>
<path d="M27.1585 47.5047L23.6611 51.0023L22.5609 52.1025C22.3282 52.1638 22.0869 52.2204 21.848 52.274L21.5477 52.343C20.9834 52.4646 20.4145 52.5714 19.8409 52.6635L19.6974 52.6868C18.9179 52.8099 18.1292 52.903 17.3311 52.9661C16.4518 53.0395 15.563 53.0762 14.6646 53.0762C13.7662 53.0762 12.8773 53.0395 11.9981 52.9661C11.2016 52.903 10.4128 52.8099 9.63181 52.6868H9.55423C8.95788 52.5911 8.36566 52.4809 7.77759 52.3562C7.61622 52.3205 7.45484 52.2841 7.2927 52.2437C7.13055 52.2034 6.93892 52.1615 6.76436 52.1157L5.66424 51.0155L2.16992 47.5047C2.90454 46.7706 3.86527 46.3057 4.8968 46.1852C5.92832 46.0647 6.97034 46.2956 7.85439 46.8406C8.52295 47.2523 9.07543 47.8278 9.45958 48.5126C9.64101 48.2991 9.8381 48.0994 10.0492 47.9152C10.4199 47.5794 10.8275 47.2869 11.2641 47.0431C12.3012 46.459 13.4713 46.1521 14.6615 46.1521C15.8517 46.1521 17.0218 46.459 18.0588 47.0431C18.5156 47.2984 18.9408 47.6064 19.3257 47.961C19.5174 48.1326 19.6972 48.3169 19.8642 48.5126C20.2091 47.8994 20.6897 47.3731 21.2692 46.9741C21.3335 46.9268 21.4003 46.883 21.4694 46.8429C22.3534 46.297 23.3957 46.0654 24.4278 46.1855C25.4598 46.3056 26.4211 46.7704 27.1562 47.5047H27.1585Z" fill="#798996"/>
<path d="M28.361 45.4844C27.357 44.6344 26.1316 44.0882 24.8283 43.9095C23.5251 43.7309 22.1979 43.9273 21.0023 44.4757L20.3258 38.2626L19.9774 35.0497L19.5957 31.5343C21.4332 30.947 23.1502 30.0343 24.6649 28.8397L26.8644 38.7436L27.416 41.2264L28.361 45.4844Z" fill="#798996"/>
<path d="M9.45637 31.449L9.05139 35.3159L8.72554 38.462L8.10488 44.3904C6.92894 43.8994 5.64031 43.7425 4.38092 43.9371C3.12154 44.1316 1.94028 44.67 0.967285 45.4929L1.91379 41.2334L2.4654 38.7507L4.66487 28.8413C6.10154 29.978 7.72166 30.86 9.45637 31.449Z" fill="#798996"/>
<path d="M25.6736 7.75867C22.4422 8.84927 19.6368 10.9307 17.6562 13.7072C16.9724 14.6667 16.3964 15.6987 15.9385 16.7843L15.8997 16.8743C15.0827 18.8391 14.6627 20.9463 14.6638 23.0743C14.666 20.9439 14.2459 18.8343 13.428 16.8673C13.3892 16.775 13.3504 16.6827 13.31 16.5927C12.7906 15.4111 12.1311 14.2962 11.3456 13.272C10.5807 12.2695 9.70118 11.3599 8.72491 10.5619C7.21787 9.32877 5.49985 8.37902 3.65411 7.75867C2.35259 9.4704 1.46715 11.4615 1.0678 13.5745C0.668453 15.6874 0.766157 17.8644 1.35318 19.9331C1.94021 22.0018 3.00046 23.9055 4.45009 25.4938C5.89972 27.082 7.69897 28.3112 9.70555 29.0841C10.4319 29.3682 11.1816 29.5886 11.9461 29.7428C12.341 29.8251 12.7437 29.8863 13.151 29.9298C13.3279 29.95 13.5071 29.9655 13.6871 29.9756C14.0098 30.0012 14.3357 30.0113 14.6662 30.0113C14.9929 30.0174 15.3198 30.0055 15.6453 29.9756C15.8247 29.9706 16.0037 29.9553 16.1814 29.9298C16.5763 29.8863 16.9657 29.8274 17.3451 29.7506C18.0227 29.6203 18.689 29.4374 19.3382 29.2036C21.3897 28.4695 23.239 27.2615 24.7357 25.6779C26.2323 24.0943 27.3342 22.1798 27.9515 20.0901C28.5689 18.0004 28.6843 15.7944 28.2885 13.6517C27.8927 11.5089 26.9968 9.48987 25.6736 7.75867ZM10.0492 16.3894C10.0037 16.8329 9.83062 17.2536 9.55101 17.6008C9.27141 17.948 8.89722 18.2068 8.47369 18.3458C8.05016 18.4849 7.59542 18.4982 7.16445 18.3843C6.73348 18.2704 6.34473 18.0341 6.0452 17.7039C5.74568 17.3738 5.5482 16.9639 5.47664 16.5239C5.40509 16.0839 5.46252 15.6326 5.64199 15.2245C5.82146 14.8164 6.1153 14.4691 6.48796 14.2245C6.86063 13.9799 7.29617 13.8484 7.74194 13.8461C7.82751 13.8461 7.91301 13.8513 7.99796 13.8616C8.56197 13.9246 9.083 14.1932 9.46142 14.6162C9.83984 15.0392 10.0491 15.5868 10.0492 16.1543V16.3894ZM22.3329 18.3415C22.0927 18.4235 21.8403 18.4641 21.5865 18.4617C21.0134 18.4647 20.4596 18.2543 20.0331 17.8713C19.6065 17.4884 19.3378 16.9604 19.2792 16.3902V16.1574C19.2794 15.5899 19.4886 15.0423 19.8671 14.6193C20.2455 14.1964 20.7665 13.9277 21.3305 13.8647C21.4155 13.8547 21.501 13.8495 21.5865 13.8492C22.1337 13.8497 22.663 14.0446 23.0797 14.3992C23.4965 14.7539 23.7736 15.2451 23.8617 15.7851C23.9498 16.3252 23.8431 16.879 23.5607 17.3477C23.2782 17.8164 22.8384 18.1694 22.3197 18.3438L22.3329 18.3415Z" fill="#798996"/>
</g>
<defs>
<clipPath id="clip0_836_9736">
<rect width="27.6923" height="60" fill="white" transform="translate(0.826172)"/>
</clipPath>
</defs>
</svg>
