<svg width="21" height="21" viewBox="0 0 21 21" fill="none" xmlns="http://www.w3.org/2000/svg">
<path d="M9.05929 0.525087C6.72255 0.763849 4.59325 1.76978 2.94148 3.41764C-0.980494 7.33179 -0.980494 13.6727 2.94148 17.5869C4.53063 19.1721 6.46813 20.1232 8.7853 20.452C9.25109 20.5185 10.7893 20.5146 11.2708 20.4481C13.541 20.135 15.5333 19.1564 17.099 17.5829C18.9151 15.755 19.9289 13.43 20.0267 10.8545C20.1285 8.07156 19.0795 5.40211 17.095 3.41764C15.5568 1.87547 13.6075 0.900845 11.4078 0.575972C10.9303 0.505516 9.54073 0.474203 9.05929 0.525087ZM11.4665 2.00463C13.2827 2.33342 14.8287 3.13974 16.1048 4.41575C17.7448 6.05578 18.6294 8.18899 18.6294 10.5022C18.6294 12.8155 17.7448 14.9487 16.1048 16.5887C14.4647 18.2288 12.3315 19.1134 10.0183 19.1134C7.70891 19.1134 5.56787 18.2249 3.93176 16.5887C2.63618 15.2932 1.83378 13.7314 1.49716 11.8526C1.39931 11.2929 1.39931 9.71159 1.49716 9.15187C1.83378 7.27308 2.63618 5.71133 3.93176 4.41575C5.32911 3.0184 7.02002 2.20034 9.05929 1.93027C9.54073 1.86764 10.9537 1.91069 11.4665 2.00463Z" fill="#070707"/>
<path d="M9.49807 5.49616C8.82484 5.55096 8.21423 5.8132 7.79933 6.22028C7.2083 6.79957 7.13393 7.53934 7.63494 7.84856C8.03027 8.09515 8.3434 8.0247 8.62913 7.62937C8.96575 7.15576 9.20843 7.01485 9.73684 6.98745C10.5666 6.94048 11.0755 7.31624 11.0285 7.93467C10.9933 8.36523 10.8289 8.58834 10.1556 9.1324C9.46676 9.68821 9.228 10.0131 9.07535 10.6119C8.97358 11.019 8.97358 11.7079 9.07535 11.9388C9.18103 12.1698 9.33368 12.2402 9.72901 12.2402C10.2966 12.2402 10.4884 12.0602 10.4884 11.52C10.4884 10.8546 10.6684 10.5258 11.3103 9.9896C12.3358 9.14414 12.8016 8.26346 12.6803 7.40235C12.4963 6.12242 11.2125 5.35134 9.49807 5.49616Z" fill="#070707"/>
<path d="M9.41126 13.2108C8.71063 13.4692 8.50318 14.3459 9.01202 14.8783C9.41126 15.2971 10.0219 15.2932 10.4289 14.8744C11.0474 14.2363 10.6481 13.2187 9.76353 13.1756C9.63437 13.1717 9.4778 13.1874 9.41126 13.2108Z" fill="#070707"/>
</svg>
