<svg width="21" height="19" viewBox="0 0 21 19" fill="none" xmlns="http://www.w3.org/2000/svg">
<path d="M8.96789 0.551903C7.28047 0.788733 5.88064 1.38081 4.63305 2.37888C4.4512 2.5269 3.99868 2.94135 3.62652 3.30082C3.25436 3.6603 2.94564 3.95634 2.94141 3.95634C2.93295 3.95634 2.92872 3.62224 2.92872 3.21624C2.92872 2.41271 2.9118 2.32813 2.6792 2.08284C2.52695 1.91368 2.32819 1.84178 2.03215 1.84178C1.66422 1.84178 1.39355 2.00249 1.23708 2.30698C1.16941 2.44231 1.16095 2.63262 1.14826 4.54841L1.13135 6.64182L1.24976 6.84482C1.31743 6.95478 1.4443 7.09434 1.53734 7.15777L1.70228 7.26773L3.6815 7.25927C4.76838 7.25504 5.72416 7.24236 5.80451 7.22544C6.10055 7.17469 6.32047 7.02667 6.43888 6.78984C6.67148 6.32464 6.51501 5.7664 6.08364 5.52957C5.97368 5.47036 5.7876 5.45344 4.99253 5.43653L4.03252 5.41538L4.50618 4.89943C5.08979 4.26083 5.44081 3.95634 6.03712 3.55457C8.98481 1.57535 12.7995 1.93905 15.2735 4.42577C18.0774 7.24658 18.0689 11.7717 15.2523 14.5883C13.5142 16.3223 11.074 17.0539 8.66339 16.5549C7.43272 16.3011 6.21051 15.6794 5.18284 14.7871C4.70495 14.3726 4.51041 14.3007 4.14247 14.4065C3.96062 14.4572 3.67304 14.694 3.58423 14.8717C3.49119 15.0493 3.46582 15.2988 3.52079 15.4976C3.58 15.7175 3.83798 16.0093 4.38776 16.466C5.57191 17.4599 6.96752 18.0985 8.57458 18.3818C9.30622 18.5129 10.5073 18.5383 11.2601 18.441C15.7852 17.8701 19.1685 14.0428 19.1685 9.49647C19.1685 5.11511 16.0305 1.38927 11.683 0.60688C11.0528 0.492695 9.58111 0.463091 8.96789 0.551903Z" fill="#070707"/>
</svg>
