<svg width="24" height="25" viewBox="0 0 24 25" fill="none" xmlns="http://www.w3.org/2000/svg">
<path d="M9.3167 0.539555C7.54804 0.786501 6.05969 1.33379 4.7115 2.24148C2.29544 3.86331 0.733674 6.21263 0.159693 9.09589C-0.0538819 10.1704 -0.0538819 11.9324 0.159693 13.007C0.373267 14.0615 0.64691 14.8624 1.10743 15.7901C3.12971 19.828 7.47462 22.1239 11.933 21.5299C13.6082 21.3097 15.3569 20.6289 16.6116 19.7079L16.9386 19.4743L19.3147 21.8503C21.7841 24.3131 22.0044 24.4933 22.525 24.5C23.3325 24.5066 24.0066 23.8325 24 23.025C23.9933 22.5044 23.8131 22.2841 21.357 19.8213L18.981 17.4453L19.3948 16.8179C21.2836 13.9414 21.6506 10.2906 20.3625 7.1003C19.0076 3.7365 15.9776 1.28039 12.3868 0.632994C11.7127 0.506184 9.92406 0.459465 9.3167 0.539555ZM11.8929 3.44283C13.4814 3.72315 14.8229 4.43062 15.9976 5.60528C16.6917 6.29939 17.0655 6.81331 17.4592 7.60754C18.5071 9.70324 18.5338 12.2728 17.526 14.3952C16.7985 15.9102 15.3769 17.3185 13.8084 18.0593C11.913 18.9604 9.47688 18.9937 7.47462 18.1394C5.88616 17.4653 4.33107 15.9703 3.57689 14.3952C2.56908 12.2728 2.59578 9.70324 3.64363 7.60754C4.03741 6.81331 4.41116 6.29939 5.10528 5.60528C6.31998 4.3839 7.74826 3.66308 9.51693 3.38944C9.95743 3.31602 11.3523 3.3494 11.8929 3.44283Z" fill="#005CB8"/>
</svg>
