<svg width="42" height="42" viewBox="0 0 42 42" fill="none" xmlns="http://www.w3.org/2000/svg">
<path d="M19.1877 1.06763C15.4176 1.40397 11.757 2.86665 8.62823 5.27578C7.10298 6.44905 5.12406 8.6548 3.98207 10.4538C3.4893 11.2282 2.52721 13.1993 2.18305 14.1379C1.79978 15.186 1.38522 16.7973 1.18186 18.041C0.939381 19.5662 0.939381 22.4603 1.18186 23.9856C1.53384 26.1444 2.08919 27.8808 3.03563 29.8128C4.06811 31.9169 5.1397 33.4109 6.8605 35.1395C8.58912 36.8603 10.0831 37.9319 12.1872 38.9644C14.1192 39.9108 15.8556 40.4662 18.0144 40.8181C19.5397 41.0606 22.4338 41.0606 23.959 40.8181C25.2027 40.6148 26.814 40.2002 27.8621 39.8169C28.8007 39.4728 30.7718 38.5107 31.5462 38.0179C34.057 36.4223 36.3957 34.0836 37.9914 31.5727C38.4841 30.7984 39.4462 28.8273 39.7904 27.8887C40.4396 26.1053 40.8854 23.9152 40.9793 21.9519C41.0419 20.7473 40.9793 20.4579 40.596 20.0199C39.7982 19.1126 38.3199 19.5115 38.0461 20.7004C37.9992 20.896 37.9601 21.3183 37.9601 21.6547C37.9601 22.5464 37.7411 24.0482 37.4516 25.2058C35.9577 31.1738 31.1473 35.9843 25.1792 37.4782C22.4494 38.1665 19.4771 38.1587 16.7629 37.4704C10.0674 35.7574 5.02237 30.0631 4.13851 23.219C3.98207 21.9832 3.98207 20.0434 4.13851 18.8075C5.01455 11.9713 10.0753 6.26915 16.7629 4.55617C17.9362 4.25894 19.438 4.03993 20.3453 4.03993C21.4638 4.03211 22.0348 3.77399 22.3242 3.14824C22.6919 2.34259 22.379 1.51348 21.5733 1.13803C21.2292 0.981594 20.447 0.95813 19.1877 1.06763Z" fill="#159300" stroke="#159300" stroke-width="2"/>
<path d="M38.4689 6.06583C38.3438 6.09712 38.1482 6.16752 38.0387 6.23009C37.9292 6.28485 33.7445 10.4226 28.7308 15.4286L19.6183 24.5175L17.35 22.0536C13.1497 17.4779 12.9307 17.251 12.5552 17.0868C11.8434 16.7661 10.9987 17.0633 10.6702 17.7438C10.459 18.1818 10.459 18.7372 10.6545 19.1205C10.7875 19.3786 13.0402 21.8581 17.2953 26.4417C18.7188 27.9748 19.0161 28.2094 19.5792 28.2094C20.2363 28.2094 20.1111 28.3267 30.3108 18.1427C40.8546 7.61456 40.3775 8.13079 40.2914 7.36426C40.1897 6.50386 39.2824 5.86247 38.4689 6.06583Z" fill="#159300" stroke="#159300" stroke-width="2"/>
</svg>
