<svg width="22" height="26" viewBox="0 0 22 26" fill="none" xmlns="http://www.w3.org/2000/svg">
<path d="M2.88099 1.06203C2.07418 1.25904 1.34712 1.92513 1.08912 2.7038C1.00469 2.97117 1 3.24323 1 12.9953C1 22.7474 1.00469 23.0194 1.08912 23.2868C1.27675 23.8544 1.75052 24.4126 2.29465 24.6987C2.91852 25.0224 2.3697 25.0083 11.0945 24.9943L18.9656 24.9802L19.2658 24.8723C20.0069 24.6049 20.612 23.9951 20.8466 23.2868C20.931 23.0194 20.9357 22.7474 20.9357 12.9953C20.9357 3.24323 20.931 2.97117 20.8466 2.7038C20.612 1.99549 20.0069 1.38569 19.2658 1.11832L18.9656 1.01043L11.0617 1.00105C4.36327 0.996363 3.11553 1.00574 2.88099 1.06203ZM19.0031 2.08462C19.3127 2.20189 19.702 2.57245 19.8381 2.87266L19.9506 3.12127V12.9953V22.8693L19.8381 23.118C19.6927 23.4369 19.308 23.7934 18.9797 23.9107C18.7404 23.9904 18.3745 23.9951 10.9679 23.9951C3.56115 23.9951 3.19527 23.9904 2.95604 23.9107C2.62769 23.7934 2.24305 23.4369 2.09764 23.118L1.98506 22.8693V13.0188C1.98506 3.44493 1.98975 3.16349 2.07418 2.93833C2.17269 2.68034 2.44944 2.35668 2.70274 2.1972C3.06393 1.97204 2.87161 1.97673 11.0617 1.98611C18.4543 1.99549 18.7873 2.00018 19.0031 2.08462Z" fill="#070707" stroke="#070707" stroke-width="0.3"/>
<path d="M5.81729 9.0081L4.20367 9.03155L4.09109 9.16289C3.98321 9.28955 3.97852 9.32238 3.97852 9.99785V10.7062L4.11455 10.8422C4.21305 10.9407 4.29749 10.9782 4.41945 10.9782C4.7994 10.9782 4.96357 10.7765 4.96357 10.3027V9.99316H5.97209H6.9806L6.97122 12.4886L6.95714 14.9888L6.60065 15.0123C6.19724 15.0404 6.07997 15.1061 5.99554 15.3641C5.92518 15.5705 6.02837 15.8238 6.22539 15.9223C6.44116 16.0348 8.52386 16.0302 8.71618 15.9176C8.98824 15.7581 9.03515 15.3735 8.81468 15.1483C8.68803 15.0216 8.65051 15.0123 8.32215 15.0123H7.96566V12.5027V9.99316H8.97417H9.98268V10.3497C9.98268 10.678 9.99206 10.7155 10.1187 10.8422C10.3439 11.0626 10.7285 11.0157 10.888 10.7437C10.9537 10.6405 10.9677 10.4857 10.9677 9.99316C10.9677 9.35052 10.9208 9.16289 10.7379 9.06908C10.63 9.01748 7.71705 8.97996 5.81729 9.0081Z" fill="#070707" stroke="#070707" stroke-width="0.3"/>
<path d="M13.1209 9.14414C12.9004 9.36929 12.9473 9.75394 13.2194 9.91342C13.3367 9.98378 13.5759 9.99316 15.471 9.99316C17.366 9.99316 17.6053 9.98378 17.7225 9.91342C17.9946 9.75394 18.0415 9.36929 17.821 9.14414L17.685 9.00811H15.471H13.2569L13.1209 9.14414Z" fill="#070707" stroke="#070707" stroke-width="0.3"/>
<path d="M13.1209 12.1461C12.9004 12.3712 12.9473 12.7559 13.2194 12.9154C13.3367 12.9857 13.5759 12.9951 15.471 12.9951C17.366 12.9951 17.6053 12.9857 17.7225 12.9154C17.9946 12.7559 18.0415 12.3712 17.821 12.1461L17.685 12.0101H15.471H13.2569L13.1209 12.1461Z" fill="#070707" stroke="#070707" stroke-width="0.3"/>
<path d="M13.1209 15.1485C12.9004 15.3737 12.9473 15.7583 13.2194 15.9178C13.3367 15.9882 13.5759 15.9976 15.471 15.9976C17.366 15.9976 17.6053 15.9882 17.7225 15.9178C17.9946 15.7583 18.0415 15.3737 17.821 15.1485L17.685 15.0125H15.471H13.2569L13.1209 15.1485Z" fill="#070707" stroke="#070707" stroke-width="0.3"/>
<path d="M4.11504 18.1505C3.89457 18.3756 3.94148 18.7603 4.21355 18.9198C4.3355 18.9948 4.87494 18.9995 10.9682 18.9995C17.0615 18.9995 17.601 18.9948 17.7229 18.9198C17.995 18.7603 18.0419 18.3756 17.8214 18.1505L17.6854 18.0145H10.9682H4.25107L4.11504 18.1505Z" fill="#070707" stroke="#070707" stroke-width="0.3"/>
<path d="M4.11504 21.1524C3.89457 21.3776 3.94148 21.7622 4.21355 21.9217C4.3355 21.9968 4.87494 22.0015 10.9682 22.0015C17.0615 22.0015 17.601 21.9968 17.7229 21.9217C17.995 21.7622 18.0419 21.3776 17.8214 21.1524L17.6854 21.0164H10.9682H4.25107L4.11504 21.1524Z" fill="#070707" stroke="#070707" stroke-width="0.3"/>
</svg>
