<svg width="22" height="24" viewBox="0 0 22 24" fill="none" xmlns="http://www.w3.org/2000/svg">
<path d="M10.6405 0.0692673C10.5492 0.106858 10.3398 0.294813 10.1787 0.482769C9.43226 1.34199 6.83847 4.53186 6.79551 4.65001C6.66126 5.00444 6.80088 5.45016 7.11772 5.66496C7.35938 5.83144 7.76751 5.84218 8.01454 5.69182C8.1112 5.63274 8.61599 5.06888 9.14227 4.42983L10.1035 3.27525L10.1304 5.97106C10.1572 8.54337 10.1626 8.67225 10.2646 8.84409C10.4204 9.10186 10.6781 9.24149 10.9896 9.24149C11.3011 9.24149 11.5588 9.10186 11.7146 8.84409C11.8166 8.67225 11.822 8.54337 11.8488 5.97106L11.8757 3.27525L12.8155 4.4352C13.331 5.06888 13.8304 5.62737 13.9163 5.67571C14.1419 5.79385 14.5285 5.78311 14.7541 5.65422C14.9796 5.51997 15.1783 5.18702 15.1783 4.92925C15.1783 4.82185 15.1246 4.63927 15.0602 4.52112C14.9904 4.40298 14.1687 3.37191 13.229 2.23344C11.7951 0.493509 11.489 0.149819 11.3064 0.0800076C11.054 -0.0220251 10.8553 -0.0273952 10.6405 0.0692673Z" fill="#070707"/>
<path d="M1.13553 11.1318C0.775728 11.2875 0.571662 11.701 0.646844 12.1038C0.695176 12.3562 0.963683 12.6515 1.20534 12.7213C1.34496 12.7643 4.38984 12.775 11.0542 12.7643L20.7044 12.7482L20.8494 12.6354C21.134 12.426 21.2199 12.2541 21.2199 11.9158C21.2199 11.5775 21.134 11.4057 20.8494 11.1962L20.7044 11.0834L11.0005 11.0727C3.01508 11.062 1.26978 11.0727 1.13553 11.1318Z" fill="#070707"/>
<path d="M10.6137 14.8748C10.458 14.9392 10.2539 15.1218 10.168 15.2722C10.1196 15.3473 10.0982 16.169 10.0767 18.0593L10.0498 20.739L9.08858 19.6005C8.56231 18.9722 8.05751 18.4083 7.96085 18.3546C7.74604 18.215 7.2681 18.2365 7.05866 18.3868C6.73108 18.6339 6.60757 19.1011 6.77405 19.4501C6.90293 19.7133 10.2915 23.7355 10.5009 23.8751C10.748 24.0416 11.1239 24.0416 11.3709 23.8751C11.5803 23.7355 14.9689 19.7133 15.0978 19.4501C15.2643 19.1011 15.1407 18.6339 14.8132 18.3868C14.6037 18.2365 14.1258 18.215 13.9056 18.3546C13.8143 18.4137 13.2988 18.9829 12.7671 19.622L11.8005 20.7819L11.7844 18.07C11.7683 15.4279 11.7629 15.3581 11.6555 15.2131C11.5964 15.1325 11.4837 15.0144 11.4085 14.9607C11.242 14.8372 10.8124 14.7888 10.6137 14.8748Z" fill="#070707"/>
</svg>
