<svg width="75" height="60" viewBox="0 0 75 60" fill="none" xmlns="http://www.w3.org/2000/svg">
<g clip-path="url(#clip0_836_9740)">
<path d="M32.0206 19.4044C31.9959 19.1507 31.8848 18.9033 31.6995 18.724C31.65 18.6744 31.5883 18.625 31.5266 18.5817L26.8269 15.724C26.5057 15.5322 26.3081 15.1734 26.3081 14.8023V2.09096C26.2834 1.83735 26.1722 1.58993 25.9869 1.41055C25.9375 1.36107 25.8758 1.31158 25.8141 1.26828L23.844 0.0744666C23.6896 -0.0183168 23.4982 -0.0245024 23.3437 0.0682811C23.1832 0.154879 23.0906 0.321889 23.0906 0.50127V17.1281C23.0906 17.5178 23.2943 17.8827 23.6279 18.0807L27.6667 20.5363C27.9879 20.7342 28.1855 21.0869 28.1855 21.458V25.1075V25.126V25.2992C28.2102 25.5528 28.3213 25.8002 28.5067 25.9796C28.5561 26.0291 28.6178 26.0786 28.6795 26.1219L31.2425 27.6744L31.2672 27.6869C31.2795 27.693 31.2856 27.6992 31.2981 27.7054C31.3042 27.7115 31.3104 27.7115 31.3166 27.7178C31.3845 27.7487 31.4524 27.7611 31.5266 27.7611C31.6192 27.7611 31.7118 27.7363 31.7921 27.6807C31.9342 27.5879 32.0206 27.4332 32.0206 27.26V19.5775V19.4044Z" fill="#070707"/>
<path d="M36.7636 8.44342C36.7388 8.18981 36.6277 7.9424 36.4423 7.76302C36.3929 7.71352 36.3312 7.66404 36.2695 7.62075L28.6424 2.98775V2.98157H28.6301L28.6116 2.9692C28.5992 2.96302 28.5931 2.95683 28.5807 2.95064H28.5746C28.5684 2.95064 28.5684 2.94446 28.5622 2.94446C28.4078 2.87023 28.2287 2.8826 28.0867 2.97538C27.9446 3.06817 27.8582 3.22281 27.8582 3.396V10.8744L27.8706 10.8805V12.6249C27.8952 12.8784 28.0064 13.1259 28.1917 13.3053C28.2411 13.3548 28.3028 13.4042 28.3646 13.4476L33.0396 16.293C33.3607 16.4847 33.5583 16.8434 33.5583 17.2145V36.2661C33.5831 36.5197 33.6942 36.7671 33.8794 36.9465C33.9288 36.996 33.9907 37.0455 34.0524 37.0888L35.9977 38.2703L36.0224 38.2826C36.0348 38.2888 36.041 38.295 36.0533 38.3011C36.0595 38.3074 36.0656 38.3074 36.0718 38.3074C36.1398 38.3382 36.2077 38.3507 36.2818 38.3507C36.3744 38.3507 36.4671 38.3259 36.5474 38.2703C36.6894 38.1774 36.7759 38.0228 36.7759 37.8496V10.9053L36.7636 10.8991V8.44342Z" fill="#070707"/>
<path d="M51.8016 0.0683456C51.641 -0.0182523 51.4557 -0.0182523 51.3013 0.0745312L49.3313 1.26835C49.2695 1.31164 49.2078 1.35495 49.1584 1.41062C48.9731 1.59618 48.8619 1.83741 48.8372 2.09102V14.7962C48.8372 15.1735 48.6396 15.5261 48.3184 15.7178L43.6187 18.5755C43.557 18.6188 43.4953 18.6622 43.4459 18.7178C43.2606 18.9034 43.1494 19.1446 43.1248 19.3982V19.5715V27.2539C43.1248 27.4271 43.2111 27.5817 43.3533 27.6745C43.4335 27.724 43.5261 27.7549 43.6187 27.7549C43.6867 27.7549 43.7608 27.7426 43.8287 27.7116C43.8349 27.7116 43.8411 27.7055 43.8472 27.6993C43.8597 27.693 43.8658 27.6869 43.8781 27.6807L46.404 26.1653L46.4658 26.1282C46.5275 26.0849 46.5893 26.0415 46.6387 25.9859C46.824 25.8003 46.9351 25.5591 46.9598 25.3055V25.1322V21.4642C46.9598 21.0869 47.1574 20.7343 47.4786 20.5426L51.5175 18.0869C51.851 17.8828 52.0547 17.5178 52.0547 17.1343V0.501335C52.0547 0.315768 51.9621 0.154943 51.8016 0.0683456Z" fill="#070707"/>
<path d="M46.7807 13.4414C46.8424 13.398 46.9042 13.3548 46.9536 13.2991C47.1388 13.1136 47.25 12.8723 47.2747 12.6187V10.8805L47.2871 10.8744V3.396C47.2871 3.22281 47.2006 3.06817 47.0586 2.97538C46.9103 2.8826 46.7375 2.87023 46.583 2.94446C46.5769 2.94446 46.5769 2.95064 46.5707 2.95064L46.5645 2.95683C46.5522 2.96302 46.546 2.9692 46.5336 2.97538L46.5151 2.98775H46.5027V2.99394L38.9376 7.58982L38.8758 7.62694C38.8141 7.67023 38.7523 7.71353 38.7028 7.7692C38.5176 7.95477 38.4065 8.196 38.3817 8.44961V10.8991L38.3694 10.9053V37.8558C38.3694 38.029 38.4559 38.1836 38.5979 38.2764C38.6782 38.3321 38.7708 38.3568 38.8635 38.3568C38.9313 38.3568 39.0055 38.3445 39.0735 38.3135C39.0796 38.3135 39.0858 38.3074 39.092 38.3011C39.1043 38.2949 39.1104 38.2888 39.1229 38.2826L41.0929 37.0888C41.1546 37.0455 41.2164 37.0022 41.2658 36.9465C41.4511 36.7609 41.5622 36.5197 41.587 36.2661V17.2145C41.587 16.8372 41.7845 16.4847 42.1057 16.2929L46.7189 13.4909L46.7807 13.4414Z" fill="#070707"/>
<path d="M6.3793 48.7115V48.8414C6.37312 48.8414 6.37312 48.8414 6.36694 48.8352C6.37312 48.7919 6.3793 48.7487 6.3793 48.7115Z" fill="#070707"/>
<path d="M4.27965 45.0314C4.27965 45.4644 3.92764 45.817 3.49534 45.817H1.92055C1.48825 45.817 1.13623 45.4644 1.13623 45.0314C1.13623 44.5985 1.48825 44.2458 1.92055 44.2458H3.49534C3.92764 44.2458 4.27965 44.5985 4.27965 45.0314Z" fill="#070707"/>
<path d="M6.3793 48.7115V48.8414C6.37312 48.8414 6.37312 48.8414 6.36694 48.8352C6.37312 48.7919 6.3793 48.7487 6.3793 48.7115Z" fill="#070707"/>
<path d="M9.52281 46.6087V56.0603C9.52281 57.3469 8.90528 58.4912 7.94805 59.2087C7.29343 59.7036 6.47207 59.9943 5.58894 59.9943C4.70582 59.9943 3.88445 59.7036 3.22983 59.2087C2.2726 58.4912 1.65503 57.3469 1.65503 56.0603V53.4376C1.65503 53.0047 2.00704 52.652 2.43934 52.652C2.71725 52.652 2.9581 52.7943 3.10014 53.0108C3.18043 53.1345 3.22365 53.283 3.22365 53.4376V56.0603C3.22365 57.3655 4.2797 58.4232 5.58277 58.4232C6.88583 58.4232 7.94188 57.3655 7.94188 56.0603V46.6087C7.94188 46.1758 7.58987 45.8232 7.15757 45.8232C6.72527 45.8232 6.37326 46.1758 6.37326 46.6087V48.7118C6.37326 48.7551 6.36707 48.7985 6.3609 48.8356C6.29915 49.2129 5.97801 49.4974 5.58277 49.4974C5.15047 49.4974 4.79846 49.1448 4.79846 48.7118V46.6087C4.79846 45.582 5.45308 44.7036 6.37326 44.382C6.62028 44.2954 6.88583 44.2458 7.15757 44.2458C7.43547 44.2458 7.70103 44.2954 7.94188 44.382C8.86823 44.7036 9.52281 45.582 9.52281 46.6087Z" fill="#070707"/>
<path d="M27.6113 56.8518C28.0435 56.8518 28.3956 57.2044 28.3956 57.6374V59.2148C28.3956 59.6477 28.0435 60.0003 27.6113 60.0003C27.1789 60.0003 26.8269 59.6477 26.8269 59.2148V57.6374C26.8269 57.2044 27.1789 56.8518 27.6113 56.8518Z" fill="#070707"/>
<path d="M28.3957 48.1857V52.3857C28.3957 52.8187 28.0437 53.1712 27.6114 53.1712C27.1791 53.1712 26.8271 52.8187 26.8271 52.3857V48.1857C26.8271 46.8806 25.771 45.8228 24.468 45.8228C23.1649 45.8228 22.1089 46.8806 22.1089 48.1857V59.2146C22.1089 59.6475 21.7568 60.0001 21.3246 60.0001C20.8922 60.0001 20.5403 59.6475 20.5403 59.2146V48.1857C20.5403 46.8991 21.1578 45.7548 22.115 45.0372C22.7697 44.5424 23.5911 44.2517 24.4742 44.2517C25.3573 44.2517 26.1663 44.5362 26.8271 45.031C27.7781 45.7485 28.3957 46.8929 28.3957 48.1857Z" fill="#070707"/>
<path d="M73.2251 56.8518C73.6573 56.8518 74.0093 57.2044 74.0093 57.6374V59.2148C74.0093 59.6477 73.6573 60.0003 73.2251 60.0003C72.7927 60.0003 72.4407 59.6477 72.4407 59.2148V57.6374C72.4407 57.2044 72.7927 56.8518 73.2251 56.8518Z" fill="#070707"/>
<path d="M74.0093 48.1857V52.3857C74.0093 52.8187 73.6573 53.1712 73.225 53.1712C72.7927 53.1712 72.4407 52.8187 72.4407 52.3857V48.1857C72.4407 46.8806 71.3846 45.8228 70.0815 45.8228C68.7785 45.8228 67.7225 46.8806 67.7225 48.1857V59.2146C67.7225 59.6475 67.3704 60.0001 66.9381 60.0001C66.5058 60.0001 66.1538 59.6475 66.1538 59.2146V48.1857C66.1538 46.8991 66.7714 45.7548 67.7286 45.0372C68.3832 44.5424 69.2046 44.2517 70.0877 44.2517C70.9709 44.2517 71.7922 44.5424 72.4468 45.0372C73.3917 45.7485 74.0093 46.8929 74.0093 48.1857Z" fill="#070707"/>
<path d="M45.6999 47.3938V52.3855C45.6999 52.8185 45.3479 53.1711 44.9156 53.1711C44.4833 53.1711 44.1313 52.8185 44.1313 52.3855V47.3938C44.1313 46.5216 43.4273 45.8164 42.5565 45.8164C41.6857 45.8164 40.9817 46.5216 40.9817 47.3938V52.3855C40.9817 52.8185 40.6296 53.1711 40.1974 53.1711C39.765 53.1711 39.4131 52.8185 39.4131 52.3855V47.3938C39.4131 46.5216 38.709 45.8164 37.8382 45.8164C36.986 45.8164 36.2881 46.503 36.2635 47.3505C36.2635 47.3443 36.2635 47.3381 36.2635 47.332V47.3752C36.2635 47.3814 36.2635 47.3876 36.2635 47.3938C36.2635 47.3999 36.2635 47.4061 36.2635 47.4124V52.3793C36.2635 52.8124 35.9114 53.1649 35.4791 53.1649C35.0468 53.1649 34.6948 52.8124 34.6948 52.3793V47.3876C34.6948 46.5154 33.9908 45.8103 33.1201 45.8103C32.2493 45.8103 31.5452 46.5154 31.5452 47.3876V51.5876C31.5452 55.3608 34.596 58.4164 38.3632 58.4164C38.3755 58.4164 38.394 58.4164 38.4064 58.4164H40.1912C40.6235 58.4164 40.9755 58.769 40.9755 59.202C40.9755 59.635 40.6235 59.9876 40.1912 59.9876H38.3632C35.5532 59.9876 33.0707 58.602 31.5452 56.4803C30.5572 55.101 29.9766 53.4124 29.9705 51.5876V47.3876C29.9705 46.2247 30.6003 45.2041 31.5452 44.6597C32.0084 44.3938 32.5457 44.2391 33.1201 44.2391C33.6943 44.2391 34.2316 44.3938 34.6948 44.6597C34.9913 44.833 35.2568 45.0495 35.4791 45.303C35.7014 45.0495 35.967 44.833 36.2635 44.6597C36.7266 44.3938 37.2639 44.2391 37.8382 44.2391C38.4126 44.2391 38.9499 44.3938 39.4131 44.6597C39.7095 44.833 39.975 45.0495 40.1974 45.303C40.4197 45.0495 40.6853 44.8268 40.9817 44.6597C41.4448 44.3938 41.9821 44.2391 42.5565 44.2391C43.1308 44.2391 43.6681 44.3938 44.1313 44.6597C45.0638 45.2103 45.6999 46.2309 45.6999 47.3938Z" fill="#070707"/>
<path d="M18.7368 52.6459C18.8789 53.0541 18.9592 53.4995 18.9592 53.9572V56.0603C18.9592 57.3469 18.3416 58.4912 17.3843 59.2087C16.7297 59.7036 15.9084 59.9943 15.0252 59.9943C14.1421 59.9943 13.3207 59.7036 12.6661 59.2087C11.7089 58.4912 11.0913 57.3469 11.0913 56.0603V46.6087C11.0913 46.3304 11.1407 46.0645 11.2272 45.8232C11.4618 45.1489 11.993 44.617 12.6661 44.382C12.9131 44.2954 13.1787 44.2458 13.4504 44.2458H18.1686C18.601 44.2458 18.9529 44.5985 18.9529 45.0314C18.9529 45.4644 18.601 45.817 18.1686 45.817H13.4504C13.0181 45.817 12.6661 46.1695 12.6661 46.6026V56.0541C12.6661 56.5428 12.8143 56.9881 13.0613 57.3655C13.4875 57.9964 14.2038 58.417 15.0252 58.417C15.8404 58.417 16.563 58.0026 16.9891 57.3655C17.2423 56.9881 17.3843 56.5366 17.3843 56.0541V53.951C17.3843 53.4624 17.2361 53.0108 16.9891 52.6397C16.563 52.0087 15.8466 51.5881 15.0252 51.5881C14.5929 51.5881 14.2409 51.2356 14.2409 50.8026C14.2409 50.3695 14.5929 50.017 15.0252 50.017C16.7421 50.0232 18.1995 51.118 18.7368 52.6459Z" fill="#070707"/>
<path d="M49.4362 45.1173C49.4423 45.1483 49.4486 45.173 49.4548 45.1978C49.4609 45.2163 49.4671 45.2411 49.4794 45.2596C49.5165 45.3524 49.572 45.4452 49.6523 45.5194L49.6585 45.5256C49.782 45.6494 50.029 45.8967 50.2452 46.1132C50.554 46.4225 51.0481 46.4225 51.3568 46.1132C51.6656 45.804 51.6656 45.3092 51.3568 44.9998L50.7639 44.4061C50.7516 44.3936 50.7454 44.3875 50.7331 44.3751C50.7145 44.3565 50.696 44.338 50.6713 44.3256C50.659 44.3194 50.6528 44.3132 50.6405 44.3009C50.6281 44.2947 50.6157 44.2885 50.6096 44.2823C50.5973 44.2761 50.5848 44.27 50.5787 44.2638C50.5602 44.2514 50.5354 44.2452 50.5108 44.2328C50.4985 44.2267 50.4922 44.2267 50.4799 44.2205C50.4737 44.2205 50.4737 44.2205 50.4675 44.2142C50.4614 44.2142 50.449 44.2081 50.4428 44.2081C50.4181 44.2019 50.3934 44.1957 50.3688 44.1896C50.3563 44.1896 50.3502 44.1834 50.3378 44.1834H50.3317C50.3255 44.1834 50.3132 44.1834 50.3069 44.1771C50.3069 44.1771 50.3069 44.1771 50.3008 44.1771C50.3008 44.1771 50.3008 44.1771 50.2946 44.1771H50.2884H50.2823H50.2761H50.27C50.2637 44.1771 50.2575 44.1771 50.2452 44.1771C50.239 44.1771 50.2267 44.1771 50.2205 44.1771C50.2143 44.1771 50.2143 44.1771 50.2081 44.1771C50.202 44.1771 50.1896 44.1771 50.1835 44.1771C50.1649 44.1771 50.1403 44.1771 50.1217 44.1834C50.1155 44.1834 50.1032 44.1834 50.097 44.1896C50.0909 44.1896 50.0846 44.1896 50.0784 44.1957C50.0723 44.1957 50.0661 44.1957 50.0538 44.2019C50.0476 44.2019 50.0415 44.2019 50.0415 44.2019H50.0352C50.0229 44.2019 50.0167 44.2081 50.0044 44.2081C50.0044 44.2081 50.0044 44.2081 49.9982 44.2081C49.9858 44.2142 49.9735 44.2142 49.9611 44.2205C49.9364 44.2267 49.9118 44.239 49.887 44.2514C49.8376 44.27 49.7944 44.3009 49.7511 44.3318C49.7203 44.3565 49.6894 44.3813 49.6585 44.4122C49.4856 44.5854 49.4115 44.8205 49.43 45.0431C49.43 45.0679 49.43 45.0926 49.4362 45.1173Z" fill="#070707"/>
<path d="M54.7473 48.7116C54.562 48.328 54.315 47.9816 54.0247 47.6786C54.0001 47.6538 53.9692 47.6229 53.9444 47.5982C53.8086 47.462 53.6851 47.3384 53.5986 47.258C53.5986 47.258 53.5986 47.258 53.5925 47.2518C53.2837 46.9424 52.7896 46.9424 52.4808 47.2518C52.172 47.561 52.172 48.0559 52.4808 48.3651L52.487 48.3713C52.5734 48.458 52.697 48.5816 52.8328 48.7178C52.8575 48.7424 52.8884 48.7734 52.9131 48.7982C53.3145 49.2249 53.5616 49.794 53.5616 50.4311V56.0229C53.5616 57.328 52.5055 58.3858 51.2024 58.3858C49.8994 58.3858 48.8433 57.328 48.8433 56.0229V51.8229C48.8433 51.3899 48.4914 51.0374 48.059 51.0374C47.7811 51.0374 47.5341 51.1858 47.3921 51.4084C47.318 51.5322 47.2686 51.6745 47.2686 51.8291V56.0291C47.2686 57.3157 47.8861 58.46 48.8433 59.1776C49.498 59.6724 50.3193 59.9631 51.2024 59.9631C52.0856 59.9631 52.907 59.6724 53.5616 59.1776C54.5188 58.46 55.1363 57.3157 55.1363 56.0291V50.4374C55.1363 49.8126 54.9943 49.2311 54.7473 48.7116Z" fill="#070707"/>
<path d="M61.4294 48.1857V50.097C61.1762 50.0475 60.9106 50.0166 60.6451 50.0166C60.6142 50.0166 60.5895 50.0166 60.5586 50.0166H60.5524C60.3178 50.0228 60.0831 50.0475 59.8546 50.097V48.1857C59.8546 47.7527 59.5026 47.4001 59.0703 47.4001C58.3724 47.4001 57.7425 47.097 57.3102 46.6146C56.9335 46.1939 56.7112 45.6435 56.7112 45.0372C56.7112 44.6043 57.0632 44.2517 57.4955 44.2517C57.9278 44.2517 58.2798 44.6043 58.2798 45.0372C58.2798 45.4702 58.6318 45.8228 59.0641 45.8228C59.342 45.8228 59.6075 45.8723 59.8484 45.9589C60.2251 46.095 60.5586 46.3177 60.818 46.6146C61.2009 47.029 61.4294 47.5795 61.4294 48.1857Z" fill="#070707"/>
<path d="M63.0042 50.8024C62.5472 50.456 62.0099 50.2147 61.4294 50.091C61.1762 50.0416 60.9106 50.0106 60.6451 50.0106C60.6142 50.0106 60.5895 50.0106 60.5586 50.0106H60.5524C60.3178 50.0168 60.0831 50.0416 59.8546 50.091C59.4532 50.1714 59.0703 50.3137 58.7244 50.5116C58.7244 50.5116 58.7183 50.5116 58.7183 50.5179C58.5701 50.6044 58.4218 50.6972 58.2859 50.8024C57.3287 51.5199 56.7112 52.6642 56.7112 53.9508V56.0539C56.7112 57.3406 57.3287 58.4848 58.2859 59.2024C58.9406 59.6972 59.762 59.9879 60.6451 59.9879C61.5282 59.9879 62.3495 59.6972 63.0042 59.2024C63.9614 58.4848 64.579 57.3406 64.579 56.0539V53.9508C64.5728 52.6642 63.9553 51.5199 63.0042 50.8024ZM62.6028 57.3653C62.6028 57.3714 62.6028 57.3714 62.6028 57.3653C62.1767 58.0024 61.4603 58.4168 60.6389 58.4168C59.8237 58.4168 59.1011 58.0024 58.675 57.3653C58.4218 56.9879 58.2798 56.5364 58.2798 56.0539V53.9508C58.2798 53.4622 58.4281 53.0106 58.675 52.6395C59.095 52.0085 59.8175 51.5879 60.6389 51.5879C61.4541 51.5879 62.1767 52.0024 62.6028 52.6395C62.856 53.0168 62.998 53.4683 62.998 53.9508V56.0539C63.0042 56.5426 62.856 56.9941 62.6028 57.3653Z" fill="#070707"/>
</g>
<defs>
<clipPath id="clip0_836_9740">
<rect width="74.4828" height="60" fill="white" transform="translate(0.518555)"/>
</clipPath>
</defs>
</svg>
