<svg width="75" height="60" viewBox="0 0 75 60" fill="none" xmlns="http://www.w3.org/2000/svg">
<g clip-path="url(#clip0_391_886)">
<path d="M32.0199 19.4041C31.9952 19.1505 31.884 18.903 31.6988 18.7237C31.6493 18.6742 31.5876 18.6247 31.5258 18.5814L26.8261 15.7237C26.505 15.532 26.3073 15.1732 26.3073 14.802V2.09071C26.2827 1.83711 26.1715 1.58969 25.9862 1.4103C25.9368 1.36082 25.8751 1.31134 25.8133 1.26804L23.8432 0.0742225C23.6889 -0.018561 23.4974 -0.0247465 23.343 0.0680369C23.1825 0.154635 23.0898 0.321645 23.0898 0.501026V17.1278C23.0898 17.5176 23.2936 17.8824 23.6271 18.0804L27.666 20.5361C27.9871 20.734 28.1848 21.0866 28.1848 21.4578V25.1072V25.1257V25.299C28.2095 25.5526 28.3206 25.8 28.5059 25.9794C28.5553 26.0288 28.6171 26.0784 28.6788 26.1216L31.2418 27.6742L31.2664 27.6866C31.2788 27.6928 31.2849 27.699 31.2973 27.7051C31.3035 27.7113 31.3097 27.7113 31.3158 27.7176C31.3838 27.7484 31.4517 27.7608 31.5258 27.7608C31.6185 27.7608 31.7111 27.7361 31.7914 27.6804C31.9334 27.5876 32.0199 27.433 32.0199 27.2598V19.5773V19.4041Z" fill="#070707"/>
<path d="M36.7628 8.44318C36.7381 8.18957 36.627 7.94215 36.4416 7.76277C36.3922 7.71328 36.3305 7.6638 36.2688 7.6205L28.6417 2.98751V2.98133H28.6294L28.6109 2.96895C28.5985 2.96277 28.5923 2.95658 28.58 2.95039H28.5738C28.5677 2.95039 28.5677 2.94421 28.5615 2.94421C28.4071 2.86999 28.228 2.88235 28.0859 2.97514C27.9439 3.06793 27.8574 3.22256 27.8574 3.39576V10.8741L27.8698 10.8803V12.6247C27.8945 12.8782 28.0057 13.1256 28.191 13.305C28.2404 13.3545 28.3021 13.404 28.3638 13.4473L33.0389 16.2927C33.36 16.4844 33.5576 16.8432 33.5576 17.2143V36.2659C33.5823 36.5195 33.6934 36.7668 33.8787 36.9463C33.9281 36.9958 33.9899 37.0452 34.0516 37.0885L35.997 38.27L36.0217 38.2824C36.0341 38.2885 36.0402 38.2947 36.0526 38.3009C36.0587 38.3071 36.0649 38.3071 36.0711 38.3071C36.139 38.338 36.2069 38.3504 36.2811 38.3504C36.3737 38.3504 36.4663 38.3257 36.5466 38.27C36.6887 38.1772 36.7751 38.0226 36.7751 37.8493V10.905L36.7628 10.8989V8.44318Z" fill="#070707"/>
<path d="M51.8004 0.0685898C51.6397 -0.0180081 51.4545 -0.0180081 51.3001 0.0747753L49.3301 1.26859C49.2683 1.31189 49.2066 1.35519 49.1572 1.41086C48.9719 1.59642 48.8607 1.83766 48.836 2.09127V14.7965C48.836 15.1738 48.6383 15.5263 48.3172 15.7181L43.6175 18.5758C43.5558 18.6191 43.4941 18.6624 43.4447 18.7181C43.2594 18.9036 43.1482 19.1448 43.1235 19.3985V19.5717V27.2542C43.1235 27.4273 43.2099 27.5819 43.352 27.6748C43.4323 27.7242 43.5249 27.7552 43.6175 27.7552C43.6855 27.7552 43.7595 27.7428 43.8275 27.7119C43.8337 27.7119 43.8399 27.7057 43.846 27.6995C43.8584 27.6933 43.8646 27.6871 43.8769 27.681L46.4027 26.1655L46.4646 26.1284C46.5263 26.0851 46.5881 26.0417 46.6375 25.9861C46.8228 25.8006 46.9339 25.5594 46.9586 25.3057V25.1325V21.4644C46.9586 21.0871 47.1562 20.7346 47.4774 20.5428L51.5163 18.0871C51.8497 17.883 52.0535 17.5181 52.0535 17.1346V0.501579C52.0535 0.316012 51.9609 0.155188 51.8004 0.0685898Z" fill="#070707"/>
<path d="M46.78 13.4412C46.8417 13.3978 46.9034 13.3545 46.9528 13.2989C47.1381 13.1133 47.2493 12.872 47.274 12.6185V10.8803L47.2864 10.8741V3.39576C47.2864 3.22256 47.1999 3.06793 47.0579 2.97514C46.9096 2.88235 46.7367 2.86999 46.5823 2.94421C46.5761 2.94421 46.5761 2.95039 46.57 2.95039L46.5638 2.95658C46.5515 2.96277 46.5452 2.96895 46.5329 2.97514L46.5144 2.98751H46.502V2.9937L38.9369 7.58958L38.875 7.62669C38.8133 7.66999 38.7516 7.71329 38.7021 7.76895C38.5168 7.95452 38.4057 8.19576 38.381 8.44937V10.8989L38.3687 10.905V37.8556C38.3687 38.0287 38.4551 38.1834 38.5972 38.2762C38.6775 38.3318 38.7701 38.3566 38.8627 38.3566C38.9306 38.3566 39.0048 38.3442 39.0727 38.3133C39.0789 38.3133 39.0851 38.3071 39.0912 38.3009C39.1036 38.2947 39.1097 38.2885 39.1221 38.2824L41.0922 37.0885C41.1539 37.0452 41.2157 37.002 41.2651 36.9462C41.4504 36.7607 41.5615 36.5195 41.5862 36.2658V17.2143C41.5862 16.837 41.7838 16.4844 42.1049 16.2927L46.7182 13.4906L46.78 13.4412Z" fill="#070707"/>
<path d="M6.37856 48.7114V48.8413C6.37238 48.8413 6.37238 48.8413 6.36621 48.8351C6.37238 48.7918 6.37856 48.7485 6.37856 48.7114Z" fill="#070707"/>
<path d="M4.27868 45.0312C4.27868 45.4642 3.92667 45.8167 3.49437 45.8167H1.91957C1.48727 45.8167 1.13525 45.4642 1.13525 45.0312C1.13525 44.5982 1.48727 44.2456 1.91957 44.2456H3.49437C3.92667 44.2456 4.27868 44.5982 4.27868 45.0312Z" fill="#070707"/>
<path d="M6.37856 48.7114V48.8413C6.37238 48.8413 6.37238 48.8413 6.36621 48.8351C6.37238 48.7918 6.37856 48.7485 6.37856 48.7114Z" fill="#070707"/>
<path d="M9.52159 46.6085V56.06C9.52159 57.3467 8.90406 58.491 7.94683 59.2085C7.29221 59.7033 6.47085 59.9941 5.58772 59.9941C4.7046 59.9941 3.88323 59.7033 3.22861 59.2085C2.27138 58.491 1.65381 57.3467 1.65381 56.06V53.4373C1.65381 53.0044 2.00582 52.6518 2.43812 52.6518C2.71603 52.6518 2.95688 52.7941 3.09892 53.0106C3.17921 53.1343 3.22243 53.2827 3.22243 53.4373V56.06C3.22243 57.3652 4.27848 58.4229 5.58155 58.4229C6.88461 58.4229 7.94066 57.3652 7.94066 56.06V46.6085C7.94066 46.1756 7.58865 45.8229 7.15635 45.8229C6.72405 45.8229 6.37203 46.1756 6.37203 46.6085V48.7116C6.37203 48.7549 6.36585 48.7982 6.35968 48.8353C6.29793 49.2127 5.97679 49.4971 5.58155 49.4971C5.14925 49.4971 4.79724 49.1446 4.79724 48.7116V46.6085C4.79724 45.5817 5.45186 44.7033 6.37203 44.3817C6.61906 44.2952 6.88461 44.2456 7.15635 44.2456C7.43425 44.2456 7.69981 44.2952 7.94066 44.3817C8.86701 44.7033 9.52159 45.5817 9.52159 46.6085Z" fill="#070707"/>
<path d="M27.6106 56.8516C28.0428 56.8516 28.3948 57.2042 28.3948 57.6371V59.2145C28.3948 59.6475 28.0428 60 27.6106 60C27.1782 60 26.8262 59.6475 26.8262 59.2145V57.6371C26.8262 57.2042 27.1782 56.8516 27.6106 56.8516Z" fill="#070707"/>
<path d="M28.395 48.1859V52.3859C28.395 52.8189 28.043 53.1715 27.6107 53.1715C27.1784 53.1715 26.8264 52.8189 26.8264 52.3859V48.1859C26.8264 46.8808 25.7703 45.823 24.4673 45.823C23.1642 45.823 22.1081 46.8808 22.1081 48.1859V59.2148C22.1081 59.6478 21.7561 60.0003 21.3238 60.0003C20.8915 60.0003 20.5396 59.6478 20.5396 59.2148V48.1859C20.5396 46.8993 21.1571 45.755 22.1143 45.0374C22.769 44.5426 23.5903 44.252 24.4734 44.252C25.3565 44.252 26.1656 44.5364 26.8264 45.0313C27.7774 45.7488 28.395 46.8932 28.395 48.1859Z" fill="#070707"/>
<path d="M73.2238 56.8516C73.6561 56.8516 74.0081 57.2042 74.0081 57.6371V59.2145C74.0081 59.6475 73.6561 60 73.2238 60C72.7915 60 72.4395 59.6475 72.4395 59.2145V57.6371C72.4395 57.2042 72.7915 56.8516 73.2238 56.8516Z" fill="#070707"/>
<path d="M74.0083 48.1859V52.3859C74.0083 52.8189 73.6563 53.1715 73.224 53.1715C72.7917 53.1715 72.4397 52.8189 72.4397 52.3859V48.1859C72.4397 46.8808 71.3837 45.823 70.0806 45.823C68.7775 45.823 67.7215 46.8808 67.7215 48.1859V59.2148C67.7215 59.6478 67.3695 60.0003 66.9371 60.0003C66.5049 60.0003 66.1528 59.6478 66.1528 59.2148V48.1859C66.1528 46.8993 66.7704 45.755 67.7277 45.0374C68.3823 44.5426 69.2036 44.252 70.0867 44.252C70.9699 44.252 71.7913 44.5426 72.4459 45.0374C73.3908 45.7488 74.0083 46.8932 74.0083 48.1859Z" fill="#070707"/>
<path d="M45.6987 47.3939V52.3856C45.6987 52.8187 45.3467 53.1712 44.9143 53.1712C44.4821 53.1712 44.13 52.8187 44.13 52.3856V47.3939C44.13 46.5217 43.426 45.8166 42.5553 45.8166C41.6845 45.8166 40.9804 46.5217 40.9804 47.3939V52.3856C40.9804 52.8187 40.6284 53.1712 40.1961 53.1712C39.7638 53.1712 39.4119 52.8187 39.4119 52.3856V47.3939C39.4119 46.5217 38.7078 45.8166 37.837 45.8166C36.9847 45.8166 36.2869 46.5031 36.2623 47.3506C36.2623 47.3444 36.2623 47.3383 36.2623 47.3321V47.3754C36.2623 47.3815 36.2623 47.3877 36.2623 47.3939C36.2623 47.4001 36.2623 47.4062 36.2623 47.4125V52.3795C36.2623 52.8125 35.9102 53.165 35.4779 53.165C35.0456 53.165 34.6936 52.8125 34.6936 52.3795V47.3877C34.6936 46.5156 33.9896 45.8104 33.1188 45.8104C32.2481 45.8104 31.544 46.5156 31.544 47.3877V51.5877C31.544 55.3609 34.5948 58.4166 38.362 58.4166C38.3743 58.4166 38.3928 58.4166 38.4052 58.4166H40.19C40.6222 58.4166 40.9743 58.7691 40.9743 59.2021C40.9743 59.6352 40.6222 59.9877 40.19 59.9877H38.362C35.552 59.9877 33.0694 58.6021 31.544 56.4805C30.5559 55.1011 29.9754 53.4125 29.9692 51.5877V47.3877C29.9692 46.2248 30.5991 45.2042 31.544 44.6599C32.0072 44.3939 32.5445 44.2393 33.1188 44.2393C33.6931 44.2393 34.2304 44.3939 34.6936 44.6599C34.9901 44.8331 35.2556 45.0496 35.4779 45.3031C35.7002 45.0496 35.9658 44.8331 36.2623 44.6599C36.7254 44.3939 37.2627 44.2393 37.837 44.2393C38.4114 44.2393 38.9487 44.3939 39.4119 44.6599C39.7082 44.8331 39.9738 45.0496 40.1961 45.3031C40.4185 45.0496 40.6841 44.8269 40.9804 44.6599C41.4436 44.3939 41.9809 44.2393 42.5553 44.2393C43.1296 44.2393 43.6669 44.3939 44.13 44.6599C45.0626 45.2104 45.6987 46.231 45.6987 47.3939Z" fill="#070707"/>
<path d="M18.7359 52.6456C18.8779 53.0539 18.9582 53.4992 18.9582 53.957V56.06C18.9582 57.3467 18.3406 58.491 17.3834 59.2085C16.7288 59.7033 15.9074 59.9941 15.0242 59.9941C14.1411 59.9941 13.3198 59.7033 12.6652 59.2085C11.7079 58.491 11.0903 57.3467 11.0903 56.06V46.6085C11.0903 46.3302 11.1397 46.0642 11.2262 45.8229C11.4609 45.1487 11.992 44.6168 12.6652 44.3817C12.9122 44.2952 13.1777 44.2456 13.4495 44.2456H18.1676C18.6 44.2456 18.9519 44.5982 18.9519 45.0312C18.9519 45.4642 18.6 45.8167 18.1676 45.8167H13.4495C13.0171 45.8167 12.6652 46.1693 12.6652 46.6023V56.0539C12.6652 56.5425 12.8134 56.9879 13.0604 57.3652C13.4865 57.9961 14.2029 58.4167 15.0242 58.4167C15.8394 58.4167 16.562 58.0023 16.9881 57.3652C17.2413 56.9879 17.3834 56.5363 17.3834 56.0539V53.9508C17.3834 53.4621 17.2352 53.0106 16.9881 52.6394C16.562 52.0085 15.8456 51.5879 15.0242 51.5879C14.592 51.5879 14.2399 51.2353 14.2399 50.8023C14.2399 50.3693 14.592 50.0167 15.0242 50.0167C16.7411 50.0229 18.1986 51.1178 18.7359 52.6456Z" fill="#070707"/>
<path d="M49.4352 45.1174C49.4414 45.1484 49.4476 45.1732 49.4538 45.1979C49.4599 45.2164 49.4661 45.2412 49.4784 45.2597C49.5155 45.3526 49.5711 45.4453 49.6514 45.5195L49.6575 45.5257C49.7811 45.6495 50.0281 45.8968 50.2442 46.1134C50.553 46.4226 51.0471 46.4226 51.3558 46.1134C51.6646 45.8041 51.6646 45.3093 51.3558 44.9999L50.763 44.4062C50.7506 44.3938 50.7445 44.3876 50.7321 44.3752C50.7136 44.3566 50.6951 44.3381 50.6703 44.3257C50.658 44.3195 50.6518 44.3134 50.6395 44.301C50.6271 44.2948 50.6148 44.2886 50.6086 44.2824C50.5963 44.2762 50.5839 44.2701 50.5777 44.2639C50.5592 44.2515 50.5345 44.2453 50.5098 44.233C50.4975 44.2268 50.4912 44.2268 50.4789 44.2206C50.4727 44.2206 50.4727 44.2206 50.4666 44.2144C50.4604 44.2144 50.448 44.2082 50.4418 44.2082C50.4172 44.202 50.3924 44.1958 50.3678 44.1897C50.3554 44.1897 50.3492 44.1835 50.3369 44.1835H50.3307C50.3245 44.1835 50.3122 44.1835 50.306 44.1772C50.306 44.1772 50.306 44.1772 50.2998 44.1772C50.2998 44.1772 50.2998 44.1772 50.2936 44.1772H50.2875H50.2813H50.2751H50.269C50.2627 44.1772 50.2566 44.1772 50.2442 44.1772C50.2381 44.1772 50.2257 44.1772 50.2195 44.1772C50.2133 44.1772 50.2133 44.1772 50.2072 44.1772C50.201 44.1772 50.1887 44.1772 50.1825 44.1772C50.1639 44.1772 50.1393 44.1772 50.1207 44.1835C50.1145 44.1835 50.1022 44.1835 50.096 44.1897C50.0899 44.1897 50.0836 44.1897 50.0775 44.1958C50.0713 44.1958 50.0651 44.1958 50.0528 44.202C50.0466 44.202 50.0405 44.202 50.0405 44.202H50.0342C50.0219 44.202 50.0157 44.2082 50.0034 44.2082C50.0034 44.2082 50.0034 44.2082 49.9972 44.2082C49.9848 44.2144 49.9725 44.2144 49.9602 44.2206C49.9354 44.2268 49.9108 44.2391 49.886 44.2515C49.8366 44.2701 49.7934 44.301 49.7502 44.332C49.7193 44.3566 49.6884 44.3814 49.6575 44.4124C49.4846 44.5855 49.4105 44.8206 49.429 45.0432C49.429 45.068 49.429 45.0928 49.4352 45.1174Z" fill="#070707"/>
<path d="M54.7463 48.7118C54.5611 48.3283 54.314 47.9819 54.0238 47.6788C53.9991 47.654 53.9682 47.6232 53.9435 47.5984C53.8076 47.4623 53.6841 47.3386 53.5977 47.2582C53.5977 47.2582 53.5977 47.2582 53.5915 47.252C53.2827 46.9427 52.7886 46.9427 52.4798 47.252C52.171 47.5613 52.171 48.0561 52.4798 48.3654L52.486 48.3715C52.5725 48.4582 52.696 48.5819 52.8319 48.718C52.8565 48.7427 52.8874 48.7736 52.9122 48.7984C53.3135 49.2252 53.5606 49.7942 53.5606 50.4313V56.0232C53.5606 57.3283 52.5046 58.3861 51.2015 58.3861C49.8984 58.3861 48.8423 57.3283 48.8423 56.0232V51.8232C48.8423 51.3901 48.4904 51.0376 48.058 51.0376C47.7801 51.0376 47.5331 51.1861 47.3911 51.4087C47.317 51.5324 47.2676 51.6747 47.2676 51.8293V56.0293C47.2676 57.3159 47.8851 58.4603 48.8423 59.1778C49.497 59.6726 50.3184 59.9634 51.2015 59.9634C52.0846 59.9634 52.906 59.6726 53.5606 59.1778C54.5178 58.4603 55.1354 57.3159 55.1354 56.0293V50.4376C55.1354 49.8128 54.9933 49.2313 54.7463 48.7118Z" fill="#070707"/>
<path d="M61.4281 48.1859V50.0972C61.175 50.0478 60.9094 50.0168 60.6439 50.0168C60.6129 50.0168 60.5883 50.0168 60.5574 50.0168H60.5512C60.3166 50.023 60.0819 50.0478 59.8534 50.0972V48.1859C59.8534 47.753 59.5014 47.4003 59.0691 47.4003C58.3712 47.4003 57.7412 47.0972 57.309 46.6148C56.9323 46.1942 56.71 45.6437 56.71 45.0374C56.71 44.6045 57.062 44.252 57.4943 44.252C57.9266 44.252 58.2785 44.6045 58.2785 45.0374C58.2785 45.4705 58.6306 45.823 59.0628 45.823C59.3408 45.823 59.6063 45.8726 59.8472 45.9591C60.2239 46.0952 60.5574 46.3179 60.8168 46.6148C61.1996 47.0293 61.4281 47.5797 61.4281 48.1859Z" fill="#070707"/>
<path d="M63.003 50.8025C62.546 50.4561 62.0087 50.2148 61.4281 50.0911C61.175 50.0417 60.9094 50.0107 60.6439 50.0107C60.6129 50.0107 60.5883 50.0107 60.5574 50.0107H60.5512C60.3166 50.0169 60.0819 50.0417 59.8534 50.0911C59.452 50.1715 59.0691 50.3138 58.7232 50.5117C58.7232 50.5117 58.7171 50.5117 58.7171 50.518C58.5689 50.6046 58.4206 50.6973 58.2847 50.8025C57.3275 51.52 56.71 52.6644 56.71 53.9509V56.054C56.71 57.3407 57.3275 58.485 58.2847 59.2025C58.9394 59.6973 59.7608 59.9881 60.6439 59.9881C61.5269 59.9881 62.3483 59.6973 63.003 59.2025C63.9602 58.485 64.5777 57.3407 64.5777 56.054V53.9509C64.5716 52.6644 63.9541 51.52 63.003 50.8025ZM62.6015 57.3654C62.6015 57.3715 62.6015 57.3715 62.6015 57.3654C62.1755 58.0025 61.459 58.4169 60.6377 58.4169C59.8225 58.4169 59.0999 58.0025 58.6738 57.3654C58.4206 56.9881 58.2786 56.5365 58.2786 56.054V53.9509C58.2786 53.4623 58.4268 53.0107 58.6738 52.6396C59.0938 52.0087 59.8163 51.5881 60.6377 51.5881C61.4529 51.5881 62.1755 52.0025 62.6015 52.6396C62.8548 53.0169 62.9968 53.4685 62.9968 53.9509V56.054C63.003 56.5427 62.8548 56.9942 62.6015 57.3654Z" fill="#070707"/>
</g>
<defs>
<clipPath id="clip0_391_886">
<rect width="74.4828" height="60" fill="white" transform="translate(0.517578)"/>
</clipPath>
</defs>
</svg>
