<svg width="18" height="18" viewBox="0 0 18 18" fill="none" xmlns="http://www.w3.org/2000/svg">
<path d="M0.940616 0.0365219C0.574423 0.10685 0.257524 0.356512 0.0990751 0.694084C0.021611 0.859354 0.00400557 0.943745 0.00400557 1.17583C0.00400557 1.72086 -0.235429 1.4501 3.78918 5.4658L7.34549 9.01733L3.75749 12.604C0.845547 15.5191 0.158934 16.2224 0.0920329 16.3665C-0.0276843 16.6162 -0.0312054 17.0663 0.0849907 17.316C0.187102 17.5375 0.412452 17.7696 0.637802 17.8891C0.891321 18.0192 1.29625 18.0368 1.5885 17.9313C1.79272 17.854 1.91948 17.7344 5.40184 14.2602L9.0004 10.67L12.5849 14.2427C15.4616 17.112 16.201 17.8329 16.3419 17.8997C16.4898 17.97 16.5707 17.9841 16.8524 17.9841C17.1447 17.9841 17.2081 17.97 17.363 17.8891C17.5813 17.7766 17.8172 17.5269 17.9193 17.3054C18.032 17.0663 18.025 16.6127 17.9088 16.3665C17.8419 16.2224 17.1553 15.5191 14.2433 12.604L10.6553 9.01733L14.2116 5.4658C18.2362 1.4501 17.9968 1.72086 17.9968 1.17583C17.9968 0.947262 17.9792 0.859354 17.9052 0.701117C17.62 0.096302 16.9053 -0.149845 16.3067 0.145531C16.2151 0.191242 14.9299 1.44659 12.5849 3.78849L9.0004 7.36464L5.41945 3.78849C3.07088 1.44659 1.78568 0.191242 1.69413 0.145531C1.57441 0.0857525 1.18357 -0.0127068 1.11667 0.00135803C1.10611 0.00487518 1.02512 0.01894 0.940616 0.0365219Z" fill="#070707"/>
</svg>
